<mxfile host="65bd71144e">
    <diagram name="Cloud Architecture" id="gU8E3vsCLFC1tpfYn1Nnc">
        <mxGraphModel dx="1690" dy="1230" grid="0" gridSize="10" guides="1" tooltips="1" connect="1" arrows="1" fold="1" page="1" pageScale="1" pageWidth="2336" pageHeight="1654" background="#ffffff" math="0" shadow="0">
            <root>
                <mxCell id="uSThPKN0Iph8RpYOuWK1S-54" nextCellIdValue="120">
                    <ResourceDescriptor resource="urn:x-design-inspector:v1:genid-01JKADFF7GS6SK544SHBPQECEW-uSThPKN0Iph8RpYOuWK1S-54" serialization-version="v0" as="resourceDescriptor">
                        <SemanticDataContainer serialization-version="v0">
                            <IRI resource="https://ontology.security.amazon.dev/design-inspector/components/84a80b5f-5642-4a17-9585-ebfdb65f4bec" property="https://ontology.security.amazon.dev/foundation/system-modeling/04539597-4283-4f65-8090-ae67f9d3e949"/>
                            <StringLiteral content="uSThPKN0Iph8RpYOuWK1S-54" property="https://ontology.security.amazon.dev/foundation/diagram-visualization/a2255956-c3df-4c2c-b489-c307f68abc97"/>
                        </SemanticDataContainer>
                    </ResourceDescriptor>
                </mxCell>
                <mxCell id="uSThPKN0Iph8RpYOuWK1S-55" parent="uSThPKN0Iph8RpYOuWK1S-54">
                    <ResourceDescriptor resource="urn:x-design-inspector:v1:genid-01JKADFF7GS6SK544SHBPQECEW-uSThPKN0Iph8RpYOuWK1S-55" serialization-version="v0" as="resourceDescriptor">
                        <SemanticDataContainer serialization-version="v0">
                            <IRI resource="https://ontology.security.amazon.dev/design-inspector/components/84a80b5f-5642-4a17-9585-ebfdb65f4bec" property="https://ontology.security.amazon.dev/foundation/system-modeling/04539597-4283-4f65-8090-ae67f9d3e949"/>
                            <StringLiteral content="uSThPKN0Iph8RpYOuWK1S-55" property="https://ontology.security.amazon.dev/foundation/diagram-visualization/a2255956-c3df-4c2c-b489-c307f68abc97"/>
                        </SemanticDataContainer>
                    </ResourceDescriptor>
                </mxCell>
                <object label="&lt;div&gt;&lt;b&gt;AWS Cloud&lt;/b&gt;&lt;/div&gt;" stencilType="aws-cloud" id="KL7B_61rrhgrM1_wuw4B3-91">
                    <mxCell style="points=[[0,0],[0.25,0],[0.5,0],[0.75,0],[1,0],[1,0.25],[1,0.5],[1,0.75],[1,1],[0.75,1],[0.5,1],[0.25,1],[0,1],[0,0.75],[0,0.5],[0,0.25]];outlineConnect=0;gradientColor=none;html=1;whiteSpace=wrap;fontSize=12;fontStyle=0;shape=mxgraph.aws20.group;grIcon=mxgraph.aws20.group_aws_cloud_alt;strokeColor=#232F3E;fillColor=none;verticalAlign=top;align=left;spacingLeft=30;fontColor=#232F3E;dashed=0;" parent="uSThPKN0Iph8RpYOuWK1S-55" vertex="1" rdfUpgraded="1" assetTypeVersion="3">
                        <mxGeometry x="161.5" y="57" width="1652" height="760" as="geometry"/>
                        <ResourceDescriptor resource="urn:x-design-inspector:v1:genid-01JKADFF7GS6SK544SHBPQECEW-KL7B_61rrhgrM1_wuw4B3-91" serialization-version="v0" as="resourceDescriptor">
                            <SemanticDataContainer serialization-version="v0">
                                <StringLiteral content="gU8E3vsCLFC1tpfYn1Nnc" property="https://ontology.security.amazon.dev/foundation/diagram-visualization/05cc531c-d241-49c3-80dc-bd3777c5426f"/>
                                <IRI resource="https://ontology.security.amazon.dev/design-inspector/components/84a80b5f-5642-4a17-9585-ebfdb65f4bec" property="https://ontology.security.amazon.dev/foundation/system-modeling/04539597-4283-4f65-8090-ae67f9d3e949"/>
                                <IRI resource="https://ontology.security.amazon.dev/design-inspector/components/4f51991f-f3c6-4a47-9b00-013560ab92f4" property="http://www.w3.org/1999/02/22-rdf-syntax-ns#type"/>
                                <IRI resource="https://ontology.security.amazon.dev/foundation/graph-structure/0b4eeac8-04e5-4e85-869c-bd56fb947b7b" property="http://www.w3.org/1999/02/22-rdf-syntax-ns#type"/>
                                <StringLiteral content="AWS Cloud" property="http://www.w3.org/2000/01/rdf-schema#label"/>
                                <StringLiteral content="KL7B_61rrhgrM1_wuw4B3-91" property="https://ontology.security.amazon.dev/foundation/diagram-visualization/a2255956-c3df-4c2c-b489-c307f68abc97"/>
                            </SemanticDataContainer>
                        </ResourceDescriptor>
                    </mxCell>
                </object>
                <object label="FlinkSQL Development" stencilType="availability-zone" id="KL7B_61rrhgrM1_wuw4B3-92">
                    <mxCell style="fillColor=none;strokeColor=#6c8ebf;dashed=1;verticalAlign=top;fontStyle=0;html=1;labelBackgroundColor=none;fontColor=#0066cc;" parent="uSThPKN0Iph8RpYOuWK1S-55" vertex="1" rdfUpgraded="1" assetTypeVersion="3">
                        <mxGeometry x="351.5" y="79" width="698" height="167" as="geometry"/>
                        <ResourceDescriptor resource="urn:x-design-inspector:v1:genid-01JKADFF7GS6SK544SHBPQECEW-KL7B_61rrhgrM1_wuw4B3-92" serialization-version="v0" as="resourceDescriptor">
                            <SemanticDataContainer serialization-version="v0">
                                <StringLiteral content="gU8E3vsCLFC1tpfYn1Nnc" property="https://ontology.security.amazon.dev/foundation/diagram-visualization/05cc531c-d241-49c3-80dc-bd3777c5426f"/>
                                <IRI resource="https://ontology.security.amazon.dev/design-inspector/components/84a80b5f-5642-4a17-9585-ebfdb65f4bec" property="https://ontology.security.amazon.dev/foundation/system-modeling/04539597-4283-4f65-8090-ae67f9d3e949"/>
                                <IRI resource="https://ontology.security.amazon.dev/design-inspector/components/4f51991f-f3c6-4a47-9b00-013560ab92f4" property="http://www.w3.org/1999/02/22-rdf-syntax-ns#type"/>
                                <IRI resource="https://ontology.security.amazon.dev/foundation/graph-structure/0b4eeac8-04e5-4e85-869c-bd56fb947b7b" property="http://www.w3.org/1999/02/22-rdf-syntax-ns#type"/>
                                <StringLiteral content="FlinkSQL Development" property="http://www.w3.org/2000/01/rdf-schema#label"/>
                                <StringLiteral content="KL7B_61rrhgrM1_wuw4B3-92" property="https://ontology.security.amazon.dev/foundation/diagram-visualization/a2255956-c3df-4c2c-b489-c307f68abc97"/>
                            </SemanticDataContainer>
                        </ResourceDescriptor>
                    </mxCell>
                </object>
                <object label="Retrieve API" stencilType="availability-zone" id="KL7B_61rrhgrM1_wuw4B3-93">
                    <mxCell style="fillColor=none;strokeColor=#6c8ebf;dashed=1;verticalAlign=top;fontStyle=0;html=1;fontColor=#1A1A1A;" parent="uSThPKN0Iph8RpYOuWK1S-55" vertex="1" rdfUpgraded="1" assetTypeVersion="3">
                        <mxGeometry x="1397.5" y="261" width="376" height="273" as="geometry"/>
                        <ResourceDescriptor resource="urn:x-design-inspector:v1:genid-01JKADFF7GS6SK544SHBPQECEW-KL7B_61rrhgrM1_wuw4B3-93" serialization-version="v0" as="resourceDescriptor">
                            <SemanticDataContainer serialization-version="v0">
                                <StringLiteral content="gU8E3vsCLFC1tpfYn1Nnc" property="https://ontology.security.amazon.dev/foundation/diagram-visualization/05cc531c-d241-49c3-80dc-bd3777c5426f"/>
                                <IRI resource="https://ontology.security.amazon.dev/design-inspector/components/84a80b5f-5642-4a17-9585-ebfdb65f4bec" property="https://ontology.security.amazon.dev/foundation/system-modeling/04539597-4283-4f65-8090-ae67f9d3e949"/>
                                <IRI resource="https://ontology.security.amazon.dev/design-inspector/components/4f51991f-f3c6-4a47-9b00-013560ab92f4" property="http://www.w3.org/1999/02/22-rdf-syntax-ns#type"/>
                                <IRI resource="https://ontology.security.amazon.dev/foundation/graph-structure/0b4eeac8-04e5-4e85-869c-bd56fb947b7b" property="http://www.w3.org/1999/02/22-rdf-syntax-ns#type"/>
                                <StringLiteral content="Retrieve API" property="http://www.w3.org/2000/01/rdf-schema#label"/>
                                <StringLiteral content="KL7B_61rrhgrM1_wuw4B3-93" property="https://ontology.security.amazon.dev/foundation/diagram-visualization/a2255956-c3df-4c2c-b489-c307f68abc97"/>
                            </SemanticDataContainer>
                        </ResourceDescriptor>
                    </mxCell>
                </object>
                <object label="Batch Processing" stencilType="availability-zone" id="KL7B_61rrhgrM1_wuw4B3-94">
                    <mxCell style="fillColor=none;strokeColor=#147EBA;dashed=1;verticalAlign=top;fontStyle=0;fontColor=#1A1A1A;html=1;" parent="uSThPKN0Iph8RpYOuWK1S-55" vertex="1" rdfUpgraded="1" assetTypeVersion="3">
                        <mxGeometry x="350.5" y="545.5" width="1030" height="240" as="geometry"/>
                        <ResourceDescriptor resource="urn:x-design-inspector:v1:genid-01JKADFF7GS6SK544SHBPQECEW-KL7B_61rrhgrM1_wuw4B3-94" serialization-version="v0" as="resourceDescriptor">
                            <SemanticDataContainer serialization-version="v0">
                                <StringLiteral content="gU8E3vsCLFC1tpfYn1Nnc" property="https://ontology.security.amazon.dev/foundation/diagram-visualization/05cc531c-d241-49c3-80dc-bd3777c5426f"/>
                                <IRI resource="https://ontology.security.amazon.dev/design-inspector/components/84a80b5f-5642-4a17-9585-ebfdb65f4bec" property="https://ontology.security.amazon.dev/foundation/system-modeling/04539597-4283-4f65-8090-ae67f9d3e949"/>
                                <IRI resource="https://ontology.security.amazon.dev/design-inspector/components/4f51991f-f3c6-4a47-9b00-013560ab92f4" property="http://www.w3.org/1999/02/22-rdf-syntax-ns#type"/>
                                <IRI resource="https://ontology.security.amazon.dev/foundation/graph-structure/0b4eeac8-04e5-4e85-869c-bd56fb947b7b" property="http://www.w3.org/1999/02/22-rdf-syntax-ns#type"/>
                                <StringLiteral content="Batch Processing" property="http://www.w3.org/2000/01/rdf-schema#label"/>
                                <StringLiteral content="KL7B_61rrhgrM1_wuw4B3-94" property="https://ontology.security.amazon.dev/foundation/diagram-visualization/a2255956-c3df-4c2c-b489-c307f68abc97"/>
                            </SemanticDataContainer>
                        </ResourceDescriptor>
                    </mxCell>
                </object>
                <object label="Feature Store" stencilType="availability-zone" id="KL7B_61rrhgrM1_wuw4B3-95">
                    <mxCell style="fillColor=none;strokeColor=#6c8ebf;dashed=1;verticalAlign=top;fontStyle=0;html=1;fontColor=#1A1A1A;" parent="uSThPKN0Iph8RpYOuWK1S-55" vertex="1" rdfUpgraded="1" assetTypeVersion="3">
                        <mxGeometry x="1061.5" y="260" width="320" height="276" as="geometry"/>
                        <ResourceDescriptor resource="urn:x-design-inspector:v1:genid-01JKADFF7GS6SK544SHBPQECEW-KL7B_61rrhgrM1_wuw4B3-95" serialization-version="v0" as="resourceDescriptor">
                            <SemanticDataContainer serialization-version="v0">
                                <StringLiteral content="gU8E3vsCLFC1tpfYn1Nnc" property="https://ontology.security.amazon.dev/foundation/diagram-visualization/05cc531c-d241-49c3-80dc-bd3777c5426f"/>
                                <IRI resource="https://ontology.security.amazon.dev/design-inspector/components/84a80b5f-5642-4a17-9585-ebfdb65f4bec" property="https://ontology.security.amazon.dev/foundation/system-modeling/04539597-4283-4f65-8090-ae67f9d3e949"/>
                                <IRI resource="https://ontology.security.amazon.dev/design-inspector/components/4f51991f-f3c6-4a47-9b00-013560ab92f4" property="http://www.w3.org/1999/02/22-rdf-syntax-ns#type"/>
                                <IRI resource="https://ontology.security.amazon.dev/foundation/graph-structure/0b4eeac8-04e5-4e85-869c-bd56fb947b7b" property="http://www.w3.org/1999/02/22-rdf-syntax-ns#type"/>
                                <StringLiteral content="Feature Store" property="http://www.w3.org/2000/01/rdf-schema#label"/>
                                <StringLiteral content="KL7B_61rrhgrM1_wuw4B3-95" property="https://ontology.security.amazon.dev/foundation/diagram-visualization/a2255956-c3df-4c2c-b489-c307f68abc97"/>
                            </SemanticDataContainer>
                        </ResourceDescriptor>
                    </mxCell>
                </object>
                <object label="" stencilType="generic-channel" id="KL7B_61rrhgrM1_wuw4B3-96">
                    <mxCell style="edgeStyle=orthogonalEdgeStyle;rounded=0;html=1;jettySize=auto;orthogonalLoop=1;fontColor=#1A1A1A;strokeColor=#1A1A1A;" parent="uSThPKN0Iph8RpYOuWK1S-55" source="8wax_bq2wAJuO56Lcbj5D" target="jGxLlvsCPuQMz4Q4M0CTp" edge="1" rdfUpgraded="1" assetTypeVersion="3" pageId="gU8E3vsCLFC1tpfYn1Nnc">
                        <mxGeometry relative="1" as="geometry">
                            <Array as="points">
                                <mxPoint x="1391.5" y="357"/>
                                <mxPoint x="1391.5" y="642"/>
                            </Array>
                        </mxGeometry>
                        <ResourceDescriptor resource="urn:x-design-inspector:v1:genid-01JKADFF7GS6SK544SHBPQECEW-KL7B_61rrhgrM1_wuw4B3-96" serialization-version="v0" as="resourceDescriptor">
                            <SemanticDataContainer serialization-version="v0">
                                <IRI resource="urn:x-design-inspector:v1:genid-01JKADFF7GS6SK544SHBPQECEW-8wax_bq2wAJuO56Lcbj5D" property="https://ontology.security.amazon.dev/foundation/graph-structure/d1fc066e-3862-4ae0-8304-6cef42f40a50"/>
                                <IRI resource="https://ontology.security.amazon.dev/design-inspector/components/84a80b5f-5642-4a17-9585-ebfdb65f4bec" property="https://ontology.security.amazon.dev/foundation/system-modeling/04539597-4283-4f65-8090-ae67f9d3e949"/>
                                <StringLiteral content="gU8E3vsCLFC1tpfYn1Nnc" property="https://ontology.security.amazon.dev/foundation/diagram-visualization/05cc531c-d241-49c3-80dc-bd3777c5426f"/>
                                <IRI resource="https://ontology.security.amazon.dev/foundation/graph-structure/65157620-74b7-470e-bd9d-b9bf56b6cb4b" property="http://www.w3.org/1999/02/22-rdf-syntax-ns#type"/>
                                <StringLiteral content="KL7B_61rrhgrM1_wuw4B3-96" property="https://ontology.security.amazon.dev/foundation/diagram-visualization/a2255956-c3df-4c2c-b489-c307f68abc97"/>
                                <IRI resource="urn:x-design-inspector:v1:genid-01JKADFF7GS6SK544SHBPQECEW-jGxLlvsCPuQMz4Q4M0CTp" property="https://ontology.security.amazon.dev/foundation/graph-structure/617be0ed-cf17-4a01-a75d-81ed3a472532"/>
                            </SemanticDataContainer>
                        </ResourceDescriptor>
                    </mxCell>
                </object>
                <mxCell id="8wax_bq2wAJuO56Lcbj5D" value="&lt;div&gt;Amazon SageMaker&lt;br&gt;Feature Store&lt;/div&gt;(online/offline)" style="shape=image;verticalLabelPosition=bottom;verticalAlign=top;aspect=fixed;imageAspect=0;image=data:image/svg+xml,PHN2ZyB4bWxucz0iaHR0cDovL3d3dy53My5vcmcvMjAwMC9zdmciIHhtbG5zOnhsaW5rPSJodHRwOi8vd3d3LnczLm9yZy8xOTk5L3hsaW5rIiB3aWR0aD0iODBweCIgaGVpZ2h0PSI4MHB4IiB2aWV3Qm94PSIwIDAgODAgODAiIHZlcnNpb249IjEuMSI+JiN4YTsgICAgPHRpdGxlPkljb24tQXJjaGl0ZWN0dXJlLzY0L0FyY2hfQW1hem9uLVNhZ2VNYWtlcl82NDwvdGl0bGU+JiN4YTsgICAgPGcgaWQ9Ikljb24tQXJjaGl0ZWN0dXJlLzY0L0FyY2hfQW1hem9uLVNhZ2VNYWtlcl82NCIgc3Ryb2tlPSJub25lIiBzdHJva2Utd2lkdGg9IjEiIGZpbGw9Im5vbmUiIGZpbGwtcnVsZT0iZXZlbm9kZCI+JiN4YTsgICAgICAgIDxnIGlkPSJJY29uLUFyY2hpdGVjdHVyZS1CRy82NC9NYWNoaW5lLUxlYXJuaW5nIiBmaWxsPSIjMDFBODhEIj4mI3hhOyAgICAgICAgICAgIDxyZWN0IGlkPSJSZWN0YW5nbGUiIHg9IjAiIHk9IjAiIHdpZHRoPSI4MCIgaGVpZ2h0PSI4MCIvPiYjeGE7ICAgICAgICA8L2c+JiN4YTsgICAgICAgIDxwYXRoIGQ9Ik01NC4wMzQsMjYuMDMzNTczMSBDNTQuMDM0LDI2LjU5MzU2NTQgNTMuNTc4LDI3LjA0OTU1OTIgNTMuMDE3LDI3LjA0OTU1OTIgQzUyLjQ1OCwyNy4wNDk1NTkyIDUyLjAwMiwyNi41OTM1NjU0IDUyLjAwMiwyNi4wMzM1NzMxIEM1Mi4wMDIsMjUuNDczNTgwNyA1Mi40NTgsMjUuMDE3NTg2OSA1My4wMTcsMjUuMDE3NTg2OSBDNTMuNTc4LDI1LjAxNzU4NjkgNTQuMDM0LDI1LjQ3MzU4MDcgNTQuMDM0LDI2LjAzMzU3MzEgTDU0LjAzNCwyNi4wMzM1NzMxIFogTTQ4LjAwMiwzNi4wMDA0MzcgQzQ4LjAwMiwzNS40NDk0NDQ1IDQ4LjQ1LDM1LjAwMDQ1MDYgNDkuMDAyLDM1LjAwMDQ1MDYgQzQ5LjU1NCwzNS4wMDA0NTA2IDUwLjAwMiwzNS40NDk0NDQ1IDUwLjAwMiwzNi4wMDA0MzcgQzUwLjAwMiwzNi41NTE0Mjk0IDQ5LjU1NCwzNy4wMDA0MjMzIDQ5LjAwMiwzNy4wMDA0MjMzIEM0OC40NSwzNy4wMDA0MjMzIDQ4LjAwMiwzNi41NTE0Mjk0IDQ4LjAwMiwzNi4wMDA0MzcgTDQ4LjAwMiwzNi4wMDA0MzcgWiBNNDguMDAyLDU1LjAwMDE3NzUgQzQ4LjAwMiw1NC40NDkxODUgNDguNDUsNTQuMDAwMTkxMiA0OS4wMDIsNTQuMDAwMTkxMiBDNDkuNTU0LDU0LjAwMDE5MTIgNTAuMDAyLDU0LjQ0OTE4NSA1MC4wMDIsNTUuMDAwMTc3NSBDNTAuMDAyLDU1LjU1MTE3IDQ5LjU1NCw1Ni4wMDAxNjM5IDQ5LjAwMiw1Ni4wMDAxNjM5IEM0OC40NSw1Ni4wMDAxNjM5IDQ4LjAwMiw1NS41NTExNyA0OC4wMDIsNTUuMDAwMTc3NSBMNDguMDAyLDU1LjAwMDE3NzUgWiBNNTguMDAyLDQyLjAwMDM1NSBDNTguMDAyLDQyLjU1MTM0NzUgNTcuNTU0LDQzLjAwMDM0MTQgNTcuMDAyLDQzLjAwMDM0MTQgQzU2LjQ1LDQzLjAwMDM0MTQgNTYuMDAyLDQyLjU1MTM0NzUgNTYuMDAyLDQyLjAwMDM1NSBDNTYuMDAyLDQxLjQ0OTM2MjYgNTYuNDUsNDEuMDAwMzY4NyA1Ny4wMDIsNDEuMDAwMzY4NyBDNTcuNTU0LDQxLjAwMDM2ODcgNTguMDAyLDQxLjQ0OTM2MjYgNTguMDAyLDQyLjAwMDM1NSBMNTguMDAyLDQyLjAwMDM1NSBaIE02NSw0NS4yNzIzMTA0IEw1OS45NjMsNDIuMzgyMzQ5OCBDNTkuOTc5LDQyLjI1NjM1MTUgNjAuMDAyLDQyLjEzMTM1MzIgNjAuMDAyLDQyLjAwMDM1NSBDNjAuMDAyLDQwLjM0NjM3NzYgNTguNjU2LDM5LjAwMDM5NiA1Ny4wMDIsMzkuMDAwMzk2IEM1NS4zNDcsMzkuMDAwMzk2IDU0LjAwMiw0MC4zNDYzNzc2IDU0LjAwMiw0Mi4wMDAzNTUgQzU0LjAwMiw0My42NTQzMzI0IDU1LjM0Nyw0NS4wMDAzMTQxIDU3LjAwMiw0NS4wMDAzMTQxIEM1Ny44MDEsNDUuMDAwMzE0MSA1OC41MjMsNDQuNjgxMzE4NCA1OS4wNjEsNDQuMTcxMzI1NCBMNjMuODg2LDQ2LjkzOTI4NzYgTDU5LjU1NSw0OS4xMDUyNTggQzU5LjIxNiw0OS4yNzUyNTU3IDU5LjAwMiw0OS42MjEyNTEgNTkuMDAyLDUwLjAwMDI0NTggTDU5LjAwMiw1OC40NDExMzA1IEw0Ni45ODMsNjUuODM3MDI5NSBMNDEuMDAzLDYyLjQyMDA3NjIgTDQxLjAwMyw1Ni4wMDAxNjM5IEw0Ni4xODYsNTYuMDAwMTYzOSBDNDYuNiw1Ny4xNjExNDggNDcuNyw1OC4wMDAxMzY2IDQ5LjAwMiw1OC4wMDAxMzY2IEM1MC42NTYsNTguMDAwMTM2NiA1Mi4wMDIsNTYuNjU0MTU0OSA1Mi4wMDIsNTUuMDAwMTc3NSBDNTIuMDAyLDUzLjM0NTIwMDEgNTAuNjU2LDUyLjAwMDIxODUgNDkuMDAyLDUyLjAwMDIxODUgQzQ3LjcsNTIuMDAwMjE4NSA0Ni42LDUyLjgzODIwNyA0Ni4xODYsNTQuMDAwMTkxMiBMNDEuMDAzLDU0LjAwMDE5MTIgTDQxLjAwMyw0MC4wMDAzODIzIEM0MS4wMDMsMzkuNjQ5Mzg3MSA0MC44MTgsMzkuMzIzMzkxNiA0MC41MTcsMzkuMTQyMzk0MSBMMzUuNTE2LDM2LjE0MjQzNSBMMzQuNDg3LDM3Ljg1NzQxMTYgTDM5LjAwMyw0MC41NjYzNzQ2IEwzOS4wMDMsNDMuNTA3MzM0NSBMMzMuMDAyLDQ4LjEyMzI3MTQgTDMzLjAwMiw0NC4wMDAzMjc3IEMzMy4wMDIsNDMuNjk2MzMxOSAzMi44NjQsNDMuNDA4MzM1OCAzMi42MjcsNDMuMjE5MzM4NCBMMjguMDAyLDM5LjUxOTM4ODkgTDI4LjAwMiwzNC41MzU0NTcgTDMzLjU1NiwzMC44MzI1MDc1IEMzMy44MzUsMzAuNjQ2NTEwMSAzNC4wMDIsMzAuMzM0NTE0MyAzNC4wMDIsMzAuMDAwNTE4OSBMMzQuMDAyLDI0LjAwMDYwMDggTDMyLjAwMiwyNC4wMDA2MDA4IEwzMi4wMDIsMjkuNDY1NTI2MiBMMjcuMDEzLDMyLjc5MDQ4MDggTDIyLjAwMiwyOS40NjM1MjYyIEwyMi4wMDIsMjEuNTc0NjMzOSBMMjcuMDAyLDE4LjY1ODY3MzggTDI3LjAwMiwyNy4wMDA1NTk5IEwyOS4wMDIsMjcuMDAwNTU5OSBMMjkuMDAyLDE3LjQ5MTY4OTcgTDMzLjAwNSwxNS4xNTY3MjE2IEwzOS4wMDEsMTguNjE1Njc0NCBMMzkuMDAyLDMxLjAwMDUwNTIgQzM5LjAwMiwzMS4zNTk1MDAzIDM5LjE5NCwzMS42OTA0OTU4IDM5LjUwNiwzMS44Njg0OTM0IEw0Ni4wNDIsMzUuNjAzNDQyNCBDNDYuMDI0LDM1LjczNDQ0MDYgNDYuMDAyLDM1Ljg2NDQzODggNDYuMDAyLDM2LjAwMDQzNyBDNDYuMDAyLDM3LjY1NDQxNDQgNDcuMzQ3LDM5LjAwMDM5NiA0OS4wMDIsMzkuMDAwMzk2IEM1MC42NTYsMzkuMDAwMzk2IDUyLjAwMiwzNy42NTQ0MTQ0IDUyLjAwMiwzNi4wMDA0MzcgQzUyLjAwMiwzNC4zNDY0NTk1IDUwLjY1NiwzMy4wMDA0Nzc5IDQ5LjAwMiwzMy4wMDA0Nzc5IEM0OC4yMDgsMzMuMDAwNDc3OSA0Ny40OSwzMy4zMTU0NzM2IDQ2Ljk1MywzMy44MjA0NjY3IEw0MS4wMDIsMzAuNDE5NTEzMiBMNDEuMDAxLDE4LjYxNzY3NDMgTDQ2Ljk2NCwxNS4xNzY3MjEzIEw1OC4wMDIsMjIuNTM1NjIwOCBMNTguMDAyLDI1LjAwMDU4NzIgTDU1Ljg1MSwyNS4wMDA1ODcyIEM1NS40MjksMjMuODQ0NjAzIDU0LjMxOCwyMy4wMTc2MTQyIDUzLjAxNywyMy4wMTc2MTQyIEM1MS4zNTQsMjMuMDE3NjE0MiA1MC4wMDIsMjQuMzcwNTk1OCA1MC4wMDIsMjYuMDMzNTczMSBDNTAuMDAyLDI3LjY5NjU1MDQgNTEuMzU0LDI5LjA0OTUzMTkgNTMuMDE3LDI5LjA0OTUzMTkgQzU0LjM0MywyOS4wNDk1MzE5IDU1LjQ3MSwyOC4xOTA1NDM2IDU1Ljg3NSwyNy4wMDA1NTk5IEw1OC4wMDIsMjcuMDAwNTU5OSBMNTguMDAyLDMwLjAwMDUxODkgQzU4LjAwMiwzMC4zNTk1MTQgNTguMTk0LDMwLjY5MDUwOTUgNTguNTA2LDMwLjg2ODUwNyBMNjUsMzQuNTgwNDU2NCBMNjUsNDUuMjcyMzEwNCBaIE0zMy4wMiw2NS44MzcwMjk1IEwyOS44NjcsNjMuODk3MDU2IEwzNS41ODMsNTkuODE0MTExOCBMMzQuNDIxLDU4LjE4NjEzNCBMMjguMDE4LDYyLjc1OTA3MTYgTDIxLjAwMiw1OC40NDExMzA1IEwyMS4wMDIsNTAuNTY2MjM4MSBMMjUuNTE2LDQ3Ljg1NzI3NTEgTDI0LjQ4Nyw0Ni4xNDIyOTg1IEwxOS45NTgsNDguODYwMjYxNCBMMTUuMDAyLDQ2LjM4MjI5NTIgTDE1LjAwMSw0MC42MTczNzM5IEwyMC40NDksMzcuODk0NDExMSBMMTkuNTU1LDM2LjEwNTQzNTUgTDE1LjAwMSwzOC4zODE0MDQ0IEwxNS4wMDIsMzQuNTgwNDU2NCBMMjAuOTYzLDMxLjE3NDUwMjkgTDI2LjAwMiwzNC41MTk0NTcyIEwyNi4wMDIsMzkuNDgwMzg5NCBMMjAuNDQ5LDQzLjE2NzMzOTEgTDIxLjU1NSw0NC44MzMzMTYzIEwyNi45NTgsNDEuMjQ1MzY1MyBMMzEuMDAyLDQ0LjQ4MDMyMTIgTDMxLjAwMiw0OS42NjIyNTA0IEwyNi4zOTIsNTMuMjA3MjAyIEwyNy42MTEsNTQuNzkyMTgwNCBMMzkuMDAzLDQ2LjAzMDMgTDM5LjAwMyw2Mi40MTkwNzYyIEwzMy4wMiw2NS44MzcwMjk1IFogTTY2LjQ5NiwzMy4xMzI0NzYxIEw2MC4wMDIsMjkuNDIwNTI2OCBMNjAuMDAyLDIyLjAwMDYyODEgQzYwLjAwMiwyMS42NjU2MzI3IDU5LjgzNSwyMS4zNTM2MzcgNTkuNTU2LDIxLjE2ODYzOTUgTDQ3LjU1NiwxMy4xNjg3NDg3IEM0Ny4yNCwxMi45NTg3NTE2IDQ2LjgzMiwxMi45NDQ3NTE4IDQ2LjUwMiwxMy4xMzQ3NDkyIEw0MC4wMDQsMTYuODg0Njk4IEwzMy41MDIsMTMuMTM0NzQ5MiBDMzMuMTksMTIuOTU0NzUxNyAzMi44MDcsMTIuOTU0NzUxNyAzMi40OTgsMTMuMTM2NzQ5MiBMMjAuNDk4LDIwLjEzNjY1MzYgQzIwLjE5LDIwLjMxNTY1MTEgMjAuMDAyLDIwLjY0NDY0NjYgMjAuMDAyLDIxLjAwMDY0MTggTDIwLjAwMiwyOS40MjA1MjY4IEwxMy41MDYsMzMuMTMyNDc2MSBDMTMuMTk0LDMzLjMwOTQ3MzcgMTMuMDAyLDMzLjY0MTQ2OTIgMTMuMDAyLDM0LjAwMDQ2NDMgTDEzLjAwMiwzNC40MTc0NTg2IEMxMy4wMDEsMzQuNDM4NDU4MyAxMywzNC40NTg0NTggMTMsMzQuNDc5NDU3NyBMMTMsNDUuMzYzMzA5MSBDMTMsNDUuMzgzMzA4OCAxMy4wMDEsNDUuNDAzMzA4NiAxMy4wMDIsNDUuNDIyMzA4MyBMMTMuMDAyLDQ3LjAwMDI4NjggQzEzLjAwMiw0Ny4zNzkyODE2IDEzLjIxNiw0Ny43MjUyNzY5IDEzLjU1NSw0Ny44OTQyNzQ1IEwxOS4wMDIsNTAuNjE4MjM3NCBMMTkuMDAyLDU5LjAwMDEyMjkgQzE5LjAwMiw1OS4zNDcxMTgyIDE5LjE4MSw1OS42NjkxMTM4IDE5LjQ3Nyw1OS44NTExMTEzIEwzMi40NzcsNjcuODUxMDAyIEMzMi42MzgsNjcuOTUwMDAwNyAzMi44Miw2OCAzMy4wMDIsNjggQzMzLjE3Myw2OCAzMy4zNDQsNjcuOTU2MDAwNiAzMy40OTgsNjcuODY4MDAxOCBMNDAuMDAzLDY0LjE1MjA1MjUgTDQ2LjUwNiw2Ny44NjgwMDE4IEM0Ni44MjEsNjguMDQ4OTk5MyA0Ny4yMTMsNjguMDQxOTk5NCA0Ny41MjYsNjcuODUxMDAyIEw2MC41MjYsNTkuODUxMTExMyBDNjAuODIyLDU5LjY2OTExMzggNjEuMDAyLDU5LjM0NzExODIgNjEuMDAyLDU5LjAwMDEyMjkgTDYxLjAwMiw1MC42MTgyMzc0IEw2Ni40NDcsNDcuODk0Mjc0NSBDNjYuNzg2LDQ3LjcyNTI3NjkgNjcsNDcuMzc5MjgxNiA2Nyw0Ny4wMDAyODY4IEw2NywzNC4wMDA0NjQzIEM2NywzMy42NDE0NjkyIDY2LjgwNywzMy4zMTA0NzM3IDY2LjQ5NiwzMy4xMzI0NzYxIEw2Ni40OTYsMzMuMTMyNDc2MSBaIiBpZD0iQW1hem9uLVNhZ2VNYWtlcl9JY29uXzY0X1NxdWlkIiBmaWxsPSIjRkZGRkZGIi8+JiN4YTsgICAgPC9nPiYjeGE7PC9zdmc+;html=1;fontColor=#1A1A1A;" parent="uSThPKN0Iph8RpYOuWK1S-55" vertex="1" rdfUpgraded="1" assetTypeVersion="3">
                    <mxGeometry x="1091.5" y="306" width="80" height="80" as="geometry"/>
                    <ResourceDescriptor resource="urn:x-design-inspector:v1:genid-01JKADFF7GS6SK544SHBPQECEW-8wax_bq2wAJuO56Lcbj5D" serialization-version="v0" as="resourceDescriptor">
                        <SemanticDataContainer serialization-version="v0">
                            <IRI resource="https://ontology.security.amazon.dev/design-inspector/stencils" property="http://www.w3.org/2000/01/rdf-schema#isDefinedBy"/>
                            <IRI resource="https://ontology.security.amazon.dev/design-inspector/components/b35abe04-5752-4adb-a022-da6879f783c0" property="https://ontology.security.amazon.dev/foundation/system-modeling/04539597-4283-4f65-8090-ae67f9d3e949"/>
                            <StringLiteral content="gU8E3vsCLFC1tpfYn1Nnc" property="https://ontology.security.amazon.dev/foundation/diagram-visualization/05cc531c-d241-49c3-80dc-bd3777c5426f"/>
                            <IRI resource="https://ontology.security.amazon.dev/foundation/graph-structure/0b4eeac8-04e5-4e85-869c-bd56fb947b7b" property="http://www.w3.org/1999/02/22-rdf-syntax-ns#type"/>
                            <StringLiteral content="Amazon SageMakerFeature Store(online/offline)" property="http://www.w3.org/2000/01/rdf-schema#label"/>
                            <StringLiteral content="8wax_bq2wAJuO56Lcbj5D" property="https://ontology.security.amazon.dev/foundation/diagram-visualization/a2255956-c3df-4c2c-b489-c307f68abc97"/>
                        </SemanticDataContainer>
                    </ResourceDescriptor>
                </mxCell>
                <object label="Real-time Feature Aggregation" stencilType="availability-zone" id="KL7B_61rrhgrM1_wuw4B3-97">
                    <mxCell style="fillColor=none;strokeColor=#6c8ebf;dashed=1;verticalAlign=top;fontStyle=0;html=1;fontColor=#1A1A1A;" parent="uSThPKN0Iph8RpYOuWK1S-55" vertex="1" rdfUpgraded="1" assetTypeVersion="3">
                        <mxGeometry x="351.5" y="261" width="698" height="276" as="geometry"/>
                        <ResourceDescriptor resource="urn:x-design-inspector:v1:genid-01JKADFF7GS6SK544SHBPQECEW-KL7B_61rrhgrM1_wuw4B3-97" serialization-version="v0" as="resourceDescriptor">
                            <SemanticDataContainer serialization-version="v0">
                                <StringLiteral content="gU8E3vsCLFC1tpfYn1Nnc" property="https://ontology.security.amazon.dev/foundation/diagram-visualization/05cc531c-d241-49c3-80dc-bd3777c5426f"/>
                                <IRI resource="https://ontology.security.amazon.dev/design-inspector/components/84a80b5f-5642-4a17-9585-ebfdb65f4bec" property="https://ontology.security.amazon.dev/foundation/system-modeling/04539597-4283-4f65-8090-ae67f9d3e949"/>
                                <IRI resource="https://ontology.security.amazon.dev/design-inspector/components/4f51991f-f3c6-4a47-9b00-013560ab92f4" property="http://www.w3.org/1999/02/22-rdf-syntax-ns#type"/>
                                <IRI resource="https://ontology.security.amazon.dev/foundation/graph-structure/0b4eeac8-04e5-4e85-869c-bd56fb947b7b" property="http://www.w3.org/1999/02/22-rdf-syntax-ns#type"/>
                                <StringLiteral content="Real-time Feature Aggregation" property="http://www.w3.org/2000/01/rdf-schema#label"/>
                                <StringLiteral content="KL7B_61rrhgrM1_wuw4B3-97" property="https://ontology.security.amazon.dev/foundation/diagram-visualization/a2255956-c3df-4c2c-b489-c307f68abc97"/>
                            </SemanticDataContainer>
                        </ResourceDescriptor>
                    </mxCell>
                </object>
                <object label="" stencilType="generic-channel" id="KL7B_61rrhgrM1_wuw4B3-98">
                    <mxCell style="edgeStyle=orthogonalEdgeStyle;rounded=0;html=1;jettySize=auto;orthogonalLoop=1;fontColor=#1A1A1A;strokeColor=#1A1A1A;" parent="uSThPKN0Iph8RpYOuWK1S-55" source="CKJw5TeKA_ZPZOAFekmqS" target="4ScB6zIA4dki9cQPRInMg" edge="1" rdfUpgraded="1" assetTypeVersion="3" pageId="gU8E3vsCLFC1tpfYn1Nnc">
                        <mxGeometry relative="1" as="geometry"/>
                        <ResourceDescriptor resource="urn:x-design-inspector:v1:genid-01JKADFF7GS6SK544SHBPQECEW-KL7B_61rrhgrM1_wuw4B3-98" serialization-version="v0" as="resourceDescriptor">
                            <SemanticDataContainer serialization-version="v0">
                                <IRI resource="urn:x-design-inspector:v1:genid-01JKADFF7GS6SK544SHBPQECEW-CKJw5TeKA_ZPZOAFekmqS" property="https://ontology.security.amazon.dev/foundation/graph-structure/d1fc066e-3862-4ae0-8304-6cef42f40a50"/>
                                <IRI resource="https://ontology.security.amazon.dev/design-inspector/components/84a80b5f-5642-4a17-9585-ebfdb65f4bec" property="https://ontology.security.amazon.dev/foundation/system-modeling/04539597-4283-4f65-8090-ae67f9d3e949"/>
                                <StringLiteral content="gU8E3vsCLFC1tpfYn1Nnc" property="https://ontology.security.amazon.dev/foundation/diagram-visualization/05cc531c-d241-49c3-80dc-bd3777c5426f"/>
                                <IRI resource="https://ontology.security.amazon.dev/foundation/graph-structure/65157620-74b7-470e-bd9d-b9bf56b6cb4b" property="http://www.w3.org/1999/02/22-rdf-syntax-ns#type"/>
                                <StringLiteral content="KL7B_61rrhgrM1_wuw4B3-98" property="https://ontology.security.amazon.dev/foundation/diagram-visualization/a2255956-c3df-4c2c-b489-c307f68abc97"/>
                                <IRI resource="urn:x-design-inspector:v1:genid-01JKADFF7GS6SK544SHBPQECEW-4ScB6zIA4dki9cQPRInMg" property="https://ontology.security.amazon.dev/foundation/graph-structure/617be0ed-cf17-4a01-a75d-81ed3a472532"/>
                            </SemanticDataContainer>
                        </ResourceDescriptor>
                    </mxCell>
                </object>
                <mxCell id="CKJw5TeKA_ZPZOAFekmqS" value="Amazon MSK&lt;br&gt;(Kafka)" style="shape=image;verticalLabelPosition=bottom;verticalAlign=top;aspect=fixed;imageAspect=0;image=data:image/svg+xml,PHN2ZyB4bWxucz0iaHR0cDovL3d3dy53My5vcmcvMjAwMC9zdmciIHhtbG5zOnhsaW5rPSJodHRwOi8vd3d3LnczLm9yZy8xOTk5L3hsaW5rIiB3aWR0aD0iODBweCIgaGVpZ2h0PSI4MHB4IiB2aWV3Qm94PSIwIDAgODAgODAiIHZlcnNpb249IjEuMSI+JiN4YTsgICAgPHRpdGxlPkljb24tQXJjaGl0ZWN0dXJlLzY0L0FyY2hfQW1hem9uLU1hbmFnZWQtU3RyZWFtaW5nLWZvci1BcGFjaGUtS2Fma2FfNjQ8L3RpdGxlPiYjeGE7ICAgIDxnIGlkPSJJY29uLUFyY2hpdGVjdHVyZS82NC9BcmNoX0FtYXpvbi1NYW5hZ2VkLVN0cmVhbWluZy1mb3ItQXBhY2hlLUthZmthXzY0IiBzdHJva2U9Im5vbmUiIHN0cm9rZS13aWR0aD0iMSIgZmlsbD0ibm9uZSIgZmlsbC1ydWxlPSJldmVub2RkIj4mI3hhOyAgICAgICAgPGcgaWQ9Ikljb24tQXJjaGl0ZWN0dXJlLUJHLzY0L0FuYWx5dGljcyIgZmlsbD0iIzhDNEZGRiI+JiN4YTsgICAgICAgICAgICA8cmVjdCBpZD0iUmVjdGFuZ2xlIiB4PSIwIiB5PSIwIiB3aWR0aD0iODAiIGhlaWdodD0iODAiLz4mI3hhOyAgICAgICAgPC9nPiYjeGE7ICAgICAgICA8cGF0aCBkPSJNMzYuMDA4MTM3MywzNi45NzcwODg4IEwzNi4wMDgxMzczLDI3Ljk4NjQ2MTYgTDM4LjAwNDA2ODYsMjcuOTg2NDYxNiBMMzguMDA0MDY4NiwzMS45ODIyOTU5IEw0MC42OTc1NzgsMjcuOTg2NDYxNiBMNDIuOTA3MDc0LDI3Ljk4NjQ2MTYgTDM5Ljc4NTQzNzQsMzIuMTkwMDc5MyBMNDMuMTY0NTQ5MiwzNi45NzcwODg4IEw0MC43OTczNzQ2LDM2Ljk3NzA4ODggTDM4LjAwNDA2ODYsMzIuNjMxNjE5IEwzOC4wMDQwNjg2LDM2Ljk3NzA4ODggTDM2LjAwODEzNzMsMzYuOTc3MDg4OCBaIE02Niw0OS4xMTc0MzI1IEw2NS4zMzEzNjMsNDkuNjk1ODI5NSBDNjMuOTg0MTA5Myw1MC44NzU1OTk2IDYyLjE3MTgwMzYsNTEuNDY1OTg0MSA2MC4zNTc1MDIsNTEuNDY1OTg0MSBDNTguNTQzMjAwNCw1MS40NjU5ODQxIDU2LjcyNzkwMDgsNTAuODc1NTk5NiA1NS4zNzg2NTEyLDQ5LjY5MjgzMjYgTDU0LjA0NTM2OTEsNDguNTM4MDM2NSBDNTIuMDg5MzU2Myw0Ni44MjM4MjM2IDQ4LjY2NTMzNiw0Ni44MjM4MjM2IDQ2LjcxMzMxNTIsNDguNTM0MDQwNiBMNDUuMzcyMDQ5Myw0OS42OTU4Mjk1IEM0Mi42Nzg1Mzk5LDUyLjA1NjM2ODYgMzguMTE2ODM4OCw1Mi4wNTgzNjY1IDM1LjQxOTMzNzUsNDkuNjkyODMyNiBMMzQuMDg2MDU1Myw0OC41MzgwMzY1IEMzMi4xMzAwNDI2LDQ2LjgyMzgyMzYgMjguNzA2MDIyMyw0Ni44MjM4MjM2IDI2Ljc1NDAwMTUsNDguNTM0MDQwNiBMMjUuNDEyNzM1Niw0OS42OTU4Mjk1IEMyMi43MTkyMjYyLDUyLjA1NjM2ODYgMTguMTU3NTI1LDUyLjA1ODM2NjUgMTUuNDYwMDIzOCw0OS42OTI4MzI2IEwxNC43OTUzNzg3LDQ5LjExNzQzMjUgTDE2LjEwMTcxNTcsNDcuNjA2MDA4MSBMMTYuNzcwMzUyNyw0OC4xODU0MDQxIEMxOC43MjczNjM1LDQ5Ljg5OTYxNyAyMi4xNTEzODM3LDQ5Ljg5OTYxNyAyNC4xMDI0MDY2LDQ4LjE4OTM5OTkgTDI1LjQ0MzY3MjUsNDcuMDI2NjEyMSBDMjguMTM3MTgxOSw0NC42NjcwNzIgMzIuNjk4ODgzLDQ0LjY2NzA3MiAzNS4zOTYzODQzLDQ3LjAzMDYwOCBMMzYuNzI5NjY2NCw0OC4xODU0MDQxIEMzOC42ODY2NzcyLDQ5Ljg5OTYxNyA0Mi4xMTA2OTc0LDQ5Ljg5OTYxNyA0NC4wNjE3MjAzLDQ4LjE4OTM5OTkgTDQ1LjQwMjk4NjIsNDcuMDI2NjEyMSBDNDguMDk2NDk1Niw0NC42NjcwNzIgNTIuNjU4MTk2OCw0NC42NjcwNzIgNTUuMzU1Njk4LDQ3LjAzMDYwOCBMNTYuNjg4OTgwMiw0OC4xODU0MDQxIEM1OC42NDQ5OTI5LDQ5Ljg5OTYxNyA2Mi4wNjkwMTMyLDQ5Ljg5OTYxNyA2NC4wMjEwMzQsNDguMTg5Mzk5OSBMNjQuNjkzNjYyOSw0Ny42MDYwMDgxIEw2Niw0OS4xMTc0MzI1IFogTTYzLjg5ODI4NDMsNjEuMTM5ODk5IEw2NS4yMDQ2MjEzLDYyLjY1MDMyNDQgTDY0LjUzNTk4NDMsNjMuMjI5NzIwMyBDNjMuMTg5NzI4Niw2NC40MDk0OTA0IDYxLjM3NzQyMjksNjQuOTk4ODc2IDU5LjU2NDExOTMsNjQuOTk4ODc2IEM1Ny43NDg4MTk3LDY0Ljk5ODg3NiA1NS45MzM1MjAxLDY0LjQwODQ5MTUgNTQuNTgzMjcyNiw2My4yMjU3MjQ1IEw1My4yNDk5OTA0LDYyLjA3MDkyODQgQzUxLjI5Mzk3NzcsNjAuMzU4NzEzNCA0Ny44Njk5NTc0LDYwLjM1ODcxMzQgNDUuOTE3OTM2NSw2Mi4wNjY5MzI2IEw0NC41NzY2NzA2LDYzLjIyOTcyMDMgQzQxLjg4NTE1NzIsNjUuNTkwMjU5NSAzNy4zMjM0NTYsNjUuNTkxMjU4NCAzNC42MjM5NTg5LDYzLjIyNTcyNDUgTDMzLjI5MDY3NjcsNjIuMDcwOTI4NCBDMzEuMzM1NjYxOSw2MC4zNTg3MTM0IDI3LjkxMTY0MTcsNjAuMzU4NzEzNCAyNS45NTg2MjI4LDYyLjA2NjkzMjYgTDI0LjYxNzM1NjksNjMuMjI5NzIwMyBDMjEuOTI0ODQ1NSw2NS41OTAyNTk1IDE3LjM2MzE0NDQsNjUuNTkxMjU4NCAxNC42NjQ2NDUxLDYzLjIyNTcyNDUgTDE0LDYyLjY1MDMyNDQgTDE1LjMwNjMzNzEsNjEuMTM5ODk5IEwxNS45NzQ5NzQxLDYxLjcxOTI5NSBDMTcuOTMxOTg0OCw2My40MzE1MSAyMS4zNTYwMDUxLDYzLjQzMjUwODkgMjMuMzA3MDI4LDYxLjcyMjI5MTggTDI0LjY0ODI5MzksNjAuNTYwNTAzIEMyNy4zNDI4MDEyLDU4LjIwMDk2MjggMzEuOTAyNTA2NCw1OC4xOTk5NjM5IDM0LjYwMTAwNTYsNjAuNTYzNDk5OSBMMzUuOTM0Mjg3OCw2MS43MTkyOTUgQzM3Ljg5MTI5ODUsNjMuNDMxNTEgNDEuMzE1MzE4OCw2My40MzI1MDg5IDQzLjI2NjM0MTcsNjEuNzIyMjkxOCBMNDQuNjA3NjA3Niw2MC41NjA1MDMgQzQ3LjMwMjExNDksNTguMjAwOTYyOCA1MS44NjE4MjAxLDU4LjE5OTk2MzkgNTQuNTYwMzE5Myw2MC41NjM0OTk5IEw1NS44OTM2MDE1LDYxLjcxOTI5NSBDNTcuODUwNjEyMiw2My40MzE1MSA2MS4yNzQ2MzI1LDYzLjQzMjUwODkgNjMuMjI1NjU1NCw2MS43MjIyOTE4IEw2My44OTgyODQzLDYxLjEzOTg5OSBaIE02My44OTgyODQzLDU0LjgwNjUwMTYgTDY1LjIwNDYyMTMsNTYuMzE1OTI4IEw2NC41MzU5ODQzLDU2Ljg5NTMyNCBDNjEuODQzNDcyOSw1OS4yNTY4NjIxIDU3LjI4MTc3MTgsNTkuMjU3ODYxIDU0LjU4MzI3MjYsNTYuODkyMzI3MSBMNTMuMjQ5OTkwNCw1NS43Mzc1MzEgQzUxLjI5Mzk3NzcsNTQuMDIzMzE4MSA0Ny44Njk5NTc0LDU0LjAyNDMxNyA0NS45MTc5MzY1LDU1LjczMzUzNTEgTDQ0LjU3NjY3MDYsNTYuODk2MzIyOSBDNDMuMjMwNDE0OSw1OC4wNzYwOTMgNDEuNDE3MTExMyw1OC42NjU0Nzg2IDM5LjYwNDgwNTYsNTguNjY1NDc4NiBDMzcuNzg5NTA2LDU4LjY2NTQ3ODYgMzUuOTc0MjA2NCw1OC4wNzUwOTQxIDM0LjYyMzk1ODksNTYuODkyMzI3MSBMMzMuMjkwNjc2Nyw1NS43Mzc1MzEgQzMxLjMzNTY2MTksNTQuMDIzMzE4MSAyNy45MTE2NDE3LDU0LjAyNDMxNyAyNS45NTg2MjI4LDU1LjczMzUzNTEgTDI0LjYxNzM1NjksNTYuODk2MzIyOSBDMjEuOTI1ODQzNSw1OS4yNTY4NjIxIDE3LjM2NDE0MjMsNTkuMjU2ODYyMSAxNC42NjQ2NDUxLDU2Ljg5MjMyNzEgTDE0LDU2LjMxNTkyOCBMMTUuMzA2MzM3MSw1NC44MDY1MDE2IEwxNS45NzQ5NzQxLDU1LjM4NTg5NzYgQzE3LjkzMTk4NDgsNTcuMTAwMTEwNSAyMS4zNTYwMDUxLDU3LjA5OTExMTUgMjMuMzA3MDI4LDU1LjM4ODg5NDQgTDI0LjY0ODI5MzksNTQuMjI3MTA1NiBDMjcuMzQyODAxMiw1MS44Njc1NjU0IDMxLjkwNDUwMjQsNTEuODY1NTY3NSAzNC42MDEwMDU2LDU0LjIzMDEwMjUgTDM1LjkzNDI4NzgsNTUuMzg0ODk4NiBDMzcuODkxMjk4NSw1Ny4xMDAxMTA1IDQxLjMxNTMxODgsNTcuMDk5MTExNSA0My4yNjYzNDE3LDU1LjM4ODg5NDQgTDQ0LjYwNzYwNzYsNTQuMjI3MTA1NiBDNDcuMzAyMTE0OSw1MS44Njc1NjU0IDUxLjg2MzgxNjEsNTEuODY1NTY3NSA1NC41NjAzMTkzLDU0LjIzMDEwMjUgTDU1Ljg5MzYwMTUsNTUuMzg0ODk4NiBDNTcuODUwNjEyMiw1Ny4xMDAxMTA1IDYxLjI3NDYzMjUsNTcuMDk5MTExNSA2My4yMjU2NTU0LDU1LjM4ODg5NDQgTDYzLjg5ODI4NDMsNTQuODA2NTAxNiBaIE0yNC4wMzI1NDksMzcuOTc2MDQ3NCBDMjUuMTMzMzA1MiwzNy45NzYwNDc0IDI2LjAyODQ4MDQsMzguODcyMTEzMiAyNi4wMjg0ODA0LDM5Ljk3Mzk2NDYgQzI2LjAyODQ4MDQsNDEuMDc1ODE1OSAyNS4xMzMzMDUyLDQxLjk3MTg4MTcgMjQuMDMyNTQ5LDQxLjk3MTg4MTcgQzIyLjkzMTc5MjksNDEuOTcxODgxNyAyMi4wMzY2MTc3LDQxLjA3NTgxNTkgMjIuMDM2NjE3NywzOS45NzM5NjQ2IEMyMi4wMzY2MTc3LDM4Ljg3MjExMzIgMjIuOTMxNzkyOSwzNy45NzYwNDc0IDI0LjAzMjU0OSwzNy45NzYwNDc0IEwyNC4wMzI1NDksMzcuOTc2MDQ3NCBaIE0zOS4wMDIwMzQzLDE2Ljk5NzkxNzIgQzQwLjEwMjc5MDUsMTYuOTk3OTE3MiA0MC45OTc5NjU3LDE3Ljg5Mzk4MyA0MC45OTc5NjU3LDE4Ljk5NTgzNDMgQzQwLjk5Nzk2NTcsMjAuMDk3Njg1NiA0MC4xMDI3OTA1LDIwLjk5Mzc1MTUgMzkuMDAyMDM0MywyMC45OTM3NTE1IEMzNy45MDEyNzgyLDIwLjk5Mzc1MTUgMzcuMDA2MTAyOSwyMC4wOTc2ODU2IDM3LjAwNjEwMjksMTguOTk1ODM0MyBDMzcuMDA2MTAyOSwxNy44OTM5ODMgMzcuOTAxMjc4MiwxNi45OTc5MTcyIDM5LjAwMjAzNDMsMTYuOTk3OTE3MiBMMzkuMDAyMDM0MywxNi45OTc5MTcyIFogTTU1Ljk2NzQ1MSwzOS45NzM5NjQ2IEM1NS45Njc0NTEsNDEuMDc1ODE1OSA1NS4wNzIyNzU3LDQxLjk3MTg4MTcgNTMuOTcxNTE5Niw0MS45NzE4ODE3IEM1Mi44NzA3NjM0LDQxLjk3MTg4MTcgNTEuOTc1NTg4Miw0MS4wNzU4MTU5IDUxLjk3NTU4ODIsMzkuOTczOTY0NiBDNTEuOTc1NTg4MiwzOC44NzIxMTMyIDUyLjg3MDc2MzQsMzcuOTc2MDQ3NCA1My45NzE1MTk2LDM3Ljk3NjA0NzQgQzU1LjA3MjI3NTcsMzcuOTc2MDQ3NCA1NS45Njc0NTEsMzguODcyMTEzMiA1NS45Njc0NTEsMzkuOTczOTY0NiBMNTUuOTY3NDUxLDM5Ljk3Mzk2NDYgWiBNMzkuMDAyMDM0MywyMi45OTE2Njg3IEMzOS42NjY2Nzk1LDIyLjk5MTY2ODcgNDAuMjg1NDE4MiwyMi44MTI4NTUxIDQwLjgzNzI5MzIsMjIuNTIzMTU3MSBMNTEuMDA0NTY3NiwzNy4zMjY3MjQzIEM1MC41ODg0MTU5LDM3Ljc5MjIzOSA1MC4yODMwMzg0LDM4LjM1MjY1NDggNTAuMTIyMzY1OSwzOC45NzUwMDYgTDI3Ljg4MTcwMjcsMzguOTc1MDA2IEMyNy43MjEwMzAyLDM4LjM1MjY1NDggMjcuNDE1NjUyNywzNy43OTIyMzkgMjYuOTk5NTAxLDM3LjMyNjcyNDMgTDM3LjE2Njc3NTQsMjIuNTIzMTU3MSBDMzcuNzE4NjUwNCwyMi44MTI4NTUxIDM4LjMzNzM4OTIsMjIuOTkxNjY4NyAzOS4wMDIwMzQzLDIyLjk5MTY2ODcgTDM5LjAwMjAzNDMsMjIuOTkxNjY4NyBaIE0yNC4wMzI1NDksNDMuOTY5Nzk4OSBDMjUuODg2NzY5Myw0My45Njk3OTg5IDI3LjQzNjYxLDQyLjY5MTEzMTkgMjcuODgxNzAyNyw0MC45NzI5MjMxIEw1MC4xMjIzNjU5LDQwLjk3MjkyMzEgQzUwLjU2NzQ1ODYsNDIuNjkxMTMxOSA1Mi4xMTcyOTk0LDQzLjk2OTc5ODkgNTMuOTcxNTE5Niw0My45Njk3OTg5IEM1Ni4xNzMwMzE5LDQzLjk2OTc5ODkgNTcuOTYzMzgyMyw0Mi4xNzc2NjcyIDU3Ljk2MzM4MjMsMzkuOTczOTY0NiBDNTcuOTYzMzgyMywzNy43NzAyNjE5IDU2LjE3MzAzMTksMzUuOTc4MTMwMiA1My45NzE1MTk2LDM1Ljk3ODEzMDIgQzUzLjUxMTQ1NzQsMzUuOTc4MTMwMiA1My4wNzYzNDQ0LDM2LjA3MjAzMjMgNTIuNjYzMTg2NiwzNi4yMTU4ODI0IEw0Mi4zMzcyMzU2LDIxLjE4MDU1NjcgQzQyLjc1MDM5MzQsMjAuNTUyMjExOCA0Mi45OTM4OTcxLDE5LjgwMjk5MjkgNDIuOTkzODk3MSwxOC45OTU4MzQzIEM0Mi45OTM4OTcxLDE2Ljc5MjEzMTcgNDEuMjAzNTQ2NiwxNSAzOS4wMDIwMzQzLDE1IEMzNi44MDA1MjIsMTUgMzUuMDEwMTcxNiwxNi43OTIxMzE3IDM1LjAxMDE3MTYsMTguOTk1ODM0MyBDMzUuMDEwMTcxNiwxOS44MDI5OTI5IDM1LjI1MzY3NTIsMjAuNTUyMjExOCAzNS42NjY4MzMsMjEuMTgwNTU2NyBMMjUuMzQwODgyLDM2LjIxNTg4MjQgQzI0LjkyNzcyNDMsMzYuMDcyMDMyMyAyNC40OTI2MTEyLDM1Ljk3ODEzMDIgMjQuMDMyNTQ5LDM1Ljk3ODEzMDIgQzIxLjgzMTAzNjcsMzUuOTc4MTMwMiAyMC4wNDA2ODYzLDM3Ljc3MDI2MTkgMjAuMDQwNjg2MywzOS45NzM5NjQ2IEMyMC4wNDA2ODYzLDQyLjE3NzY2NzIgMjEuODMxMDM2Nyw0My45Njk3OTg5IDI0LjAzMjU0OSw0My45Njk3OTg5IEwyNC4wMzI1NDksNDMuOTY5Nzk4OSBaIiBpZD0iQW1hem9uLU1hbmFnZWQtU3RyZWFtaW5nLWZvci1BcGFjaGUtS2Fma2EtSWNvbl82NF9TcXVpZCIgZmlsbD0iI0ZGRkZGRiIvPiYjeGE7ICAgIDwvZz4mI3hhOzwvc3ZnPg;html=1;fontColor=#1A1A1A;" parent="uSThPKN0Iph8RpYOuWK1S-55" vertex="1" rdfUpgraded="1" assetTypeVersion="3">
                    <mxGeometry x="571" y="306" width="80" height="80" as="geometry"/>
                    <ResourceDescriptor resource="urn:x-design-inspector:v1:genid-01JKADFF7GS6SK544SHBPQECEW-CKJw5TeKA_ZPZOAFekmqS" serialization-version="v0" as="resourceDescriptor">
                        <SemanticDataContainer serialization-version="v0">
                            <IRI resource="https://ontology.security.amazon.dev/design-inspector/stencils" property="http://www.w3.org/2000/01/rdf-schema#isDefinedBy"/>
                            <IRI resource="https://ontology.security.amazon.dev/design-inspector/components/1cfa0c42-c249-4fff-b3c1-c48bc434acb5" property="https://ontology.security.amazon.dev/foundation/system-modeling/04539597-4283-4f65-8090-ae67f9d3e949"/>
                            <StringLiteral content="gU8E3vsCLFC1tpfYn1Nnc" property="https://ontology.security.amazon.dev/foundation/diagram-visualization/05cc531c-d241-49c3-80dc-bd3777c5426f"/>
                            <IRI resource="https://ontology.security.amazon.dev/foundation/graph-structure/0b4eeac8-04e5-4e85-869c-bd56fb947b7b" property="http://www.w3.org/1999/02/22-rdf-syntax-ns#type"/>
                            <StringLiteral content="Amazon MSK(Kafka)" property="http://www.w3.org/2000/01/rdf-schema#label"/>
                            <StringLiteral content="CKJw5TeKA_ZPZOAFekmqS" property="https://ontology.security.amazon.dev/foundation/diagram-visualization/a2255956-c3df-4c2c-b489-c307f68abc97"/>
                        </SemanticDataContainer>
                    </ResourceDescriptor>
                </mxCell>
                <object label="" stencilType="generic-channel" id="KL7B_61rrhgrM1_wuw4B3-99">
                    <mxCell style="edgeStyle=orthogonalEdgeStyle;rounded=0;html=1;jettySize=auto;orthogonalLoop=1;exitX=0.5;exitY=1;exitDx=0;exitDy=0;fontColor=#1A1A1A;strokeColor=#1A1A1A;" parent="uSThPKN0Iph8RpYOuWK1S-55" source="HcuzC34C3FmGGucH0-VOv" target="ZHw8RD7C_KdmEEpNAr9iJ" edge="1" rdfUpgraded="1" assetTypeVersion="3" pageId="gU8E3vsCLFC1tpfYn1Nnc">
                        <mxGeometry relative="1" as="geometry">
                            <mxPoint x="1320.4999999999995" y="576" as="sourcePoint"/>
                        </mxGeometry>
                        <ResourceDescriptor resource="urn:x-design-inspector:v1:genid-01JKADFF7GS6SK544SHBPQECEW-KL7B_61rrhgrM1_wuw4B3-99" serialization-version="v0" as="resourceDescriptor">
                            <SemanticDataContainer serialization-version="v0">
                                <IRI resource="urn:x-design-inspector:v1:genid-01JKADFF7GS6SK544SHBPQECEW-HcuzC34C3FmGGucH0-VOv" property="https://ontology.security.amazon.dev/foundation/graph-structure/d1fc066e-3862-4ae0-8304-6cef42f40a50"/>
                                <IRI resource="https://ontology.security.amazon.dev/design-inspector/components/84a80b5f-5642-4a17-9585-ebfdb65f4bec" property="https://ontology.security.amazon.dev/foundation/system-modeling/04539597-4283-4f65-8090-ae67f9d3e949"/>
                                <StringLiteral content="gU8E3vsCLFC1tpfYn1Nnc" property="https://ontology.security.amazon.dev/foundation/diagram-visualization/05cc531c-d241-49c3-80dc-bd3777c5426f"/>
                                <IRI resource="https://ontology.security.amazon.dev/foundation/graph-structure/65157620-74b7-470e-bd9d-b9bf56b6cb4b" property="http://www.w3.org/1999/02/22-rdf-syntax-ns#type"/>
                                <StringLiteral content="KL7B_61rrhgrM1_wuw4B3-99" property="https://ontology.security.amazon.dev/foundation/diagram-visualization/a2255956-c3df-4c2c-b489-c307f68abc97"/>
                                <IRI resource="urn:x-design-inspector:v1:genid-01JKADFF7GS6SK544SHBPQECEW-ZHw8RD7C_KdmEEpNAr9iJ" property="https://ontology.security.amazon.dev/foundation/graph-structure/617be0ed-cf17-4a01-a75d-81ed3a472532"/>
                            </SemanticDataContainer>
                        </ResourceDescriptor>
                    </mxCell>
                </object>
                <mxCell id="4ScB6zIA4dki9cQPRInMg" value="Amazon MSF&lt;br&gt;(Flink)" style="shape=image;verticalLabelPosition=bottom;verticalAlign=top;aspect=fixed;imageAspect=0;image=data:image/svg+xml,PHN2ZyB4bWxucz0iaHR0cDovL3d3dy53My5vcmcvMjAwMC9zdmciIHhtbG5zOnhsaW5rPSJodHRwOi8vd3d3LnczLm9yZy8xOTk5L3hsaW5rIiB3aWR0aD0iODBweCIgaGVpZ2h0PSI4MHB4IiB2aWV3Qm94PSIwIDAgODAgODAiIHZlcnNpb249IjEuMSI+JiN4YTsgICAgPHRpdGxlPkljb24tQXJjaGl0ZWN0dXJlLzY0L0FyY2hfQW1hem9uLU1hbmFnZWQtU2VydmljZS1mb3ItQXBhY2hlLUZsaW5rXzY0PC90aXRsZT4mI3hhOyAgICA8ZyBpZD0iSWNvbi1BcmNoaXRlY3R1cmUvNjQvQXJjaF9BbWF6b24tTWFuYWdlZC1TZXJ2aWNlLWZvci1BcGFjaGUtRmxpbmtfNjQiIHN0cm9rZT0ibm9uZSIgc3Ryb2tlLXdpZHRoPSIxIiBmaWxsPSJub25lIiBmaWxsLXJ1bGU9ImV2ZW5vZGQiPiYjeGE7ICAgICAgICA8ZyBpZD0iSWNvbi1BcmNoaXRlY3R1cmUtQkcvNjQvQW5hbHl0aWNzIiBmaWxsPSIjOEM0RkZGIj4mI3hhOyAgICAgICAgICAgIDxyZWN0IGlkPSJSZWN0YW5nbGUiIHg9IjAiIHk9IjAiIHdpZHRoPSI4MCIgaGVpZ2h0PSI4MCIvPiYjeGE7ICAgICAgICA8L2c+JiN4YTsgICAgICAgIDxnIGlkPSJJY29uLVNlcnZpY2UvNjQvQW1hem9uLU1hbmFnZWQtU2VydmljZS1mb3ItQXBhY2hlLUZsaW5rXzY0IiB0cmFuc2Zvcm09InRyYW5zbGF0ZSgxNC4wMDAwMDAsIDE1LjAwMDAwMCkiIGZpbGw9IiNGRkZGRkYiPiYjeGE7ICAgICAgICAgICAgPHBhdGggZD0iTTMwLjY0OSwxNSBDMzAuNjQ5LDE3LjU5NCAyOC41MzksMTkuNzA0IDI1Ljk0NSwxOS43MDQgQzIzLjM1MSwxOS43MDQgMjEuMjQyLDE3LjU5NCAyMS4yNDIsMTUgQzIxLjI0MiwxMi40MDYgMjMuMzUxLDEwLjI5NiAyNS45NDUsMTAuMjk2IEMyOC41MzksMTAuMjk2IDMwLjY0OSwxMi40MDYgMzAuNjQ5LDE1IEwzMC42NDksMTUgWiBNMzIuNjQ5LDE1IEMzMi42NDksMTEuMzA0IDI5LjY0MSw4LjI5NiAyNS45NDUsOC4yOTYgQzIyLjI0OSw4LjI5NiAxOS4yNDIsMTEuMzA0IDE5LjI0MiwxNSBDMTkuMjQyLDE4LjY5NiAyMi4yNDksMjEuNzA0IDI1Ljk0NSwyMS43MDQgQzI5LjY0MSwyMS43MDQgMzIuNjQ5LDE4LjY5NiAzMi42NDksMTUgTDMyLjY0OSwxNSBaIE0yNC4yOTQsMjYuNzQgQzI0LjMyMiwyNi4yNTIgMjMuOTkzLDI1LjgxNSAyMy41MTYsMjUuNzA4IEMyMi4zMDEsMjUuNDMyIDIxLjE1LDI0Ljk1NSAyMC4wOTQsMjQuMjg4IEMxOS42ODEsMjQuMDI2IDE5LjEzOSwyNC4xMDEgMTguODE0LDI0LjQ2NyBMMTcuOTcxLDI1LjQxMSBMMTUuNTM1LDIyLjk3NCBMMTYuNDc4LDIyLjEzMiBDMTYuODQyLDIxLjgwNyAxNi45MTksMjEuMjY2IDE2LjY1OCwyMC44NTIgQzE1Ljk5MywxOS44IDE1LjUxNiwxOC42NDggMTUuMjQyLDE3LjQzIEMxNS4xMzQsMTYuOTUyIDE0LjY3NCwxNi42MjUgMTQuMjEsMTYuNjUxIEwxMi45NDUsMTYuNzI0IEwxMi45NDUsMTMuMjc2IEwxNC4yMTQsMTMuMzQ5IEMxNC42OTksMTMuMzc0IDE1LjEzOCwxMy4wNDggMTUuMjQ3LDEyLjU3MSBDMTUuNTIsMTEuMzYgMTUuOTk4LDEwLjIxMSAxNi42NjUsOS4xNTUgQzE2LjkyNSw4Ljc0MiAxNi44NDksOC4yMDEgMTYuNDg1LDcuODc1IEwxNS41MzQsNy4wMjYgTDE3Ljk3Miw0LjU4OSBMMTguODIsNS41MzkgQzE5LjE0NCw1LjkwMyAxOS42ODgsNS45NzkgMjAuMDk5LDUuNzE5IEMyMS4xNTQsNS4wNTQgMjIuMzAzLDQuNTc4IDIzLjUxNSw0LjMwNSBDMjMuOTkzLDQuMTk3IDI0LjMyMiwzLjc2IDI0LjI5NCwzLjI3MiBMMjQuMjIxLDIgTDI3LjY3LDIgTDI3LjU5NywzLjI3MyBDMjcuNTY5LDMuNzYyIDI3Ljg5OCw0LjE5OCAyOC4zNzUsNC4zMDYgQzI5LjU4Nyw0LjU4IDMwLjczNiw1LjA1NiAzMS43ODksNS43MjEgQzMyLjIsNS45OCAzMi43NDMsNS45MDYgMzMuMDY5LDUuNTQyIEwzMy45MTksNC41ODkgTDM2LjM1Nyw3LjAyNiBMMzUuNDA4LDcuODczIEMzNS4wNDQsOC4xOTkgMzQuOTY3LDguNzQgMzUuMjI5LDkuMTU0IEMzNS44OTQsMTAuMjA2IDM2LjM3MSwxMS4zNTUgMzYuNjQ2LDEyLjU3MSBDMzYuNzU0LDEzLjA0OCAzNy4yMjUsMTMuMzc0IDM3LjY3OCwxMy4zNDkgTDM4Ljk0NiwxMy4yNzYgTDM4Ljk0NiwxNi43MjQgTDM3LjY3OSwxNi42NTEgQzM3LjIyNSwxNi42MjUgMzYuNzU0LDE2Ljk1MiAzNi42NDcsMTcuNDMgQzM2LjM3NCwxOC42NDMgMzUuODk3LDE5Ljc5NCAzNS4yMzEsMjAuODUgQzM0Ljk3LDIxLjI2NCAzNS4wNDYsMjEuODA1IDM1LjQxMSwyMi4xMyBMMzYuMzU2LDIyLjk3NCBMMzMuOTE5LDI1LjQxMiBMMzMuMDc5LDI0LjQ3IEMzMi43NTMsMjQuMTAzIDMyLjIxLDI0LjAyOCAzMS43OTgsMjQuMjkgQzMwLjc0MywyNC45NTcgMjkuNTkxLDI1LjQzNCAyOC4zNzUsMjUuNzA4IEMyNy44OTgsMjUuODE2IDI3LjU2OSwyNi4yNTMgMjcuNTk3LDI2Ljc0MSBMMjcuNjcsMjggTDI0LjIyMSwyOCBMMjQuMjk0LDI2Ljc0IFogTTI5LjQ1NiwyOS42ODcgQzI5LjY0NCwyOS40ODYgMjkuNzQyLDI5LjIxNyAyOS43MjYsMjguOTQzIEwyOS42NCwyNy40NDQgQzMwLjUwNSwyNy4xODggMzEuMzM4LDI2Ljg0MyAzMi4xMzEsMjYuNDEyIEwzMy4xMzEsMjcuNTMzIEMzMy4zMTQsMjcuNzM4IDMzLjU3NCwyNy44NTkgMzMuODQ5LDI3Ljg2NyBDMzQuMTE5LDI3Ljg3OSAzNC4zOSwyNy43NjkgMzQuNTg1LDI3LjU3NCBMMzguNTE5LDIzLjYzOSBDMzguNzEzLDIzLjQ0NSAzOC44MiwyMy4xNzkgMzguODEyLDIyLjkwNCBDMzguODA0LDIyLjYyOSAzOC42ODMsMjIuMzY5IDM4LjQ3OCwyMi4xODYgTDM3LjM1MywyMS4xODMgQzM3Ljc4NCwyMC4zOSAzOC4xMjgsMTkuNTU4IDM4LjM4MywxOC42OTUgTDM5Ljg4OSwxOC43ODEgQzQwLjE2NCwxOC43OTcgNDAuNDMzLDE4LjY5OCA0MC42MzIsMTguNTA5IEM0MC44MzMsMTguMzIgNDAuOTQ2LDE4LjA1NyA0MC45NDYsMTcuNzgyIEw0MC45NDYsMTIuMjE4IEM0MC45NDYsMTEuOTQzIDQwLjgzMywxMS42OCA0MC42MzIsMTEuNDkxIEM0MC40MzMsMTEuMzAyIDQwLjE2NSwxMS4yMDcgMzkuODg5LDExLjIxOSBMMzguMzgxLDExLjMwNSBDMzguMTI2LDEwLjQ0MiAzNy43ODEsOS42MSAzNy4zNTEsOC44MiBMMzguNDc4LDcuODE0IEMzOC42ODMsNy42MzEgMzguODA0LDcuMzcxIDM4LjgxMiw3LjA5NiBDMzguODIsNi44MjEgMzguNzEzLDYuNTU1IDM4LjUxOSw2LjM2MSBMMzQuNTg1LDIuNDI2IEMzNC4zOSwyLjIzMSAzNC4xMTYsMi4xMjMgMzMuODQ5LDIuMTM0IEMzMy41NzQsMi4xNDIgMzMuMzE1LDIuMjYyIDMzLjEzMSwyLjQ2NyBMMzIuMTIyLDMuNTk5IEMzMS4zMzIsMy4xNyAzMC41MDIsMi44MjYgMjkuNjQsMi41NyBMMjkuNzI2LDEuMDU3IEMyOS43NDIsMC43ODIgMjkuNjQ0LDAuNTEzIDI5LjQ1NSwwLjMxMyBDMjkuMjY2LDAuMTEzIDI5LjAwMywzLjU1MjcxMzY4ZS0xNSAyOC43MjgsMy41NTI3MTM2OGUtMTUgTDIzLjE2MywzLjU1MjcxMzY4ZS0xNSBDMjIuODg3LDMuNTUyNzEzNjhlLTE1IDIyLjYyNSwwLjExMyAyMi40MzYsMC4zMTMgQzIyLjI0NywwLjUxMyAyMi4xNDksMC43ODIgMjIuMTY1LDEuMDU3IEwyMi4yNTEsMi41NjggQzIxLjM4OSwyLjgyNCAyMC41NTgsMy4xNjcgMTkuNzY3LDMuNTk3IEwxOC43NTksMi40NjcgQzE4LjU3NiwyLjI2MiAxOC4zMTcsMi4xNDIgMTguMDQyLDIuMTM0IEMxNy43NjMsMi4xMjUgMTcuNTAyLDIuMjMxIDE3LjMwNiwyLjQyNiBMMTMuMzcyLDYuMzYxIEMxMy4xNzcsNi41NTUgMTMuMDcxLDYuODIxIDEzLjA3OSw3LjA5NiBDMTMuMDg3LDcuMzcxIDEzLjIwOCw3LjYzMSAxMy40MTMsNy44MTQgTDE0LjU0Myw4LjgyMiBDMTQuMTEyLDkuNjE0IDEzLjc2NywxMC40NDQgMTMuNTExLDExLjMwNSBMMTIuMDAyLDExLjIxOSBDMTEuNzI2LDExLjIwNiAxMS40NTgsMTEuMzAyIDExLjI1OCwxMS40OTEgQzExLjA1OCwxMS42OCAxMC45NDUsMTEuOTQzIDEwLjk0NSwxMi4yMTggTDEwLjk0NSwxNy43ODIgQzEwLjk0NSwxOC4wNTcgMTEuMDU4LDE4LjMyIDExLjI1OCwxOC41MDkgQzExLjQ1OCwxOC42OTggMTEuNzI3LDE4Ljc5OCAxMi4wMDIsMTguNzgxIEwxMy41MDUsMTguNjk1IEMxMy43NjEsMTkuNTYgMTQuMTA2LDIwLjM5MyAxNC41MzYsMjEuMTg1IEwxMy40MTMsMjIuMTg2IEMxMy4yMDgsMjIuMzY5IDEzLjA4NywyMi42MjggMTMuMDc5LDIyLjkwMyBDMTMuMDcxLDIzLjE3OSAxMy4xNzcsMjMuNDQ1IDEzLjM3MiwyMy42MzkgTDE3LjMwNiwyNy41NzQgQzE3LjUwMiwyNy43NjkgMTcuNzYxLDI3Ljg3NiAxOC4wNDIsMjcuODY3IEMxOC4zMTcsMjcuODU5IDE4LjU3NywyNy43MzggMTguNzU5LDI3LjUzMyBMMTkuNzYxLDI2LjQxIEMyMC41NTMsMjYuODQxIDIxLjM4NiwyNy4xODcgMjIuMjUxLDI3LjQ0MyBMMjIuMTY1LDI4Ljk0MyBDMjIuMTQ5LDI5LjIxNyAyMi4yNDcsMjkuNDg2IDIyLjQzNSwyOS42ODcgQzIyLjYyNSwyOS44ODcgMjIuODg3LDMwIDIzLjE2MywzMCBMMjguNzI4LDMwIEMyOS4wMDMsMzAgMjkuMjY2LDI5Ljg4NyAyOS40NTYsMjkuNjg3IEwyOS40NTYsMjkuNjg3IFogTTMxLjA4NSwzNS4yNTQgTDMyLjQ0OSwzNC4wNzMgQzM0LjQ0LDMyLjMzMyAzNy45MzMsMzIuMzMyIDM5LjkyOCwzNC4wNzYgTDQxLjI4NSwzNS4yNSBDNDQuMDIzLDM3LjY0NyA0OC42NTIsMzcuNjQ5IDUxLjM5LDM1LjI1NCBMNTIuMDcsMzQuNjY1IEw1MC43NTksMzMuMTUzIEw1MC4wNzcsMzMuNzQ2IEM0OC4wODYsMzUuNDg4IDQ0LjU5MiwzNS40ODggNDIuNTk3LDMzLjc0MiBMNDEuMjQxLDMyLjU2OCBDMzguNTAyLDMwLjE3IDMzLjg3MiwzMC4xNzEgMzEuMTM2LDMyLjU2NCBMMjkuNzcyLDMzLjc0NiBDMjcuNzgsMzUuNDg4IDI0LjI4OCwzNS40ODggMjIuMjk0LDMzLjc0MiBMMjAuOTM3LDMyLjU2OCBDMTguMTk4LDMwLjE3IDEzLjU2OCwzMC4xNzEgMTAuODMzLDMyLjU2NCBMOS40NjgsMzMuNzQ2IEM3LjQ3OCwzNS40ODggMy45ODQsMzUuNDg4IDEuOTksMzMuNzQyIEwxLjMxLDMzLjE1MyBMMCwzNC42NjUgTDAuNjc2LDM1LjI1IEMzLjQxNSwzNy42NDcgOC4wNDUsMzcuNjQ5IDEwLjc4MSwzNS4yNTQgTDEyLjE0NSwzNC4wNzMgQzE0LjEzNiwzMi4zMzMgMTcuNjI5LDMyLjMzMiAxOS42MjUsMzQuMDc2IEwyMC45ODEsMzUuMjUgQzIyLjM1MSwzNi40NSAyNC4xOTQsMzcuMDUgMjYuMDM3LDM3LjA1IEMyNy44NzgsMzcuMDQ5IDI5LjcxNywzNi40NTEgMzEuMDg1LDM1LjI1NCBMMzEuMDg1LDM1LjI1NCBaIE0zMS4wODUsNDguMTI3IEwzMi40NDksNDYuOTQ2IEMzNC40NCw0NS4yMDQgMzcuOTMzLDQ1LjIwNCAzOS45MjgsNDYuOTQ5IEw0MS4yODUsNDguMTI0IEM0NC4wMjMsNTAuNTIxIDQ4LjY1Miw1MC41MjIgNTEuMzksNDguMTI3IEw1Mi4wNyw0Ny41MzggTDUwLjc1OSw0Ni4wMjYgTDUwLjA3Nyw0Ni42MTkgQzQ4LjA4Niw0OC4zNjEgNDQuNTkyLDQ4LjM2MSA0Mi41OTcsNDYuNjE1IEw0MS4yNDEsNDUuNDQxIEMzOC41MDIsNDMuMDQzIDMzLjg3Miw0My4wNDMgMzEuMTM2LDQ1LjQzNyBMMjkuNzcyLDQ2LjYxOSBDMjcuNzgsNDguMzYxIDI0LjI4OCw0OC4zNjEgMjIuMjk0LDQ2LjYxNSBMMjAuOTM3LDQ1LjQ0MSBDMTguMTk4LDQzLjA0MyAxMy41NjgsNDMuMDQzIDEwLjgzMyw0NS40MzcgTDkuNDY4LDQ2LjYxOSBDNy40NzgsNDguMzYxIDMuOTg0LDQ4LjM2MSAxLjk5LDQ2LjYxNSBMMS4zMSw0Ni4wMjYgTDAsNDcuNTM4IEwwLjY3Niw0OC4xMjQgQzMuNDE1LDUwLjUyMSA4LjA0NSw1MC41MjIgMTAuNzgxLDQ4LjEyNyBMMTIuMTQ1LDQ2Ljk0NiBDMTQuMTM2LDQ1LjIwNCAxNy42MjksNDUuMjA0IDE5LjYyNSw0Ni45NDkgTDIwLjk4MSw0OC4xMjQgQzIyLjM1MSw0OS4zMjMgMjQuMTk0LDQ5LjkyMyAyNi4wMzcsNDkuOTIzIEMyNy44NzgsNDkuOTIyIDI5LjcxNyw0OS4zMjQgMzEuMDg1LDQ4LjEyNyBMMzEuMDg1LDQ4LjEyNyBaIE0yNi4wMzcsNDMuNDg2IEMyNC4xOTQsNDMuNDg2IDIyLjM1MSw0Mi44ODcgMjAuOTgxLDQxLjY4NyBMMTkuNjI1LDQwLjUxMyBDMTcuNjI5LDM4Ljc2OSAxNC4xMzYsMzguNzY5IDEyLjE0NSw0MC41MDkgTDEwLjc4MSw0MS42OSBDOC4wNDUsNDQuMDg1IDMuNDE1LDQ0LjA4NCAwLjY3Niw0MS42ODcgTDAsNDEuMTAyIEwxLjMxLDM5LjU5IEwxLjk5LDQwLjE3OSBDMy45ODQsNDEuOTI1IDcuNDc4LDQxLjkyNCA5LjQ2OCw0MC4xODIgTDEwLjgzMywzOS4wMDEgQzEzLjU2OCwzNi42MDcgMTguMTk4LDM2LjYwNyAyMC45MzcsMzkuMDA0IEwyMi4yOTQsNDAuMTc5IEMyNC4yODgsNDEuOTI1IDI3Ljc4LDQxLjkyNCAyOS43NzIsNDAuMTgyIEwzMS4xMzYsMzkuMDAxIEMzMy44NzIsMzYuNjA3IDM4LjUwMiwzNi42MDcgNDEuMjQxLDM5LjAwNCBMNDIuNTk3LDQwLjE3OSBDNDQuNTkyLDQxLjkyNSA0OC4wODYsNDEuOTI0IDUwLjA3Nyw0MC4xODIgTDUwLjc1OSwzOS41OSBMNTIuMDcsNDEuMTAyIEw1MS4zOSw0MS42OSBDNDguNjUyLDQ0LjA4NSA0NC4wMjMsNDQuMDg0IDQxLjI4NSw0MS42ODcgTDM5LjkyOCw0MC41MTMgQzM3LjkzMywzOC43NjkgMzQuNDQsMzguNzY5IDMyLjQ0OSw0MC41MDkgTDMxLjA4NSw0MS42OSBDMjkuNzE3LDQyLjg4NyAyNy44NzgsNDMuNDg2IDI2LjAzNyw0My40ODYgTDI2LjAzNyw0My40ODYgWiIgaWQ9IkZpbGwtOCIvPiYjeGE7ICAgICAgICA8L2c+JiN4YTsgICAgPC9nPiYjeGE7PC9zdmc+;html=1;fontColor=#1A1A1A;" parent="uSThPKN0Iph8RpYOuWK1S-55" vertex="1" rdfUpgraded="1" assetTypeVersion="3">
                    <mxGeometry x="691.5" y="306" width="80" height="80" as="geometry"/>
                    <ResourceDescriptor resource="urn:x-design-inspector:v1:genid-01JKADFF7GS6SK544SHBPQECEW-4ScB6zIA4dki9cQPRInMg" serialization-version="v0" as="resourceDescriptor">
                        <SemanticDataContainer serialization-version="v0">
                            <IRI resource="https://ontology.security.amazon.dev/design-inspector/stencils" property="http://www.w3.org/2000/01/rdf-schema#isDefinedBy"/>
                            <IRI resource="https://ontology.security.amazon.dev/design-inspector/components/01a2a559-f6f6-4e2e-a6cb-fd8ae28f1696" property="https://ontology.security.amazon.dev/foundation/system-modeling/04539597-4283-4f65-8090-ae67f9d3e949"/>
                            <StringLiteral content="gU8E3vsCLFC1tpfYn1Nnc" property="https://ontology.security.amazon.dev/foundation/diagram-visualization/05cc531c-d241-49c3-80dc-bd3777c5426f"/>
                            <IRI resource="https://ontology.security.amazon.dev/foundation/graph-structure/0b4eeac8-04e5-4e85-869c-bd56fb947b7b" property="http://www.w3.org/1999/02/22-rdf-syntax-ns#type"/>
                            <StringLiteral content="Amazon MSF(Flink)" property="http://www.w3.org/2000/01/rdf-schema#label"/>
                            <StringLiteral content="4ScB6zIA4dki9cQPRInMg" property="https://ontology.security.amazon.dev/foundation/diagram-visualization/a2255956-c3df-4c2c-b489-c307f68abc97"/>
                        </SemanticDataContainer>
                    </ResourceDescriptor>
                </mxCell>
                <object label="" stencilType="generic-channel" id="KL7B_61rrhgrM1_wuw4B3-100">
                    <mxCell style="edgeStyle=orthogonalEdgeStyle;rounded=0;html=1;jettySize=auto;orthogonalLoop=1;fontColor=#1A1A1A;strokeColor=#1A1A1A;" parent="uSThPKN0Iph8RpYOuWK1S-55" target="j4xIDLwzkUW08BQFTLQdl" edge="1" rdfUpgraded="1" assetTypeVersion="3" pageId="gU8E3vsCLFC1tpfYn1Nnc">
                        <mxGeometry relative="1" as="geometry">
                            <mxPoint x="1171.5" y="346.00000000000045" as="sourcePoint"/>
                            <mxPoint x="1482.5" y="346.0000000000007" as="targetPoint"/>
                        </mxGeometry>
                        <ResourceDescriptor resource="urn:x-design-inspector:v1:genid-01JKADFF7GS6SK544SHBPQECEW-KL7B_61rrhgrM1_wuw4B3-100" serialization-version="v0" as="resourceDescriptor">
                            <SemanticDataContainer serialization-version="v0">
                                <StringLiteral content="KL7B_61rrhgrM1_wuw4B3-100" property="https://ontology.security.amazon.dev/foundation/diagram-visualization/a2255956-c3df-4c2c-b489-c307f68abc97"/>
                                <IRI resource="https://ontology.security.amazon.dev/design-inspector/components/84a80b5f-5642-4a17-9585-ebfdb65f4bec" property="https://ontology.security.amazon.dev/foundation/system-modeling/04539597-4283-4f65-8090-ae67f9d3e949"/>
                                <StringLiteral content="gU8E3vsCLFC1tpfYn1Nnc" property="https://ontology.security.amazon.dev/foundation/diagram-visualization/05cc531c-d241-49c3-80dc-bd3777c5426f"/>
                                <IRI resource="https://ontology.security.amazon.dev/foundation/graph-structure/65157620-74b7-470e-bd9d-b9bf56b6cb4b" property="http://www.w3.org/1999/02/22-rdf-syntax-ns#type"/>
                                <IRI resource="urn:x-design-inspector:v1:genid-01JKADFF7GS6SK544SHBPQECEW-j4xIDLwzkUW08BQFTLQdl" property="https://ontology.security.amazon.dev/foundation/graph-structure/617be0ed-cf17-4a01-a75d-81ed3a472532"/>
                            </SemanticDataContainer>
                        </ResourceDescriptor>
                    </mxCell>
                </object>
                <object label="" stencilType="generic-channel" id="KL7B_61rrhgrM1_wuw4B3-101">
                    <mxCell style="edgeStyle=orthogonalEdgeStyle;rounded=0;html=1;jettySize=auto;orthogonalLoop=1;fontColor=#1A1A1A;strokeColor=#1A1A1A;" parent="uSThPKN0Iph8RpYOuWK1S-55" source="ZHw8RD7C_KdmEEpNAr9iJ" target="5cArx45BptmPlTDd3ijSc" edge="1" rdfUpgraded="1" assetTypeVersion="3" pageId="gU8E3vsCLFC1tpfYn1Nnc">
                        <mxGeometry relative="1" as="geometry"/>
                        <ResourceDescriptor resource="urn:x-design-inspector:v1:genid-01JKADFF7GS6SK544SHBPQECEW-KL7B_61rrhgrM1_wuw4B3-101" serialization-version="v0" as="resourceDescriptor">
                            <SemanticDataContainer serialization-version="v0">
                                <IRI resource="urn:x-design-inspector:v1:genid-01JKADFF7GS6SK544SHBPQECEW-ZHw8RD7C_KdmEEpNAr9iJ" property="https://ontology.security.amazon.dev/foundation/graph-structure/d1fc066e-3862-4ae0-8304-6cef42f40a50"/>
                                <IRI resource="https://ontology.security.amazon.dev/design-inspector/components/84a80b5f-5642-4a17-9585-ebfdb65f4bec" property="https://ontology.security.amazon.dev/foundation/system-modeling/04539597-4283-4f65-8090-ae67f9d3e949"/>
                                <StringLiteral content="gU8E3vsCLFC1tpfYn1Nnc" property="https://ontology.security.amazon.dev/foundation/diagram-visualization/05cc531c-d241-49c3-80dc-bd3777c5426f"/>
                                <IRI resource="https://ontology.security.amazon.dev/foundation/graph-structure/65157620-74b7-470e-bd9d-b9bf56b6cb4b" property="http://www.w3.org/1999/02/22-rdf-syntax-ns#type"/>
                                <StringLiteral content="KL7B_61rrhgrM1_wuw4B3-101" property="https://ontology.security.amazon.dev/foundation/diagram-visualization/a2255956-c3df-4c2c-b489-c307f68abc97"/>
                                <IRI resource="urn:x-design-inspector:v1:genid-01JKADFF7GS6SK544SHBPQECEW-5cArx45BptmPlTDd3ijSc" property="https://ontology.security.amazon.dev/foundation/graph-structure/617be0ed-cf17-4a01-a75d-81ed3a472532"/>
                            </SemanticDataContainer>
                        </ResourceDescriptor>
                    </mxCell>
                </object>
                <mxCell id="ZHw8RD7C_KdmEEpNAr9iJ" value="Amazon Athena" style="shape=image;verticalLabelPosition=bottom;verticalAlign=top;aspect=fixed;imageAspect=0;image=data:image/svg+xml,PHN2ZyB4bWxucz0iaHR0cDovL3d3dy53My5vcmcvMjAwMC9zdmciIHhtbG5zOnhsaW5rPSJodHRwOi8vd3d3LnczLm9yZy8xOTk5L3hsaW5rIiB3aWR0aD0iODBweCIgaGVpZ2h0PSI4MHB4IiB2aWV3Qm94PSIwIDAgODAgODAiIHZlcnNpb249IjEuMSI+JiN4YTsgICAgPHRpdGxlPkljb24tQXJjaGl0ZWN0dXJlLzY0L0FyY2hfQW1hem9uLUZpblNwYWNlXzY0PC90aXRsZT4mI3hhOyAgICA8ZyBpZD0iSWNvbi1BcmNoaXRlY3R1cmUvNjQvQXJjaF9BbWF6b24tRmluU3BhY2VfNjQiIHN0cm9rZT0ibm9uZSIgc3Ryb2tlLXdpZHRoPSIxIiBmaWxsPSJub25lIiBmaWxsLXJ1bGU9ImV2ZW5vZGQiPiYjeGE7ICAgICAgICA8ZyBpZD0iSWNvbi1BcmNoaXRlY3R1cmUtQkcvNjQvQW5hbHl0aWNzIiBmaWxsPSIjOEM0RkZGIj4mI3hhOyAgICAgICAgICAgIDxyZWN0IGlkPSJSZWN0YW5nbGUiIHg9IjAiIHk9IjAiIHdpZHRoPSI4MCIgaGVpZ2h0PSI4MCIvPiYjeGE7ICAgICAgICA8L2c+JiN4YTsgICAgICAgIDxnIGlkPSJJY29uLVNlcnZpY2UvNjQvQW1hem9uLUZpblNwYWNlXzY0IiB0cmFuc2Zvcm09InRyYW5zbGF0ZSgxMi4wMDAwMDAsIDEzLjAwMDAwMCkiIGZpbGw9IiNGRkZGRkYiPiYjeGE7ICAgICAgICAgICAgPHBhdGggZD0iTTEyLDQzIEwxNiw0MyBMMTYsMTcuMzkyIEwxMiwyMC4xMiBMMTIsNDMgWiBNMjMsMTIuNjIgTDE4LDE2LjAyOCBMMTgsNDMgTDIzLDQzIEwyMywxMi42MiBaIE0yNSwxMS4yNTYgTDI1LDQzIEwzMSw0MyBMMzEsMTEuMjU2IEwyOCw5LjIxIEwyNSwxMS4yNTYgWiBNMzgsMTYuMDI4IEwzMywxMi42MiBMMzMsNDMgTDM4LDQzIEwzOCwxNi4wMjggWiBNNDQsMjAuMTIgTDQwLDE3LjM5MiBMNDAsNDMgTDQ0LDQzIEw0NCwyMC4xMiBaIE01MSw0NSBMNSw0NSBMNSw0MyBMMTAsNDMgTDEwLDIxLjQ4MyBMNi41NjMsMjMuODI2IEw1LjQzNywyMi4xNzQgTDI3LjQzNyw3LjE3NCBDMjcuNzc2LDYuOTQyIDI4LjIyNCw2Ljk0MiAyOC41NjMsNy4xNzQgTDUwLjU2MywyMi4xNzQgTDQ5LjQzNywyMy44MjYgTDQ2LDIxLjQ4MyBMNDYsNDMgTDUxLDQzIEw1MSw0NSBaIE0zLDUwIEwxMyw1MCBMMTMsNDggTDMsNDggTDMsNTAgWiBNMTcsNTAgTDM5LDUwIEwzOSw0OCBMMTcsNDggTDE3LDUwIFogTTQzLDUwIEw1Myw1MCBMNTMsNDggTDQzLDQ4IEw0Myw1MCBaIE0wLDU1IEwyNSw1NSBMMjUsNTMgTDAsNTMgTDAsNTUgWiBNMzEsNTUgTDU2LDU1IEw1Niw1MyBMMzEsNTMgTDMxLDU1IFogTTEuNTU1LDE5LjgzMiBMMC40NDUsMTguMTY4IEwyNy40NDUsMC4xNjggQzI3Ljc4MSwtMC4wNTYgMjguMjE5LC0wLjA1NiAyOC41NTUsMC4xNjggTDU1LjU1NSwxOC4xNjggTDU0LjQ0NSwxOS44MzIgTDI4LDIuMjAyIEwxLjU1NSwxOS44MzIgWiIgaWQ9IkZpbGwtNSIvPiYjeGE7ICAgICAgICA8L2c+JiN4YTsgICAgPC9nPiYjeGE7PC9zdmc+;html=1;fontColor=#1A1A1A;" parent="uSThPKN0Iph8RpYOuWK1S-55" vertex="1" rdfUpgraded="1" assetTypeVersion="3">
                    <mxGeometry x="1279.5" y="615" width="80" height="80" as="geometry"/>
                    <ResourceDescriptor resource="urn:x-design-inspector:v1:genid-01JKADFF7GS6SK544SHBPQECEW-ZHw8RD7C_KdmEEpNAr9iJ" serialization-version="v0" as="resourceDescriptor">
                        <SemanticDataContainer serialization-version="v0">
                            <IRI resource="https://ontology.security.amazon.dev/design-inspector/stencils" property="http://www.w3.org/2000/01/rdf-schema#isDefinedBy"/>
                            <IRI resource="https://ontology.security.amazon.dev/design-inspector/components/225da36a-04be-4f93-bad2-3efb1befb381" property="https://ontology.security.amazon.dev/foundation/system-modeling/04539597-4283-4f65-8090-ae67f9d3e949"/>
                            <StringLiteral content="gU8E3vsCLFC1tpfYn1Nnc" property="https://ontology.security.amazon.dev/foundation/diagram-visualization/05cc531c-d241-49c3-80dc-bd3777c5426f"/>
                            <IRI resource="https://ontology.security.amazon.dev/foundation/graph-structure/0b4eeac8-04e5-4e85-869c-bd56fb947b7b" property="http://www.w3.org/1999/02/22-rdf-syntax-ns#type"/>
                            <StringLiteral content="Amazon Athena" property="http://www.w3.org/2000/01/rdf-schema#label"/>
                            <StringLiteral content="ZHw8RD7C_KdmEEpNAr9iJ" property="https://ontology.security.amazon.dev/foundation/diagram-visualization/a2255956-c3df-4c2c-b489-c307f68abc97"/>
                        </SemanticDataContainer>
                    </ResourceDescriptor>
                </mxCell>
                <object label="" stencilType="generic-channel" id="KL7B_61rrhgrM1_wuw4B3-102">
                    <mxCell style="edgeStyle=orthogonalEdgeStyle;rounded=0;html=1;exitX=1;exitY=0.75;exitDx=0;exitDy=0;exitPerimeter=0;jettySize=auto;orthogonalLoop=1;entryX=0.5;entryY=0;entryDx=0;entryDy=0;fontColor=#1A1A1A;strokeColor=#1A1A1A;" parent="uSThPKN0Iph8RpYOuWK1S-55" target="HcuzC34C3FmGGucH0-VOv" edge="1" rdfUpgraded="1" assetTypeVersion="3" pageId="gU8E3vsCLFC1tpfYn1Nnc">
                        <mxGeometry relative="1" as="geometry">
                            <mxPoint x="1171.928571428571" y="366.71428571428623" as="sourcePoint"/>
                            <mxPoint x="1320.6428571428573" y="496" as="targetPoint"/>
                        </mxGeometry>
                        <ResourceDescriptor resource="urn:x-design-inspector:v1:genid-01JKADFF7GS6SK544SHBPQECEW-KL7B_61rrhgrM1_wuw4B3-102" serialization-version="v0" as="resourceDescriptor">
                            <SemanticDataContainer serialization-version="v0">
                                <IRI resource="https://ontology.security.amazon.dev/foundation/graph-structure/65157620-74b7-470e-bd9d-b9bf56b6cb4b" property="http://www.w3.org/1999/02/22-rdf-syntax-ns#type"/>
                                <IRI resource="https://ontology.security.amazon.dev/design-inspector/components/84a80b5f-5642-4a17-9585-ebfdb65f4bec" property="https://ontology.security.amazon.dev/foundation/system-modeling/04539597-4283-4f65-8090-ae67f9d3e949"/>
                                <StringLiteral content="gU8E3vsCLFC1tpfYn1Nnc" property="https://ontology.security.amazon.dev/foundation/diagram-visualization/05cc531c-d241-49c3-80dc-bd3777c5426f"/>
                                <StringLiteral content="KL7B_61rrhgrM1_wuw4B3-102" property="https://ontology.security.amazon.dev/foundation/diagram-visualization/a2255956-c3df-4c2c-b489-c307f68abc97"/>
                                <IRI resource="urn:x-design-inspector:v1:genid-01JKADFF7GS6SK544SHBPQECEW-HcuzC34C3FmGGucH0-VOv" property="https://ontology.security.amazon.dev/foundation/graph-structure/617be0ed-cf17-4a01-a75d-81ed3a472532"/>
                            </SemanticDataContainer>
                        </ResourceDescriptor>
                    </mxCell>
                </object>
                <object label="" stencilType="generic-channel" id="KL7B_61rrhgrM1_wuw4B3-103">
                    <mxCell style="edgeStyle=orthogonalEdgeStyle;rounded=0;html=1;jettySize=auto;orthogonalLoop=1;fontColor=#1A1A1A;strokeColor=#1A1A1A;" parent="uSThPKN0Iph8RpYOuWK1S-55" edge="1" rdfUpgraded="1" assetTypeVersion="3" pageId="gU8E3vsCLFC1tpfYn1Nnc">
                        <mxGeometry relative="1" as="geometry">
                            <mxPoint x="650" y="655" as="sourcePoint"/>
                            <mxPoint x="1090.5" y="655" as="targetPoint"/>
                        </mxGeometry>
                        <ResourceDescriptor resource="urn:x-design-inspector:v1:genid-01JKADFF7GS6SK544SHBPQECEW-KL7B_61rrhgrM1_wuw4B3-103" serialization-version="v0" as="resourceDescriptor">
                            <SemanticDataContainer serialization-version="v0">
                                <StringLiteral content="gU8E3vsCLFC1tpfYn1Nnc" property="https://ontology.security.amazon.dev/foundation/diagram-visualization/05cc531c-d241-49c3-80dc-bd3777c5426f"/>
                                <IRI resource="https://ontology.security.amazon.dev/foundation/graph-structure/65157620-74b7-470e-bd9d-b9bf56b6cb4b" property="http://www.w3.org/1999/02/22-rdf-syntax-ns#type"/>
                                <IRI resource="https://ontology.security.amazon.dev/design-inspector/components/84a80b5f-5642-4a17-9585-ebfdb65f4bec" property="https://ontology.security.amazon.dev/foundation/system-modeling/04539597-4283-4f65-8090-ae67f9d3e949"/>
                                <StringLiteral content="KL7B_61rrhgrM1_wuw4B3-103" property="https://ontology.security.amazon.dev/foundation/diagram-visualization/a2255956-c3df-4c2c-b489-c307f68abc97"/>
                            </SemanticDataContainer>
                        </ResourceDescriptor>
                    </mxCell>
                </object>
                <object label="" stencilType="generic-channel" id="KL7B_61rrhgrM1_wuw4B3-104">
                    <mxCell style="edgeStyle=orthogonalEdgeStyle;rounded=0;html=1;jettySize=auto;orthogonalLoop=1;entryX=0;entryY=0.5;entryDx=0;entryDy=0;fontColor=#1A1A1A;strokeColor=#1A1A1A;" parent="uSThPKN0Iph8RpYOuWK1S-55" source="4ScB6zIA4dki9cQPRInMg" target="rBzLH7inNceNk1STzXI10" edge="1" rdfUpgraded="1" assetTypeVersion="3" pageId="gU8E3vsCLFC1tpfYn1Nnc">
                        <mxGeometry relative="1" as="geometry">
                            <mxPoint x="781" y="346" as="sourcePoint"/>
                            <mxPoint x="844.5" y="346.5" as="targetPoint"/>
                        </mxGeometry>
                        <ResourceDescriptor resource="urn:x-design-inspector:v1:genid-01JKADFF7GS6SK544SHBPQECEW-KL7B_61rrhgrM1_wuw4B3-104" serialization-version="v0" as="resourceDescriptor">
                            <SemanticDataContainer serialization-version="v0">
                                <StringLiteral content="gU8E3vsCLFC1tpfYn1Nnc" property="https://ontology.security.amazon.dev/foundation/diagram-visualization/05cc531c-d241-49c3-80dc-bd3777c5426f"/>
                                <IRI resource="urn:x-design-inspector:v1:genid-01JKADFF7GS6SK544SHBPQECEW-4ScB6zIA4dki9cQPRInMg" property="https://ontology.security.amazon.dev/foundation/graph-structure/d1fc066e-3862-4ae0-8304-6cef42f40a50"/>
                                <IRI resource="https://ontology.security.amazon.dev/design-inspector/components/84a80b5f-5642-4a17-9585-ebfdb65f4bec" property="https://ontology.security.amazon.dev/foundation/system-modeling/04539597-4283-4f65-8090-ae67f9d3e949"/>
                                <IRI resource="https://ontology.security.amazon.dev/foundation/graph-structure/65157620-74b7-470e-bd9d-b9bf56b6cb4b" property="http://www.w3.org/1999/02/22-rdf-syntax-ns#type"/>
                                <StringLiteral content="KL7B_61rrhgrM1_wuw4B3-104" property="https://ontology.security.amazon.dev/foundation/diagram-visualization/a2255956-c3df-4c2c-b489-c307f68abc97"/>
                                <IRI resource="urn:x-design-inspector:v1:genid-01JKADFF7GS6SK544SHBPQECEW-rBzLH7inNceNk1STzXI10" property="https://ontology.security.amazon.dev/foundation/graph-structure/617be0ed-cf17-4a01-a75d-81ed3a472532"/>
                            </SemanticDataContainer>
                        </ResourceDescriptor>
                    </mxCell>
                </object>
                <object label="" stencilType="generic-channel" id="KL7B_61rrhgrM1_wuw4B3-105">
                    <mxCell style="edgeStyle=orthogonalEdgeStyle;rounded=0;html=1;jettySize=auto;orthogonalLoop=1;strokeColor=#1A1A1A;" parent="uSThPKN0Iph8RpYOuWK1S-55" target="jGxLlvsCPuQMz4Q4M0CTp" edge="1" rdfUpgraded="1" assetTypeVersion="3" pageId="gU8E3vsCLFC1tpfYn1Nnc">
                        <mxGeometry relative="1" as="geometry">
                            <mxPoint x="1829.5" y="655" as="sourcePoint"/>
                        </mxGeometry>
                        <ResourceDescriptor resource="urn:x-design-inspector:v1:genid-01JKADFF7GS6SK544SHBPQECEW-KL7B_61rrhgrM1_wuw4B3-105" serialization-version="v0" as="resourceDescriptor">
                            <SemanticDataContainer serialization-version="v0">
                                <StringLiteral content="gU8E3vsCLFC1tpfYn1Nnc" property="https://ontology.security.amazon.dev/foundation/diagram-visualization/05cc531c-d241-49c3-80dc-bd3777c5426f"/>
                                <IRI resource="urn:x-design-inspector:v1:genid-01JKADFF7GS6SK544SHBPQECEW-_AVVRdfjqiTP0pE_ALRl4" property="https://ontology.security.amazon.dev/foundation/graph-structure/d1fc066e-3862-4ae0-8304-6cef42f40a50"/>
                                <IRI resource="https://ontology.security.amazon.dev/design-inspector/components/84a80b5f-5642-4a17-9585-ebfdb65f4bec" property="https://ontology.security.amazon.dev/foundation/system-modeling/04539597-4283-4f65-8090-ae67f9d3e949"/>
                                <IRI resource="https://ontology.security.amazon.dev/foundation/graph-structure/65157620-74b7-470e-bd9d-b9bf56b6cb4b" property="http://www.w3.org/1999/02/22-rdf-syntax-ns#type"/>
                                <StringLiteral content="KL7B_61rrhgrM1_wuw4B3-105" property="https://ontology.security.amazon.dev/foundation/diagram-visualization/a2255956-c3df-4c2c-b489-c307f68abc97"/>
                                <IRI resource="urn:x-design-inspector:v1:genid-01JKADFF7GS6SK544SHBPQECEW-jGxLlvsCPuQMz4Q4M0CTp" property="https://ontology.security.amazon.dev/foundation/graph-structure/617be0ed-cf17-4a01-a75d-81ed3a472532"/>
                            </SemanticDataContainer>
                        </ResourceDescriptor>
                    </mxCell>
                </object>
                <object label="" stencilType="generic-channel" id="KL7B_61rrhgrM1_wuw4B3-106">
                    <mxCell style="edgeStyle=orthogonalEdgeStyle;rounded=0;html=1;jettySize=auto;orthogonalLoop=1;exitX=0.5;exitY=0;exitDx=0;exitDy=0;fontColor=#1A1A1A;strokeColor=#1A1A1A;" parent="uSThPKN0Iph8RpYOuWK1S-55" source="5cArx45BptmPlTDd3ijSc" target="8wax_bq2wAJuO56Lcbj5D" edge="1" rdfUpgraded="1" assetTypeVersion="3" pageId="gU8E3vsCLFC1tpfYn1Nnc">
                        <mxGeometry relative="1" as="geometry">
                            <mxPoint x="1131.5" y="766" as="sourcePoint"/>
                        </mxGeometry>
                        <ResourceDescriptor resource="urn:x-design-inspector:v1:genid-01JKADFF7GS6SK544SHBPQECEW-KL7B_61rrhgrM1_wuw4B3-106" serialization-version="v0" as="resourceDescriptor">
                            <SemanticDataContainer serialization-version="v0">
                                <StringLiteral content="gU8E3vsCLFC1tpfYn1Nnc" property="https://ontology.security.amazon.dev/foundation/diagram-visualization/05cc531c-d241-49c3-80dc-bd3777c5426f"/>
                                <IRI resource="urn:x-design-inspector:v1:genid-01JKADFF7GS6SK544SHBPQECEW-5cArx45BptmPlTDd3ijSc" property="https://ontology.security.amazon.dev/foundation/graph-structure/d1fc066e-3862-4ae0-8304-6cef42f40a50"/>
                                <IRI resource="https://ontology.security.amazon.dev/design-inspector/components/84a80b5f-5642-4a17-9585-ebfdb65f4bec" property="https://ontology.security.amazon.dev/foundation/system-modeling/04539597-4283-4f65-8090-ae67f9d3e949"/>
                                <IRI resource="https://ontology.security.amazon.dev/foundation/graph-structure/65157620-74b7-470e-bd9d-b9bf56b6cb4b" property="http://www.w3.org/1999/02/22-rdf-syntax-ns#type"/>
                                <StringLiteral content="KL7B_61rrhgrM1_wuw4B3-106" property="https://ontology.security.amazon.dev/foundation/diagram-visualization/a2255956-c3df-4c2c-b489-c307f68abc97"/>
                                <IRI resource="urn:x-design-inspector:v1:genid-01JKADFF7GS6SK544SHBPQECEW-8wax_bq2wAJuO56Lcbj5D" property="https://ontology.security.amazon.dev/foundation/graph-structure/617be0ed-cf17-4a01-a75d-81ed3a472532"/>
                            </SemanticDataContainer>
                        </ResourceDescriptor>
                    </mxCell>
                </object>
                <object label="" stencilType="generic-channel" id="KL7B_61rrhgrM1_wuw4B3-107">
                    <mxCell style="edgeStyle=orthogonalEdgeStyle;rounded=0;html=1;jettySize=auto;orthogonalLoop=1;strokeColor=#1A1A1A;" parent="uSThPKN0Iph8RpYOuWK1S-55" target="yG4xa0orhQasgvYNhj5px" edge="1" rdfUpgraded="1" assetTypeVersion="3" pageId="gU8E3vsCLFC1tpfYn1Nnc">
                        <mxGeometry relative="1" as="geometry">
                            <mxPoint x="110" y="346" as="sourcePoint"/>
                        </mxGeometry>
                        <ResourceDescriptor resource="urn:x-design-inspector:v1:genid-01JKADFF7GS6SK544SHBPQECEW-KL7B_61rrhgrM1_wuw4B3-107" serialization-version="v0" as="resourceDescriptor">
                            <SemanticDataContainer serialization-version="v0">
                                <IRI resource="urn:x-design-inspector:v1:genid-01JKADFF7GS6SK544SHBPQECEW-_i54pIvAd7uaKrR4kO6iL" property="https://ontology.security.amazon.dev/foundation/graph-structure/d1fc066e-3862-4ae0-8304-6cef42f40a50"/>
                                <IRI resource="https://ontology.security.amazon.dev/design-inspector/components/84a80b5f-5642-4a17-9585-ebfdb65f4bec" property="https://ontology.security.amazon.dev/foundation/system-modeling/04539597-4283-4f65-8090-ae67f9d3e949"/>
                                <StringLiteral content="gU8E3vsCLFC1tpfYn1Nnc" property="https://ontology.security.amazon.dev/foundation/diagram-visualization/05cc531c-d241-49c3-80dc-bd3777c5426f"/>
                                <IRI resource="https://ontology.security.amazon.dev/foundation/graph-structure/65157620-74b7-470e-bd9d-b9bf56b6cb4b" property="http://www.w3.org/1999/02/22-rdf-syntax-ns#type"/>
                                <StringLiteral content="KL7B_61rrhgrM1_wuw4B3-107" property="https://ontology.security.amazon.dev/foundation/diagram-visualization/a2255956-c3df-4c2c-b489-c307f68abc97"/>
                                <IRI resource="urn:x-design-inspector:v1:genid-01JKADFF7GS6SK544SHBPQECEW-yG4xa0orhQasgvYNhj5px" property="https://ontology.security.amazon.dev/foundation/graph-structure/617be0ed-cf17-4a01-a75d-81ed3a472532"/>
                            </SemanticDataContainer>
                        </ResourceDescriptor>
                    </mxCell>
                </object>
                <mxCell id="jGxLlvsCPuQMz4Q4M0CTp" value="Amazon SageMaker&lt;br&gt;Notebook" style="shape=image;verticalLabelPosition=bottom;verticalAlign=top;aspect=fixed;imageAspect=0;image=data:image/svg+xml,PHN2ZyB4bWxucz0iaHR0cDovL3d3dy53My5vcmcvMjAwMC9zdmciIHhtbG5zOnhsaW5rPSJodHRwOi8vd3d3LnczLm9yZy8xOTk5L3hsaW5rIiB3aWR0aD0iNDhweCIgaGVpZ2h0PSI0OHB4IiB2aWV3Qm94PSIwIDAgNDggNDgiIHZlcnNpb249IjEuMSI+JiN4YTsgICAgPHRpdGxlPkljb24tUmVzb3VyY2UvTWFjaGluZS1MZWFybmluZy9SZXNfQW1hem9uLVNhZ2VNYWtlcl9Ob3RlYm9va180ODwvdGl0bGU+JiN4YTsgICAgPGcgaWQ9Ikljb24tUmVzb3VyY2UvTWFjaGluZS1MZWFybmluZy9SZXNfQW1hem9uLVNhZ2VNYWtlcl9Ob3RlYm9va180OCIgc3Ryb2tlPSJub25lIiBzdHJva2Utd2lkdGg9IjEiIGZpbGw9Im5vbmUiIGZpbGwtcnVsZT0iZXZlbm9kZCI+JiN4YTsgICAgICAgIDxwYXRoIGQ9Ik03Ljk3MiwyIEw3Ljk3Miw3LjIwNiBMNSw3LjIwNiBMNSw5LjIwNSBMNy45NzIsOS4yMDUgTDcuOTcyLDEyLjQ2NyBMNSwxMi40NjcgTDUsMTQuNDY3IEw3Ljk3MiwxNC40NjcgTDcuOTcyLDE3Ljc4IEw1LDE3Ljc4IEw1LDE5Ljc4IEw3Ljk3MiwxOS43OCBMNy45NzIsMjMuMDU0IEw1LDIzLjA1NCBMNSwyNS4wNTMgTDcuOTcyLDI1LjA1MyBMNy45NzIsMjguMjQ2IEw1LDI4LjI0NiBMNSwzMC4yNDYgTDcuOTcyLDMwLjI0NiBMNy45NzIsMzMuNDc5IEw1LDMzLjQ3OSBMNSwzNS40NzkgTDcuOTcyLDM1LjQ3OSBMNy45NzIsMzguNzkzIEw1LDM4Ljc5MyBMNSw0MC43OTMgTDcuOTcyLDQwLjc5MyBMNy45NzIsNDUuOTcyIEw0My41ODYsNDUuOTcyIEw0My41ODYsMiBMNy45NzIsMiBaIE05Ljk3Miw0IEw0MS41ODYsNCBMNDEuNTg2LDQzLjk3MiBMOS45NzIsNDMuOTcyIEw5Ljk3Miw0MC43OTMgTDEzLjA1Miw0MC43OTMgTDEzLjA1MiwzOC43OTMgTDkuOTcyLDM4Ljc5MyBMOS45NzIsMzUuNDc5IEwxMy4wNTIsMzUuNDc5IEwxMy4wNTIsMzMuNDc5IEw5Ljk3MiwzMy40NzkgTDkuOTcyLDMwLjI0NiBMMTMuMDUyLDMwLjI0NiBMMTMuMDUyLDI4LjI0NiBMOS45NzIsMjguMjQ2IEw5Ljk3MiwyNS4wNTMgTDEzLjA1MiwyNS4wNTMgTDEzLjA1MiwyMy4wNTQgTDkuOTcyLDIzLjA1NCBMOS45NzIsMTkuNzggTDEzLjA1MiwxOS43OCBMMTMuMDUyLDE3Ljc4IEw5Ljk3MiwxNy43OCBMOS45NzIsMTQuNDY3IEwxMy4wNTIsMTQuNDY3IEwxMy4wNTIsMTIuNDY3IEw5Ljk3MiwxMi40NjcgTDkuOTcyLDkuMjA1IEwxMy4wNTIsOS4yMDUgTDEzLjA1Miw3LjIwNiBMOS45NzIsNy4yMDYgTDkuOTcyLDQgWiBNMTYuODYyLDkuMjA1IEwzNi41Niw5LjIwNSBMMzYuNTYsNy4yMDUgTDE2Ljg2Miw3LjIwNSBMMTYuODYyLDkuMjA1IFogTTE2Ljg2MiwxNS41OTQgTDM2LjU2LDE1LjU5NCBMMzYuNTYsMTMuNTk0IEwxNi44NjIsMTMuNTk0IEwxNi44NjIsMTUuNTk0IFogTTE2Ljg2MiwyMS45MjcgTDM2LjU2LDIxLjkyNyBMMzYuNTYsMTkuOTI2IEwxNi44NjIsMTkuOTI2IEwxNi44NjIsMjEuOTI3IFogTTE2Ljg2MiwyOC4zMTMgTDI2Ljc2NCwyOC4zMTMgTDI2Ljc2NCwyNi4zMTMgTDE2Ljg2MiwyNi4zMTMgTDE2Ljg2MiwyOC4zMTMgWiIgaWQ9IkFtYXpvbi1NYWNoaW5lLUxlYXJuaW5nX05vdGVib29rLUljb25fbGlnaHQtYmciIGZpbGw9IiMwMUE4OEQiLz4mI3hhOyAgICA8L2c+JiN4YTs8L3N2Zz4;html=1;fontColor=#1A1A1A;" parent="uSThPKN0Iph8RpYOuWK1S-55" vertex="1" rdfUpgraded="1" assetTypeVersion="3">
                    <mxGeometry x="1631.5" y="615" width="80" height="80" as="geometry"/>
                    <ResourceDescriptor resource="urn:x-design-inspector:v1:genid-01JKADFF7GS6SK544SHBPQECEW-jGxLlvsCPuQMz4Q4M0CTp" serialization-version="v0" as="resourceDescriptor">
                        <SemanticDataContainer serialization-version="v0">
                            <IRI resource="https://ontology.security.amazon.dev/design-inspector/stencils" property="http://www.w3.org/2000/01/rdf-schema#isDefinedBy"/>
                            <IRI resource="https://ontology.security.amazon.dev/design-inspector/components/be37eadf-92a3-4b22-baa3-1b373345977a" property="https://ontology.security.amazon.dev/foundation/system-modeling/04539597-4283-4f65-8090-ae67f9d3e949"/>
                            <StringLiteral content="gU8E3vsCLFC1tpfYn1Nnc" property="https://ontology.security.amazon.dev/foundation/diagram-visualization/05cc531c-d241-49c3-80dc-bd3777c5426f"/>
                            <IRI resource="https://ontology.security.amazon.dev/foundation/graph-structure/0b4eeac8-04e5-4e85-869c-bd56fb947b7b" property="http://www.w3.org/1999/02/22-rdf-syntax-ns#type"/>
                            <StringLiteral content="Amazon SageMakerNotebook" property="http://www.w3.org/2000/01/rdf-schema#label"/>
                            <StringLiteral content="jGxLlvsCPuQMz4Q4M0CTp" property="https://ontology.security.amazon.dev/foundation/diagram-visualization/a2255956-c3df-4c2c-b489-c307f68abc97"/>
                        </SemanticDataContainer>
                    </ResourceDescriptor>
                </mxCell>
                <object label="" stencilType="generic-channel" id="KL7B_61rrhgrM1_wuw4B3-108">
                    <mxCell style="edgeStyle=orthogonalEdgeStyle;rounded=0;html=1;jettySize=auto;orthogonalLoop=1;fontColor=#1A1A1A;strokeColor=#1A1A1A;" parent="uSThPKN0Iph8RpYOuWK1S-55" source="ZHw8RD7C_KdmEEpNAr9iJ" target="jGxLlvsCPuQMz4Q4M0CTp" edge="1" rdfUpgraded="1" assetTypeVersion="3" pageId="gU8E3vsCLFC1tpfYn1Nnc">
                        <mxGeometry relative="1" as="geometry">
                            <mxPoint x="1359.4999999999995" y="654.9999999999995" as="sourcePoint"/>
                            <mxPoint x="1829.6512828375753" y="654.9999999999995" as="targetPoint"/>
                        </mxGeometry>
                        <ResourceDescriptor resource="urn:x-design-inspector:v1:genid-01JKADFF7GS6SK544SHBPQECEW-KL7B_61rrhgrM1_wuw4B3-108" serialization-version="v0" as="resourceDescriptor">
                            <SemanticDataContainer serialization-version="v0">
                                <StringLiteral content="gU8E3vsCLFC1tpfYn1Nnc" property="https://ontology.security.amazon.dev/foundation/diagram-visualization/05cc531c-d241-49c3-80dc-bd3777c5426f"/>
                                <IRI resource="urn:x-design-inspector:v1:genid-01JKADFF7GS6SK544SHBPQECEW-ZHw8RD7C_KdmEEpNAr9iJ" property="https://ontology.security.amazon.dev/foundation/graph-structure/d1fc066e-3862-4ae0-8304-6cef42f40a50"/>
                                <IRI resource="https://ontology.security.amazon.dev/design-inspector/components/84a80b5f-5642-4a17-9585-ebfdb65f4bec" property="https://ontology.security.amazon.dev/foundation/system-modeling/04539597-4283-4f65-8090-ae67f9d3e949"/>
                                <IRI resource="https://ontology.security.amazon.dev/foundation/graph-structure/65157620-74b7-470e-bd9d-b9bf56b6cb4b" property="http://www.w3.org/1999/02/22-rdf-syntax-ns#type"/>
                                <StringLiteral content="KL7B_61rrhgrM1_wuw4B3-108" property="https://ontology.security.amazon.dev/foundation/diagram-visualization/a2255956-c3df-4c2c-b489-c307f68abc97"/>
                                <IRI resource="urn:x-design-inspector:v1:genid-01JKADFF7GS6SK544SHBPQECEW-jGxLlvsCPuQMz4Q4M0CTp" property="https://ontology.security.amazon.dev/foundation/graph-structure/617be0ed-cf17-4a01-a75d-81ed3a472532"/>
                            </SemanticDataContainer>
                        </ResourceDescriptor>
                    </mxCell>
                </object>
                <object label="" stencilType="generic-channel" id="KL7B_61rrhgrM1_wuw4B3-109">
                    <mxCell style="edgeStyle=orthogonalEdgeStyle;rounded=0;html=1;jettySize=auto;orthogonalLoop=1;fontColor=#1A1A1A;strokeColor=#1A1A1A;" parent="uSThPKN0Iph8RpYOuWK1S-55" source="rBzLH7inNceNk1STzXI10" target="85sNPDTh6AKzUGKqwTtU2" edge="1" rdfUpgraded="1" assetTypeVersion="3" pageId="gU8E3vsCLFC1tpfYn1Nnc">
                        <mxGeometry relative="1" as="geometry"/>
                        <ResourceDescriptor resource="urn:x-design-inspector:v1:genid-01JKADFF7GS6SK544SHBPQECEW-KL7B_61rrhgrM1_wuw4B3-109" serialization-version="v0" as="resourceDescriptor">
                            <SemanticDataContainer serialization-version="v0">
                                <StringLiteral content="gU8E3vsCLFC1tpfYn1Nnc" property="https://ontology.security.amazon.dev/foundation/diagram-visualization/05cc531c-d241-49c3-80dc-bd3777c5426f"/>
                                <IRI resource="urn:x-design-inspector:v1:genid-01JKADFF7GS6SK544SHBPQECEW-rBzLH7inNceNk1STzXI10" property="https://ontology.security.amazon.dev/foundation/graph-structure/d1fc066e-3862-4ae0-8304-6cef42f40a50"/>
                                <IRI resource="https://ontology.security.amazon.dev/design-inspector/components/84a80b5f-5642-4a17-9585-ebfdb65f4bec" property="https://ontology.security.amazon.dev/foundation/system-modeling/04539597-4283-4f65-8090-ae67f9d3e949"/>
                                <IRI resource="https://ontology.security.amazon.dev/foundation/graph-structure/65157620-74b7-470e-bd9d-b9bf56b6cb4b" property="http://www.w3.org/1999/02/22-rdf-syntax-ns#type"/>
                                <StringLiteral content="KL7B_61rrhgrM1_wuw4B3-109" property="https://ontology.security.amazon.dev/foundation/diagram-visualization/a2255956-c3df-4c2c-b489-c307f68abc97"/>
                                <IRI resource="urn:x-design-inspector:v1:genid-01JKADFF7GS6SK544SHBPQECEW-85sNPDTh6AKzUGKqwTtU2" property="https://ontology.security.amazon.dev/foundation/graph-structure/617be0ed-cf17-4a01-a75d-81ed3a472532"/>
                            </SemanticDataContainer>
                        </ResourceDescriptor>
                    </mxCell>
                </object>
                <mxCell id="rBzLH7inNceNk1STzXI10" value="Amazon MSK&lt;br&gt;(Kafka)" style="shape=image;verticalLabelPosition=bottom;verticalAlign=top;aspect=fixed;imageAspect=0;image=data:image/svg+xml,PHN2ZyB4bWxucz0iaHR0cDovL3d3dy53My5vcmcvMjAwMC9zdmciIHhtbG5zOnhsaW5rPSJodHRwOi8vd3d3LnczLm9yZy8xOTk5L3hsaW5rIiB3aWR0aD0iODBweCIgaGVpZ2h0PSI4MHB4IiB2aWV3Qm94PSIwIDAgODAgODAiIHZlcnNpb249IjEuMSI+JiN4YTsgICAgPHRpdGxlPkljb24tQXJjaGl0ZWN0dXJlLzY0L0FyY2hfQW1hem9uLU1hbmFnZWQtU3RyZWFtaW5nLWZvci1BcGFjaGUtS2Fma2FfNjQ8L3RpdGxlPiYjeGE7ICAgIDxnIGlkPSJJY29uLUFyY2hpdGVjdHVyZS82NC9BcmNoX0FtYXpvbi1NYW5hZ2VkLVN0cmVhbWluZy1mb3ItQXBhY2hlLUthZmthXzY0IiBzdHJva2U9Im5vbmUiIHN0cm9rZS13aWR0aD0iMSIgZmlsbD0ibm9uZSIgZmlsbC1ydWxlPSJldmVub2RkIj4mI3hhOyAgICAgICAgPGcgaWQ9Ikljb24tQXJjaGl0ZWN0dXJlLUJHLzY0L0FuYWx5dGljcyIgZmlsbD0iIzhDNEZGRiI+JiN4YTsgICAgICAgICAgICA8cmVjdCBpZD0iUmVjdGFuZ2xlIiB4PSIwIiB5PSIwIiB3aWR0aD0iODAiIGhlaWdodD0iODAiLz4mI3hhOyAgICAgICAgPC9nPiYjeGE7ICAgICAgICA8cGF0aCBkPSJNMzYuMDA4MTM3MywzNi45NzcwODg4IEwzNi4wMDgxMzczLDI3Ljk4NjQ2MTYgTDM4LjAwNDA2ODYsMjcuOTg2NDYxNiBMMzguMDA0MDY4NiwzMS45ODIyOTU5IEw0MC42OTc1NzgsMjcuOTg2NDYxNiBMNDIuOTA3MDc0LDI3Ljk4NjQ2MTYgTDM5Ljc4NTQzNzQsMzIuMTkwMDc5MyBMNDMuMTY0NTQ5MiwzNi45NzcwODg4IEw0MC43OTczNzQ2LDM2Ljk3NzA4ODggTDM4LjAwNDA2ODYsMzIuNjMxNjE5IEwzOC4wMDQwNjg2LDM2Ljk3NzA4ODggTDM2LjAwODEzNzMsMzYuOTc3MDg4OCBaIE02Niw0OS4xMTc0MzI1IEw2NS4zMzEzNjMsNDkuNjk1ODI5NSBDNjMuOTg0MTA5Myw1MC44NzU1OTk2IDYyLjE3MTgwMzYsNTEuNDY1OTg0MSA2MC4zNTc1MDIsNTEuNDY1OTg0MSBDNTguNTQzMjAwNCw1MS40NjU5ODQxIDU2LjcyNzkwMDgsNTAuODc1NTk5NiA1NS4zNzg2NTEyLDQ5LjY5MjgzMjYgTDU0LjA0NTM2OTEsNDguNTM4MDM2NSBDNTIuMDg5MzU2Myw0Ni44MjM4MjM2IDQ4LjY2NTMzNiw0Ni44MjM4MjM2IDQ2LjcxMzMxNTIsNDguNTM0MDQwNiBMNDUuMzcyMDQ5Myw0OS42OTU4Mjk1IEM0Mi42Nzg1Mzk5LDUyLjA1NjM2ODYgMzguMTE2ODM4OCw1Mi4wNTgzNjY1IDM1LjQxOTMzNzUsNDkuNjkyODMyNiBMMzQuMDg2MDU1Myw0OC41MzgwMzY1IEMzMi4xMzAwNDI2LDQ2LjgyMzgyMzYgMjguNzA2MDIyMyw0Ni44MjM4MjM2IDI2Ljc1NDAwMTUsNDguNTM0MDQwNiBMMjUuNDEyNzM1Niw0OS42OTU4Mjk1IEMyMi43MTkyMjYyLDUyLjA1NjM2ODYgMTguMTU3NTI1LDUyLjA1ODM2NjUgMTUuNDYwMDIzOCw0OS42OTI4MzI2IEwxNC43OTUzNzg3LDQ5LjExNzQzMjUgTDE2LjEwMTcxNTcsNDcuNjA2MDA4MSBMMTYuNzcwMzUyNyw0OC4xODU0MDQxIEMxOC43MjczNjM1LDQ5Ljg5OTYxNyAyMi4xNTEzODM3LDQ5Ljg5OTYxNyAyNC4xMDI0MDY2LDQ4LjE4OTM5OTkgTDI1LjQ0MzY3MjUsNDcuMDI2NjEyMSBDMjguMTM3MTgxOSw0NC42NjcwNzIgMzIuNjk4ODgzLDQ0LjY2NzA3MiAzNS4zOTYzODQzLDQ3LjAzMDYwOCBMMzYuNzI5NjY2NCw0OC4xODU0MDQxIEMzOC42ODY2NzcyLDQ5Ljg5OTYxNyA0Mi4xMTA2OTc0LDQ5Ljg5OTYxNyA0NC4wNjE3MjAzLDQ4LjE4OTM5OTkgTDQ1LjQwMjk4NjIsNDcuMDI2NjEyMSBDNDguMDk2NDk1Niw0NC42NjcwNzIgNTIuNjU4MTk2OCw0NC42NjcwNzIgNTUuMzU1Njk4LDQ3LjAzMDYwOCBMNTYuNjg4OTgwMiw0OC4xODU0MDQxIEM1OC42NDQ5OTI5LDQ5Ljg5OTYxNyA2Mi4wNjkwMTMyLDQ5Ljg5OTYxNyA2NC4wMjEwMzQsNDguMTg5Mzk5OSBMNjQuNjkzNjYyOSw0Ny42MDYwMDgxIEw2Niw0OS4xMTc0MzI1IFogTTYzLjg5ODI4NDMsNjEuMTM5ODk5IEw2NS4yMDQ2MjEzLDYyLjY1MDMyNDQgTDY0LjUzNTk4NDMsNjMuMjI5NzIwMyBDNjMuMTg5NzI4Niw2NC40MDk0OTA0IDYxLjM3NzQyMjksNjQuOTk4ODc2IDU5LjU2NDExOTMsNjQuOTk4ODc2IEM1Ny43NDg4MTk3LDY0Ljk5ODg3NiA1NS45MzM1MjAxLDY0LjQwODQ5MTUgNTQuNTgzMjcyNiw2My4yMjU3MjQ1IEw1My4yNDk5OTA0LDYyLjA3MDkyODQgQzUxLjI5Mzk3NzcsNjAuMzU4NzEzNCA0Ny44Njk5NTc0LDYwLjM1ODcxMzQgNDUuOTE3OTM2NSw2Mi4wNjY5MzI2IEw0NC41NzY2NzA2LDYzLjIyOTcyMDMgQzQxLjg4NTE1NzIsNjUuNTkwMjU5NSAzNy4zMjM0NTYsNjUuNTkxMjU4NCAzNC42MjM5NTg5LDYzLjIyNTcyNDUgTDMzLjI5MDY3NjcsNjIuMDcwOTI4NCBDMzEuMzM1NjYxOSw2MC4zNTg3MTM0IDI3LjkxMTY0MTcsNjAuMzU4NzEzNCAyNS45NTg2MjI4LDYyLjA2NjkzMjYgTDI0LjYxNzM1NjksNjMuMjI5NzIwMyBDMjEuOTI0ODQ1NSw2NS41OTAyNTk1IDE3LjM2MzE0NDQsNjUuNTkxMjU4NCAxNC42NjQ2NDUxLDYzLjIyNTcyNDUgTDE0LDYyLjY1MDMyNDQgTDE1LjMwNjMzNzEsNjEuMTM5ODk5IEwxNS45NzQ5NzQxLDYxLjcxOTI5NSBDMTcuOTMxOTg0OCw2My40MzE1MSAyMS4zNTYwMDUxLDYzLjQzMjUwODkgMjMuMzA3MDI4LDYxLjcyMjI5MTggTDI0LjY0ODI5MzksNjAuNTYwNTAzIEMyNy4zNDI4MDEyLDU4LjIwMDk2MjggMzEuOTAyNTA2NCw1OC4xOTk5NjM5IDM0LjYwMTAwNTYsNjAuNTYzNDk5OSBMMzUuOTM0Mjg3OCw2MS43MTkyOTUgQzM3Ljg5MTI5ODUsNjMuNDMxNTEgNDEuMzE1MzE4OCw2My40MzI1MDg5IDQzLjI2NjM0MTcsNjEuNzIyMjkxOCBMNDQuNjA3NjA3Niw2MC41NjA1MDMgQzQ3LjMwMjExNDksNTguMjAwOTYyOCA1MS44NjE4MjAxLDU4LjE5OTk2MzkgNTQuNTYwMzE5Myw2MC41NjM0OTk5IEw1NS44OTM2MDE1LDYxLjcxOTI5NSBDNTcuODUwNjEyMiw2My40MzE1MSA2MS4yNzQ2MzI1LDYzLjQzMjUwODkgNjMuMjI1NjU1NCw2MS43MjIyOTE4IEw2My44OTgyODQzLDYxLjEzOTg5OSBaIE02My44OTgyODQzLDU0LjgwNjUwMTYgTDY1LjIwNDYyMTMsNTYuMzE1OTI4IEw2NC41MzU5ODQzLDU2Ljg5NTMyNCBDNjEuODQzNDcyOSw1OS4yNTY4NjIxIDU3LjI4MTc3MTgsNTkuMjU3ODYxIDU0LjU4MzI3MjYsNTYuODkyMzI3MSBMNTMuMjQ5OTkwNCw1NS43Mzc1MzEgQzUxLjI5Mzk3NzcsNTQuMDIzMzE4MSA0Ny44Njk5NTc0LDU0LjAyNDMxNyA0NS45MTc5MzY1LDU1LjczMzUzNTEgTDQ0LjU3NjY3MDYsNTYuODk2MzIyOSBDNDMuMjMwNDE0OSw1OC4wNzYwOTMgNDEuNDE3MTExMyw1OC42NjU0Nzg2IDM5LjYwNDgwNTYsNTguNjY1NDc4NiBDMzcuNzg5NTA2LDU4LjY2NTQ3ODYgMzUuOTc0MjA2NCw1OC4wNzUwOTQxIDM0LjYyMzk1ODksNTYuODkyMzI3MSBMMzMuMjkwNjc2Nyw1NS43Mzc1MzEgQzMxLjMzNTY2MTksNTQuMDIzMzE4MSAyNy45MTE2NDE3LDU0LjAyNDMxNyAyNS45NTg2MjI4LDU1LjczMzUzNTEgTDI0LjYxNzM1NjksNTYuODk2MzIyOSBDMjEuOTI1ODQzNSw1OS4yNTY4NjIxIDE3LjM2NDE0MjMsNTkuMjU2ODYyMSAxNC42NjQ2NDUxLDU2Ljg5MjMyNzEgTDE0LDU2LjMxNTkyOCBMMTUuMzA2MzM3MSw1NC44MDY1MDE2IEwxNS45NzQ5NzQxLDU1LjM4NTg5NzYgQzE3LjkzMTk4NDgsNTcuMTAwMTEwNSAyMS4zNTYwMDUxLDU3LjA5OTExMTUgMjMuMzA3MDI4LDU1LjM4ODg5NDQgTDI0LjY0ODI5MzksNTQuMjI3MTA1NiBDMjcuMzQyODAxMiw1MS44Njc1NjU0IDMxLjkwNDUwMjQsNTEuODY1NTY3NSAzNC42MDEwMDU2LDU0LjIzMDEwMjUgTDM1LjkzNDI4NzgsNTUuMzg0ODk4NiBDMzcuODkxMjk4NSw1Ny4xMDAxMTA1IDQxLjMxNTMxODgsNTcuMDk5MTExNSA0My4yNjYzNDE3LDU1LjM4ODg5NDQgTDQ0LjYwNzYwNzYsNTQuMjI3MTA1NiBDNDcuMzAyMTE0OSw1MS44Njc1NjU0IDUxLjg2MzgxNjEsNTEuODY1NTY3NSA1NC41NjAzMTkzLDU0LjIzMDEwMjUgTDU1Ljg5MzYwMTUsNTUuMzg0ODk4NiBDNTcuODUwNjEyMiw1Ny4xMDAxMTA1IDYxLjI3NDYzMjUsNTcuMDk5MTExNSA2My4yMjU2NTU0LDU1LjM4ODg5NDQgTDYzLjg5ODI4NDMsNTQuODA2NTAxNiBaIE0yNC4wMzI1NDksMzcuOTc2MDQ3NCBDMjUuMTMzMzA1MiwzNy45NzYwNDc0IDI2LjAyODQ4MDQsMzguODcyMTEzMiAyNi4wMjg0ODA0LDM5Ljk3Mzk2NDYgQzI2LjAyODQ4MDQsNDEuMDc1ODE1OSAyNS4xMzMzMDUyLDQxLjk3MTg4MTcgMjQuMDMyNTQ5LDQxLjk3MTg4MTcgQzIyLjkzMTc5MjksNDEuOTcxODgxNyAyMi4wMzY2MTc3LDQxLjA3NTgxNTkgMjIuMDM2NjE3NywzOS45NzM5NjQ2IEMyMi4wMzY2MTc3LDM4Ljg3MjExMzIgMjIuOTMxNzkyOSwzNy45NzYwNDc0IDI0LjAzMjU0OSwzNy45NzYwNDc0IEwyNC4wMzI1NDksMzcuOTc2MDQ3NCBaIE0zOS4wMDIwMzQzLDE2Ljk5NzkxNzIgQzQwLjEwMjc5MDUsMTYuOTk3OTE3MiA0MC45OTc5NjU3LDE3Ljg5Mzk4MyA0MC45OTc5NjU3LDE4Ljk5NTgzNDMgQzQwLjk5Nzk2NTcsMjAuMDk3Njg1NiA0MC4xMDI3OTA1LDIwLjk5Mzc1MTUgMzkuMDAyMDM0MywyMC45OTM3NTE1IEMzNy45MDEyNzgyLDIwLjk5Mzc1MTUgMzcuMDA2MTAyOSwyMC4wOTc2ODU2IDM3LjAwNjEwMjksMTguOTk1ODM0MyBDMzcuMDA2MTAyOSwxNy44OTM5ODMgMzcuOTAxMjc4MiwxNi45OTc5MTcyIDM5LjAwMjAzNDMsMTYuOTk3OTE3MiBMMzkuMDAyMDM0MywxNi45OTc5MTcyIFogTTU1Ljk2NzQ1MSwzOS45NzM5NjQ2IEM1NS45Njc0NTEsNDEuMDc1ODE1OSA1NS4wNzIyNzU3LDQxLjk3MTg4MTcgNTMuOTcxNTE5Niw0MS45NzE4ODE3IEM1Mi44NzA3NjM0LDQxLjk3MTg4MTcgNTEuOTc1NTg4Miw0MS4wNzU4MTU5IDUxLjk3NTU4ODIsMzkuOTczOTY0NiBDNTEuOTc1NTg4MiwzOC44NzIxMTMyIDUyLjg3MDc2MzQsMzcuOTc2MDQ3NCA1My45NzE1MTk2LDM3Ljk3NjA0NzQgQzU1LjA3MjI3NTcsMzcuOTc2MDQ3NCA1NS45Njc0NTEsMzguODcyMTEzMiA1NS45Njc0NTEsMzkuOTczOTY0NiBMNTUuOTY3NDUxLDM5Ljk3Mzk2NDYgWiBNMzkuMDAyMDM0MywyMi45OTE2Njg3IEMzOS42NjY2Nzk1LDIyLjk5MTY2ODcgNDAuMjg1NDE4MiwyMi44MTI4NTUxIDQwLjgzNzI5MzIsMjIuNTIzMTU3MSBMNTEuMDA0NTY3NiwzNy4zMjY3MjQzIEM1MC41ODg0MTU5LDM3Ljc5MjIzOSA1MC4yODMwMzg0LDM4LjM1MjY1NDggNTAuMTIyMzY1OSwzOC45NzUwMDYgTDI3Ljg4MTcwMjcsMzguOTc1MDA2IEMyNy43MjEwMzAyLDM4LjM1MjY1NDggMjcuNDE1NjUyNywzNy43OTIyMzkgMjYuOTk5NTAxLDM3LjMyNjcyNDMgTDM3LjE2Njc3NTQsMjIuNTIzMTU3MSBDMzcuNzE4NjUwNCwyMi44MTI4NTUxIDM4LjMzNzM4OTIsMjIuOTkxNjY4NyAzOS4wMDIwMzQzLDIyLjk5MTY2ODcgTDM5LjAwMjAzNDMsMjIuOTkxNjY4NyBaIE0yNC4wMzI1NDksNDMuOTY5Nzk4OSBDMjUuODg2NzY5Myw0My45Njk3OTg5IDI3LjQzNjYxLDQyLjY5MTEzMTkgMjcuODgxNzAyNyw0MC45NzI5MjMxIEw1MC4xMjIzNjU5LDQwLjk3MjkyMzEgQzUwLjU2NzQ1ODYsNDIuNjkxMTMxOSA1Mi4xMTcyOTk0LDQzLjk2OTc5ODkgNTMuOTcxNTE5Niw0My45Njk3OTg5IEM1Ni4xNzMwMzE5LDQzLjk2OTc5ODkgNTcuOTYzMzgyMyw0Mi4xNzc2NjcyIDU3Ljk2MzM4MjMsMzkuOTczOTY0NiBDNTcuOTYzMzgyMywzNy43NzAyNjE5IDU2LjE3MzAzMTksMzUuOTc4MTMwMiA1My45NzE1MTk2LDM1Ljk3ODEzMDIgQzUzLjUxMTQ1NzQsMzUuOTc4MTMwMiA1My4wNzYzNDQ0LDM2LjA3MjAzMjMgNTIuNjYzMTg2NiwzNi4yMTU4ODI0IEw0Mi4zMzcyMzU2LDIxLjE4MDU1NjcgQzQyLjc1MDM5MzQsMjAuNTUyMjExOCA0Mi45OTM4OTcxLDE5LjgwMjk5MjkgNDIuOTkzODk3MSwxOC45OTU4MzQzIEM0Mi45OTM4OTcxLDE2Ljc5MjEzMTcgNDEuMjAzNTQ2NiwxNSAzOS4wMDIwMzQzLDE1IEMzNi44MDA1MjIsMTUgMzUuMDEwMTcxNiwxNi43OTIxMzE3IDM1LjAxMDE3MTYsMTguOTk1ODM0MyBDMzUuMDEwMTcxNiwxOS44MDI5OTI5IDM1LjI1MzY3NTIsMjAuNTUyMjExOCAzNS42NjY4MzMsMjEuMTgwNTU2NyBMMjUuMzQwODgyLDM2LjIxNTg4MjQgQzI0LjkyNzcyNDMsMzYuMDcyMDMyMyAyNC40OTI2MTEyLDM1Ljk3ODEzMDIgMjQuMDMyNTQ5LDM1Ljk3ODEzMDIgQzIxLjgzMTAzNjcsMzUuOTc4MTMwMiAyMC4wNDA2ODYzLDM3Ljc3MDI2MTkgMjAuMDQwNjg2MywzOS45NzM5NjQ2IEMyMC4wNDA2ODYzLDQyLjE3NzY2NzIgMjEuODMxMDM2Nyw0My45Njk3OTg5IDI0LjAzMjU0OSw0My45Njk3OTg5IEwyNC4wMzI1NDksNDMuOTY5Nzk4OSBaIiBpZD0iQW1hem9uLU1hbmFnZWQtU3RyZWFtaW5nLWZvci1BcGFjaGUtS2Fma2EtSWNvbl82NF9TcXVpZCIgZmlsbD0iI0ZGRkZGRiIvPiYjeGE7ICAgIDwvZz4mI3hhOzwvc3ZnPg;html=1;fontColor=#1A1A1A;" parent="uSThPKN0Iph8RpYOuWK1S-55" vertex="1" rdfUpgraded="1" assetTypeVersion="3">
                    <mxGeometry x="811" y="306" width="80" height="80" as="geometry"/>
                    <ResourceDescriptor resource="urn:x-design-inspector:v1:genid-01JKADFF7GS6SK544SHBPQECEW-rBzLH7inNceNk1STzXI10" serialization-version="v0" as="resourceDescriptor">
                        <SemanticDataContainer serialization-version="v0">
                            <IRI resource="https://ontology.security.amazon.dev/design-inspector/stencils" property="http://www.w3.org/2000/01/rdf-schema#isDefinedBy"/>
                            <IRI resource="https://ontology.security.amazon.dev/design-inspector/components/1cfa0c42-c249-4fff-b3c1-c48bc434acb5" property="https://ontology.security.amazon.dev/foundation/system-modeling/04539597-4283-4f65-8090-ae67f9d3e949"/>
                            <StringLiteral content="gU8E3vsCLFC1tpfYn1Nnc" property="https://ontology.security.amazon.dev/foundation/diagram-visualization/05cc531c-d241-49c3-80dc-bd3777c5426f"/>
                            <IRI resource="https://ontology.security.amazon.dev/foundation/graph-structure/0b4eeac8-04e5-4e85-869c-bd56fb947b7b" property="http://www.w3.org/1999/02/22-rdf-syntax-ns#type"/>
                            <StringLiteral content="Amazon MSK(Kafka)" property="http://www.w3.org/2000/01/rdf-schema#label"/>
                            <StringLiteral content="rBzLH7inNceNk1STzXI10" property="https://ontology.security.amazon.dev/foundation/diagram-visualization/a2255956-c3df-4c2c-b489-c307f68abc97"/>
                        </SemanticDataContainer>
                    </ResourceDescriptor>
                </mxCell>
                <object label="" stencilType="generic-channel" id="KL7B_61rrhgrM1_wuw4B3-110">
                    <mxCell style="edgeStyle=orthogonalEdgeStyle;rounded=0;html=1;jettySize=auto;orthogonalLoop=1;fontColor=#1A1A1A;strokeColor=#1A1A1A;" parent="uSThPKN0Iph8RpYOuWK1S-55" source="85sNPDTh6AKzUGKqwTtU2" target="8wax_bq2wAJuO56Lcbj5D" edge="1" rdfUpgraded="1" assetTypeVersion="3" pageId="gU8E3vsCLFC1tpfYn1Nnc">
                        <mxGeometry relative="1" as="geometry"/>
                        <ResourceDescriptor resource="urn:x-design-inspector:v1:genid-01JKADFF7GS6SK544SHBPQECEW-KL7B_61rrhgrM1_wuw4B3-110" serialization-version="v0" as="resourceDescriptor">
                            <SemanticDataContainer serialization-version="v0">
                                <StringLiteral content="gU8E3vsCLFC1tpfYn1Nnc" property="https://ontology.security.amazon.dev/foundation/diagram-visualization/05cc531c-d241-49c3-80dc-bd3777c5426f"/>
                                <IRI resource="urn:x-design-inspector:v1:genid-01JKADFF7GS6SK544SHBPQECEW-85sNPDTh6AKzUGKqwTtU2" property="https://ontology.security.amazon.dev/foundation/graph-structure/d1fc066e-3862-4ae0-8304-6cef42f40a50"/>
                                <IRI resource="https://ontology.security.amazon.dev/design-inspector/components/84a80b5f-5642-4a17-9585-ebfdb65f4bec" property="https://ontology.security.amazon.dev/foundation/system-modeling/04539597-4283-4f65-8090-ae67f9d3e949"/>
                                <IRI resource="https://ontology.security.amazon.dev/foundation/graph-structure/65157620-74b7-470e-bd9d-b9bf56b6cb4b" property="http://www.w3.org/1999/02/22-rdf-syntax-ns#type"/>
                                <StringLiteral content="KL7B_61rrhgrM1_wuw4B3-110" property="https://ontology.security.amazon.dev/foundation/diagram-visualization/a2255956-c3df-4c2c-b489-c307f68abc97"/>
                                <IRI resource="urn:x-design-inspector:v1:genid-01JKADFF7GS6SK544SHBPQECEW-8wax_bq2wAJuO56Lcbj5D" property="https://ontology.security.amazon.dev/foundation/graph-structure/617be0ed-cf17-4a01-a75d-81ed3a472532"/>
                            </SemanticDataContainer>
                        </ResourceDescriptor>
                    </mxCell>
                </object>
                <mxCell id="85sNPDTh6AKzUGKqwTtU2" value="AWS Lambda&lt;br&gt;(update realtime feature)" style="shape=image;verticalLabelPosition=bottom;verticalAlign=top;aspect=fixed;imageAspect=0;image=data:image/svg+xml,PHN2ZyB4bWxucz0iaHR0cDovL3d3dy53My5vcmcvMjAwMC9zdmciIHhtbG5zOnhsaW5rPSJodHRwOi8vd3d3LnczLm9yZy8xOTk5L3hsaW5rIiB3aWR0aD0iODBweCIgaGVpZ2h0PSI4MHB4IiB2aWV3Qm94PSIwIDAgODAgODAiIHZlcnNpb249IjEuMSI+JiN4YTsgICAgPHRpdGxlPkljb24tQXJjaGl0ZWN0dXJlLzY0L0FyY2hfQVdTLUxhbWJkYV82NDwvdGl0bGU+JiN4YTsgICAgPGcgaWQ9Ikljb24tQXJjaGl0ZWN0dXJlLzY0L0FyY2hfQVdTLUxhbWJkYV82NCIgc3Ryb2tlPSJub25lIiBzdHJva2Utd2lkdGg9IjEiIGZpbGw9Im5vbmUiIGZpbGwtcnVsZT0iZXZlbm9kZCI+JiN4YTsgICAgICAgIDxnIGlkPSJJY29uLUFyY2hpdGVjdHVyZS1CRy82NC9Db21wdXRlIiBmaWxsPSIjRUQ3MTAwIj4mI3hhOyAgICAgICAgICAgIDxyZWN0IGlkPSJSZWN0YW5nbGUiIHg9IjAiIHk9IjAiIHdpZHRoPSI4MCIgaGVpZ2h0PSI4MCIvPiYjeGE7ICAgICAgICA8L2c+JiN4YTsgICAgICAgIDxwYXRoIGQ9Ik0yOC4wMDc1MzUyLDY2IEwxNS41OTA3Mjc0LDY2IEwyOS4zMjM1ODg1LDM3LjI5NiBMMzUuNTQ2MDI0OSw1MC4xMDYgTDI4LjAwNzUzNTIsNjYgWiBNMzAuMjE5NjY3NCwzNC41NTMgQzMwLjA1MTI3NjgsMzQuMjA4IDI5LjcwMDQ2MjksMzMuOTg5IDI5LjMxNzU3NDUsMzMuOTg5IEwyOS4zMTQ1Njc2LDMzLjk4OSBDMjguOTI4NjcyMywzMy45OSAyOC41Nzc4NTgzLDM0LjIxMSAyOC40MTI0NzQ2LDM0LjU1OCBMMTMuMDk3OTQ0LDY2LjU2OSBDMTIuOTQ5NTk5OSw2Ni44NzkgMTIuOTcwNjQ4Nyw2Ny4yNDMgMTMuMTU1MDc2Niw2Ny41MzQgQzEzLjMzNzQ5OTgsNjcuODI0IDEzLjY1ODI0MzksNjggMTQuMDAyMDQxNiw2OCBMMjguNjQyMDA3Miw2OCBDMjkuMDI5OTA3MSw2OCAyOS4zODE3MjM0LDY3Ljc3NyAyOS41NDgxMDk0LDY3LjQyOCBMMzcuNTYzNzA2LDUwLjUyOCBDMzcuNjkzMDA2LDUwLjI1NCAzNy42OTIwMDM3LDQ5LjkzNyAzNy41NTg2OTQ0LDQ5LjY2NSBMMzAuMjE5NjY3NCwzNC41NTMgWiBNNjQuOTk1MzQ5MSw2NiBMNTIuNjU4NzI3NCw2NiBMMzIuODY2ODA5LDI0LjU3IEMzMi43MDE0MjUzLDI0LjIyMiAzMi4zNDg2MDY3LDI0IDMxLjk2MTcwOTEsMjQgTDIzLjg4OTk4MjIsMjQgTDIzLjg5OTAwMzEsMTQgTDM5LjcxOTcwODEsMTQgTDU5LjQyMDQxNDksNTUuNDI5IEM1OS41ODU3OTg2LDU1Ljc3NyA1OS45Mzg2MTcyLDU2IDYwLjMyNTUxNDgsNTYgTDY0Ljk5NTM0OTEsNTYgTDY0Ljk5NTM0OTEsNjYgWiBNNjUuOTk3Njc0NSw1NCBMNjAuOTU5OTg2OCw1NCBMNDEuMjU5MjgsMTIuNTcxIEM0MS4wOTM4OTYzLDEyLjIyMyA0MC43NDEwNzc3LDEyIDQwLjM1MzE3NzgsMTIgTDIyLjg5NzY4LDEyIEMyMi4zNDUzOTg3LDEyIDIxLjg5NjM1NjksMTIuNDQ3IDIxLjg5NTM1NDUsMTIuOTk5IEwyMS44ODQzMjksMjQuOTk5IEMyMS44ODQzMjksMjUuMjY1IDIxLjk4ODU3MDgsMjUuNTE5IDIyLjE3ODAxMDMsMjUuNzA3IEMyMi4zNjU0NDUyLDI1Ljg5NSAyMi42MjAwMzU4LDI2IDIyLjg4NjY1NDQsMjYgTDMxLjMyOTI0MTcsMjYgTDUxLjEyMjE2MjUsNjcuNDMgQzUxLjI4ODU0ODUsNjcuNzc4IDUxLjYzOTM2MjQsNjggNTIuMDI2MjYsNjggTDY1Ljk5NzY3NDUsNjggQzY2LjU1MTk2MDUsNjggNjcsNjcuNTUyIDY3LDY3IEw2Nyw1NSBDNjcsNTQuNDQ4IDY2LjU1MTk2MDUsNTQgNjUuOTk3Njc0NSw1NCBMNjUuOTk3Njc0NSw1NCBaIiBpZD0iQVdTLUxhbWJkYV9JY29uXzY0X1NxdWlkIiBmaWxsPSIjRkZGRkZGIi8+JiN4YTsgICAgPC9nPiYjeGE7PC9zdmc+;html=1;fontColor=#1A1A1A;" parent="uSThPKN0Iph8RpYOuWK1S-55" vertex="1" rdfUpgraded="1" assetTypeVersion="3">
                    <mxGeometry x="940.5" y="306" width="80" height="80" as="geometry"/>
                    <ResourceDescriptor resource="urn:x-design-inspector:v1:genid-01JKADFF7GS6SK544SHBPQECEW-85sNPDTh6AKzUGKqwTtU2" serialization-version="v0" as="resourceDescriptor">
                        <SemanticDataContainer serialization-version="v0">
                            <IRI resource="https://ontology.security.amazon.dev/design-inspector/stencils" property="http://www.w3.org/2000/01/rdf-schema#isDefinedBy"/>
                            <IRI resource="https://ontology.security.amazon.dev/design-inspector/components/a6d09c9e-ce9f-476b-b0b3-62337d1b24e0" property="https://ontology.security.amazon.dev/foundation/system-modeling/04539597-4283-4f65-8090-ae67f9d3e949"/>
                            <StringLiteral content="gU8E3vsCLFC1tpfYn1Nnc" property="https://ontology.security.amazon.dev/foundation/diagram-visualization/05cc531c-d241-49c3-80dc-bd3777c5426f"/>
                            <IRI resource="https://ontology.security.amazon.dev/foundation/graph-structure/0b4eeac8-04e5-4e85-869c-bd56fb947b7b" property="http://www.w3.org/1999/02/22-rdf-syntax-ns#type"/>
                            <StringLiteral content="AWS Lambda(update realtime feature)" property="http://www.w3.org/2000/01/rdf-schema#label"/>
                            <StringLiteral content="85sNPDTh6AKzUGKqwTtU2" property="https://ontology.security.amazon.dev/foundation/diagram-visualization/a2255956-c3df-4c2c-b489-c307f68abc97"/>
                        </SemanticDataContainer>
                    </ResourceDescriptor>
                </mxCell>
                <mxCell id="HcuzC34C3FmGGucH0-VOv" value="&lt;div&gt;&lt;span&gt;Amazon S3&lt;/span&gt;&lt;/div&gt;(offline store)" style="shape=image;verticalLabelPosition=bottom;verticalAlign=top;aspect=fixed;imageAspect=0;image=data:image/svg+xml,PHN2ZyB4bWxucz0iaHR0cDovL3d3dy53My5vcmcvMjAwMC9zdmciIHhtbG5zOnhsaW5rPSJodHRwOi8vd3d3LnczLm9yZy8xOTk5L3hsaW5rIiB3aWR0aD0iODBweCIgaGVpZ2h0PSI4MHB4IiB2aWV3Qm94PSIwIDAgODAgODAiIHZlcnNpb249IjEuMSI+JiN4YTsgICAgPHRpdGxlPkljb24tQXJjaGl0ZWN0dXJlLzY0L0FyY2hfQW1hem9uLVNpbXBsZS1TdG9yYWdlLVNlcnZpY2VfNjQ8L3RpdGxlPiYjeGE7ICAgIDxnIGlkPSJJY29uLUFyY2hpdGVjdHVyZS82NC9BcmNoX0FtYXpvbi1TaW1wbGUtU3RvcmFnZS1TZXJ2aWNlXzY0IiBzdHJva2U9Im5vbmUiIHN0cm9rZS13aWR0aD0iMSIgZmlsbD0ibm9uZSIgZmlsbC1ydWxlPSJldmVub2RkIj4mI3hhOyAgICAgICAgPGcgaWQ9Ikljb24tQXJjaGl0ZWN0dXJlLUJHLzY0L1N0b3JhZ2UiIGZpbGw9IiM3QUExMTYiPiYjeGE7ICAgICAgICAgICAgPHJlY3QgaWQ9IlJlY3RhbmdsZSIgeD0iMCIgeT0iMCIgd2lkdGg9IjgwIiBoZWlnaHQ9IjgwIi8+JiN4YTsgICAgICAgIDwvZz4mI3hhOyAgICAgICAgPGcgaWQ9Ikljb24tU2VydmljZS82NC9BbWF6b24tU2ltcGxlLVN0b3JhZ2UtU2VydmljZV82NCIgdHJhbnNmb3JtPSJ0cmFuc2xhdGUoMTIuOTk5OTAwLCAxMS45OTk2MDApIiBmaWxsPSIjRkZGRkZGIj4mI3hhOyAgICAgICAgICAgIDxwYXRoIGQ9Ik00Ny44MzYsMzAuODkzIEw0OC4yMiwyOC4xODkgQzUxLjc2MSwzMC4zMSA1MS44MDcsMzEuMTg2IDUxLjgwNjAxMzIsMzEuMjEgQzUxLjgsMzEuMjE1IDUxLjE5NiwzMS43MTkgNDcuODM2LDMwLjg5MyBMNDcuODM2LDMwLjg5MyBaIE00NS44OTMsMzAuMzUzIEMzOS43NzMsMjguNTAxIDMxLjI1LDI0LjU5MSAyNy44MDEsMjIuOTYxIEMyNy44MDEsMjIuOTQ3IDI3LjgwNSwyMi45MzQgMjcuODA1LDIyLjkyIEMyNy44MDUsMjEuNTk1IDI2LjcyNywyMC41MTcgMjUuNDAxLDIwLjUxNyBDMjQuMDc3LDIwLjUxNyAyMi45OTksMjEuNTk1IDIyLjk5OSwyMi45MiBDMjIuOTk5LDI0LjI0NSAyNC4wNzcsMjUuMzIzIDI1LjQwMSwyNS4zMjMgQzI1Ljk4MywyNS4zMjMgMjYuNTExLDI1LjEwNiAyNi45MjgsMjQuNzYxIEMzMC45ODYsMjYuNjgyIDM5LjQ0MywzMC41MzUgNDUuNjA4LDMyLjM1NSBMNDMuMTcsNDkuNTYxIEM0My4xNjMsNDkuNjA4IDQzLjE2LDQ5LjY1NSA0My4xNiw0OS43MDIgQzQzLjE2LDUxLjIxNyAzNi40NTMsNTQgMjUuNDk0LDU0IEMxNC40MTksNTQgNy42NDEsNTEuMjE3IDcuNjQxLDQ5LjcwMiBDNy42NDEsNDkuNjU2IDcuNjM4LDQ5LjYxMSA3LjYzMiw0OS41NjYgTDIuNTM4LDEyLjM1OSBDNi45NDcsMTUuMzk0IDE2LjQzLDE3IDI1LjUsMTcgQzM0LjU1NiwxNyA0NC4wMjMsMTUuNCA0OC40NDEsMTIuMzc0IEw0NS44OTMsMzAuMzUzIFogTTIsOC40NzggQzIuMDcyLDcuMTYyIDkuNjM0LDIgMjUuNSwyIEM0MS4zNjQsMiA0OC45MjcsNy4xNjEgNDksOC40NzggTDQ5LDguOTI3IEM0OC4xMywxMS44NzggMzguMzMsMTUgMjUuNSwxNSBDMTIuNjQ4LDE1IDIuODQzLDExLjg2OCAyLDguOTEzIEwyLDguNDc4IFogTTUxLDguNSBDNTEsNS4wMzUgNDEuMDY2LDAgMjUuNSwwIEM5LjkzNCwwIDAsNS4wMzUgMCw4LjUgTDAuMDk0LDkuMjU0IEw1LjY0Miw0OS43NzggQzUuNzc1LDU0LjMxIDE3Ljg2MSw1NiAyNS40OTQsNTYgQzM0Ljk2Niw1NiA0NS4wMjksNTMuODIyIDQ1LjE1OSw0OS43ODEgTDQ3LjU1NSwzMi44ODQgQzQ4Ljg4OCwzMy4yMDMgNDkuOTg1LDMzLjM2NiA1MC44NjYsMzMuMzY2IEM1Mi4wNDksMzMuMzY2IDUyLjg0OSwzMy4wNzcgNTMuMzM0LDMyLjQ5OSBDNTMuNzMyLDMyLjAyNSA1My44ODQsMzEuNDUxIDUzLjc3LDMwLjg0IEM1My41MTEsMjkuNDU2IDUxLjg2OCwyNy45NjQgNDguNTIyLDI2LjA1NSBMNTAuODk4LDkuMjkzIEw1MSw4LjUgWiIgaWQ9IkFtYXpvbi1TaW1wbGUtU3RvcmFnZS1TZXJ2aWNlLUljb25fNjRfU3F1aWQiLz4mI3hhOyAgICAgICAgPC9nPiYjeGE7ICAgIDwvZz4mI3hhOzwvc3ZnPg;html=1;fontColor=#1A1A1A;" parent="uSThPKN0Iph8RpYOuWK1S-55" vertex="1" rdfUpgraded="1" assetTypeVersion="3">
                    <mxGeometry x="1279.5" y="403.5" width="80" height="80" as="geometry"/>
                    <ResourceDescriptor resource="urn:x-design-inspector:v1:genid-01JKADFF7GS6SK544SHBPQECEW-HcuzC34C3FmGGucH0-VOv" serialization-version="v0" as="resourceDescriptor">
                        <SemanticDataContainer serialization-version="v0">
                            <IRI resource="https://ontology.security.amazon.dev/design-inspector/stencils" property="http://www.w3.org/2000/01/rdf-schema#isDefinedBy"/>
                            <IRI resource="https://ontology.security.amazon.dev/design-inspector/components/87983bf3-224a-4c28-89d4-3f76f1ae81a7" property="https://ontology.security.amazon.dev/foundation/system-modeling/04539597-4283-4f65-8090-ae67f9d3e949"/>
                            <StringLiteral content="gU8E3vsCLFC1tpfYn1Nnc" property="https://ontology.security.amazon.dev/foundation/diagram-visualization/05cc531c-d241-49c3-80dc-bd3777c5426f"/>
                            <IRI resource="https://ontology.security.amazon.dev/foundation/graph-structure/0b4eeac8-04e5-4e85-869c-bd56fb947b7b" property="http://www.w3.org/1999/02/22-rdf-syntax-ns#type"/>
                            <StringLiteral content="Amazon S3(offline store)" property="http://www.w3.org/2000/01/rdf-schema#label"/>
                            <StringLiteral content="HcuzC34C3FmGGucH0-VOv" property="https://ontology.security.amazon.dev/foundation/diagram-visualization/a2255956-c3df-4c2c-b489-c307f68abc97"/>
                        </SemanticDataContainer>
                    </ResourceDescriptor>
                </mxCell>
                <mxCell id="KL7B_61rrhgrM1_wuw4B3-111" value="Amazon EventBridge&lt;br&gt;(Scheduled rule)" style="shape=image;verticalLabelPosition=bottom;verticalAlign=top;aspect=fixed;imageAspect=0;image=data:image/svg+xml,PHN2ZyB4bWxucz0iaHR0cDovL3d3dy53My5vcmcvMjAwMC9zdmciIHhtbG5zOnhsaW5rPSJodHRwOi8vd3d3LnczLm9yZy8xOTk5L3hsaW5rIiB3aWR0aD0iODBweCIgaGVpZ2h0PSI4MHB4IiB2aWV3Qm94PSIwIDAgODAgODAiIHZlcnNpb249IjEuMSI+JiN4YTsgICAgPHRpdGxlPkljb24tQXJjaGl0ZWN0dXJlLzY0L0FyY2hfQW1hem9uLUV2ZW50QnJpZGdlXzY0PC90aXRsZT4mI3hhOyAgICA8ZyBpZD0iSWNvbi1BcmNoaXRlY3R1cmUvNjQvQXJjaF9BbWF6b24tRXZlbnRCcmlkZ2VfNjQiIHN0cm9rZT0ibm9uZSIgc3Ryb2tlLXdpZHRoPSIxIiBmaWxsPSJub25lIiBmaWxsLXJ1bGU9ImV2ZW5vZGQiPiYjeGE7ICAgICAgICA8ZyBpZD0iSWNvbi1BcmNoaXRlY3R1cmUtQkcvNjQvQXBwbGljYXRpb24tSW50ZWdyYXRpb24iIGZpbGw9IiNFNzE1N0IiPiYjeGE7ICAgICAgICAgICAgPHJlY3QgaWQ9IlJlY3RhbmdsZSIgeD0iMCIgeT0iMCIgd2lkdGg9IjgwIiBoZWlnaHQ9IjgwIi8+JiN4YTsgICAgICAgIDwvZz4mI3hhOyAgICAgICAgPHBhdGggZD0iTTUzLjY1Njc0NCw2NiBDNTEuNTEzNzg4Miw2NiA0OS43Njk1OTEzLDY0LjI0NyA0OS43Njk1OTEzLDYyLjA5MSBDNDkuNzY5NTkxMyw1OS45MzUgNTEuNTEzNzg4Miw1OC4xODIgNTMuNjU2NzQ0LDU4LjE4MiBDNTUuNzk5Njk5OCw1OC4xODIgNTcuNTQzODk2OCw1OS45MzUgNTcuNTQzODk2OCw2Mi4wOTEgQzU3LjU0Mzg5NjgsNjQuMjQ3IDU1Ljc5OTY5OTgsNjYgNTMuNjU2NzQ0LDY2IEw1My42NTY3NDQsNjYgWiBNNDUuMTMyNjUyNiw0OSBMMzQuNzk3NzM4Niw0OSBMMjkuNjI5Nzg0NSw0MCBMMzQuNzk3NzM4NiwzMSBMNDUuMTMyNjUyNiwzMSBMNTAuMjk5NjEyNCw0MCBMNDUuMTMyNjUyNiw0OSBaIE0yNy42MjEwNzQxLDIxLjgxOCBDMjUuNDc4MTE4NCwyMS44MTggMjMuNzMzOTIxNCwyMC4wNjUgMjMuNzMzOTIxNCwxNy45MDkgQzIzLjczMzkyMTQsMTUuNzUzIDI1LjQ3ODExODQsMTQgMjcuNjIxMDc0MSwxNCBDMjkuNzY1MDI0NCwxNCAzMS41MDkyMjEzLDE1Ljc1MyAzMS41MDkyMjEzLDE3LjkwOSBDMzEuNTA5MjIxMywyMC4wNjUgMjkuNzY1MDI0NCwyMS44MTggMjcuNjIxMDc0MSwyMS44MTggTDI3LjYyMTA3NDEsMjEuODE4IFogTTUzLjY1Njc0NCw1Ni4xODIgQzUyLjkxODg5MSw1Ni4xODIgNTIuMjE0ODQ4LDU2LjMyNSA1MS41NjM1MDg4LDU2LjU3NiBMNDcuMzQwMjQ1MSw0OS40MSBMNDcuMTE3NDk3LDQ5LjU0MyBMNTIuMzA5MzE3MSw0MC41IEM1Mi40ODYzMjIyLDQwLjE5IDUyLjQ4NjMyMjIsMzkuODEgNTIuMzA5MzE3MSwzOS41IEw0Ni41Njc1ODc3LDI5LjUgQzQ2LjM4OTU4ODEsMjkuMTkgNDYuMDYxNDMyNSwyOSA0NS43MDY0Mjc4LDI5IEwzNS4yNTgxNTA5LDI5IEwzNS4yOTg5MjE4LDI4Ljk3NiBMMzEuNDI2Njg1MiwyMi40MDQgQzMyLjY5MTU3NiwyMS4zMiAzMy40OTgwNDM0LDE5LjcwOCAzMy40OTgwNDM0LDE3LjkwOSBDMzMuNDk4MDQzNCwxNC42NTEgMzAuODYxODU5NywxMiAyNy42MjEwNzQxLDEyIEMyNC4zODEyODMsMTIgMjEuNzQ1MDk5MywxNC42NTEgMjEuNzQ1MDk5MywxNy45MDkgQzIxLjc0NTA5OTMsMjEuMTY3IDI0LjM4MTI4MywyMy44MTggMjcuNjIxMDc0MSwyMy44MTggQzI4LjM1OTkyMTYsMjMuODE4IDI5LjA2Mzk2NDYsMjMuNjc1IDI5LjcxNTMwMzgsMjMuNDI0IEwzMy4zMjk5ODc5LDI5LjU1NyBMMjcuNjIwMDc5NywzOS41IEMyNy40NDMwNzQ2LDM5LjgxIDI3LjQ0MzA3NDYsNDAuMTkgMjcuNjIwMDc5Nyw0MC41IEwzMy4zNjI4MDM1LDUwLjUgQzMzLjU0MDgwMzEsNTAuODEgMzMuODY4OTU4Nyw1MSAzNC4yMjM5NjM1LDUxIEw0NS43MDY0Mjc4LDUxIEM0NS43ODg5NjM5LDUxIDQ1Ljg2OTUxMTIsNTAuOTg3IDQ1Ljk0NzA3NTIsNTAuOTY4IEw0OS44NTIxMjc0LDU3LjU5NiBDNDguNTg2MjQyMSw1OC42OCA0Ny43ODA3NjkyLDYwLjI5MiA0Ny43ODA3NjkyLDYyLjA5MSBDNDcuNzgwNzY5Miw2NS4zNDkgNTAuNDE1OTU4NSw2OCA1My42NTY3NDQsNjggQzU2Ljg5NzUyOTYsNjggNTkuNTMyNzE4OSw2NS4zNDkgNTkuNTMyNzE4OSw2Mi4wOTEgQzU5LjUzMjcxODksNTguODMzIDU2Ljg5NzUyOTYsNTYuMTgyIDUzLjY1Njc0NCw1Ni4xODIgTDUzLjY1Njc0NCw1Ni4xODIgWiBNNTkuNTg0NDI4MywzMi4xMDQgQzU3LjQ0MTQ3MjUsMzIuMTA0IDU1LjY5ODI2OTksMzAuMzUxIDU1LjY5ODI2OTksMjguMTk1IEM1NS42OTgyNjk5LDI2LjAzOSA1Ny40NDE0NzI1LDI0LjI4NiA1OS41ODQ0MjgzLDI0LjI4NiBDNjEuNzI3Mzg0MSwyNC4yODYgNjMuNDcxNTgxLDI2LjAzOSA2My40NzE1ODEsMjguMTk1IEM2My40NzE1ODEsMzAuMzUxIDYxLjcyNzM4NDEsMzIuMTA0IDU5LjU4NDQyODMsMzIuMTA0IEw1OS41ODQ0MjgzLDMyLjEwNCBaIE02Ni44NjY1MDAzLDM5LjUgTDYzLjA5MTcxNiwzMi45MjUgQzY0LjUyNjY1MTEsMzEuODQ2IDY1LjQ2MDQwMzEsMzAuMTMgNjUuNDYwNDAzMSwyOC4xOTUgQzY1LjQ2MDQwMzEsMjQuOTM3IDYyLjgyNTIxMzgsMjIuMjg2IDU5LjU4NDQyODMsMjIuMjg2IEM1OC43NjAwNjE1LDIyLjI4NiA1Ny45NzQ0NzY4LDIyLjQ1OSA1Ny4yNjE0ODQxLDIyLjc3IEw1NC4xODM3ODE5LDE3LjQwOSBDNTQuMDA2Nzc2NywxNy4xIDUzLjY3NzYyNjcsMTYuOTA5IDUzLjMyMjYyMTksMTYuOTA5IEw0MC45OTQ5MDgyLDE2LjkwOSBMNDAuOTk0OTA4MiwxOC45MDkgTDUyLjc0ODg0NjgsMTguOTA5IEw1NS41OTU4NDU2LDIzLjg2OSBDNTQuNDM4MzUxMSwyNC45NDkgNTMuNzA5NDQ3OCwyNi40ODYgNTMuNzA5NDQ3OCwyOC4xOTUgQzUzLjcwOTQ0NzgsMzEuNDUzIDU2LjM0NDYzNzEsMzQuMTA0IDU5LjU4NDQyODMsMzQuMTA0IEM2MC4xODgwMzU4LDM0LjEwNCA2MC43NzE3NTUsMzQuMDExIDYxLjMyMDY2OTksMzMuODQgTDY0Ljg1Nzc5LDQwIEw1OS44OTE3MDEzLDQ4LjY0OCBMNjEuNjE0MDIxMiw0OS42NDggTDY2Ljg2NjUwMDMsNDAuNSBDNjcuMDQ0NDk5OSw0MC4xOSA2Ny4wNDQ0OTk5LDM5LjgxIDY2Ljg2NjUwMDMsMzkuNSBMNjYuODY2NTAwMywzOS41IFogTTIxLjIyOSw1NS4yNDcgQzE5LjA4NTA0OTgsNTUuMjQ3IDE3LjM0MDg1MjgsNTMuNDkzIDE3LjM0MDg1MjgsNTEuMzM4IEMxNy4zNDA4NTI4LDQ5LjE4MiAxOS4wODUwNDk4LDQ3LjQyOSAyMS4yMjksNDcuNDI5IEMyMy4zNzE5NTU4LDQ3LjQyOSAyNS4xMTYxNTI3LDQ5LjE4MiAyNS4xMTYxNTI3LDUxLjMzOCBDMjUuMTE2MTUyNyw1My40OTMgMjMuMzcxOTU1OCw1NS4yNDcgMjEuMjI5LDU1LjI0NyBMMjEuMjI5LDU1LjI0NyBaIE0yNC40NzY3NDY0LDU2LjI1OCBDMjYuMDU4ODU0NCw1NS4xOTggMjcuMTA0OTc0OCw1My4zODkgMjcuMTA0OTc0OCw1MS4zMzggQzI3LjEwNDk3NDgsNDguMDggMjQuNDY4NzkxMSw0NS40MjkgMjEuMjI5LDQ1LjQyOSBDMjAuMjkwMjc1OSw0NS40MjkgMTkuNDA2MjQ0NSw0NS42NTcgMTguNjE4NjcxLDQ2LjA1MiBMMTUuMTQzMjA0NCw0MCBMMjAuOTAxODM4NywyOS45NzEgTDE5LjE3ODUyNDQsMjguOTcxIEwxMy4xMzM0OTk3LDM5LjUgQzEyLjk1NTUwMDEsMzkuODEgMTIuOTU1NTAwMSw0MC4xOSAxMy4xMzM0OTk3LDQwLjUgTDE3LjAwNDc0MTksNDcuMjQgQzE1Ljk4MzQ4MTcsNDguMzA0IDE1LjM1MjAzMDcsNDkuNzQ3IDE1LjM1MjAzMDcsNTEuMzM4IEMxNS4zNTIwMzA3LDU0LjU5NiAxNy45ODgyMTQ0LDU3LjI0NyAyMS4yMjksNTcuMjQ3IEMyMS43MTcyNTU4LDU3LjI0NyAyMi4xODk2MDEsNTcuMTggMjIuNjQ0MDQ2OSw1Ny4wNjYgTDI1LjgxNjIxODEsNjIuNTkxIEMyNS45OTQyMTc3LDYyLjkgMjYuMzIyMzczMyw2My4wOTEgMjYuNjc3Mzc4MSw2My4wOTEgTDM5LjAwNjA4NjIsNjMuMDkxIEwzOS4wMDYwODYyLDYxLjA5MSBMMjcuMjUxMTUzMiw2MS4wOTEgTDI0LjQ3Njc0NjQsNTYuMjU4IFoiIGlkPSJBbWF6b24tRXZlbnRCcmlkZ2VfSWNvbl82NF9TcXVpZCIgZmlsbD0iI0ZGRkZGRiIvPiYjeGE7ICAgIDwvZz4mI3hhOzwvc3ZnPg;html=1;fontColor=#1A1A1A;" parent="uSThPKN0Iph8RpYOuWK1S-55" vertex="1" rdfUpgraded="1" assetTypeVersion="3">
                    <mxGeometry x="570.5" y="615" width="80" height="80" as="geometry"/>
                    <ResourceDescriptor resource="urn:x-design-inspector:v1:genid-01JKADFF7GS6SK544SHBPQECEW-KL7B_61rrhgrM1_wuw4B3-111" serialization-version="v0" as="resourceDescriptor">
                        <SemanticDataContainer serialization-version="v0">
                            <IRI resource="https://ontology.security.amazon.dev/design-inspector/stencils" property="http://www.w3.org/2000/01/rdf-schema#isDefinedBy"/>
                            <IRI resource="https://ontology.security.amazon.dev/design-inspector/components/50768173-291a-411b-8975-9242c0cf2b36" property="https://ontology.security.amazon.dev/foundation/system-modeling/04539597-4283-4f65-8090-ae67f9d3e949"/>
                            <StringLiteral content="gU8E3vsCLFC1tpfYn1Nnc" property="https://ontology.security.amazon.dev/foundation/diagram-visualization/05cc531c-d241-49c3-80dc-bd3777c5426f"/>
                            <IRI resource="https://ontology.security.amazon.dev/foundation/graph-structure/0b4eeac8-04e5-4e85-869c-bd56fb947b7b" property="http://www.w3.org/1999/02/22-rdf-syntax-ns#type"/>
                            <StringLiteral content="Amazon EventBridge(Scheduled rule)" property="http://www.w3.org/2000/01/rdf-schema#label"/>
                            <StringLiteral content="KL7B_61rrhgrM1_wuw4B3-111" property="https://ontology.security.amazon.dev/foundation/diagram-visualization/a2255956-c3df-4c2c-b489-c307f68abc97"/>
                        </SemanticDataContainer>
                    </ResourceDescriptor>
                </mxCell>
                <mxCell id="5cArx45BptmPlTDd3ijSc" value="AWS Lambda&lt;br&gt;(data aggregator)" style="shape=image;verticalLabelPosition=bottom;verticalAlign=top;aspect=fixed;imageAspect=0;image=data:image/svg+xml,PHN2ZyB4bWxucz0iaHR0cDovL3d3dy53My5vcmcvMjAwMC9zdmciIHhtbG5zOnhsaW5rPSJodHRwOi8vd3d3LnczLm9yZy8xOTk5L3hsaW5rIiB3aWR0aD0iODBweCIgaGVpZ2h0PSI4MHB4IiB2aWV3Qm94PSIwIDAgODAgODAiIHZlcnNpb249IjEuMSI+JiN4YTsgICAgPHRpdGxlPkljb24tQXJjaGl0ZWN0dXJlLzY0L0FyY2hfQVdTLUxhbWJkYV82NDwvdGl0bGU+JiN4YTsgICAgPGcgaWQ9Ikljb24tQXJjaGl0ZWN0dXJlLzY0L0FyY2hfQVdTLUxhbWJkYV82NCIgc3Ryb2tlPSJub25lIiBzdHJva2Utd2lkdGg9IjEiIGZpbGw9Im5vbmUiIGZpbGwtcnVsZT0iZXZlbm9kZCI+JiN4YTsgICAgICAgIDxnIGlkPSJJY29uLUFyY2hpdGVjdHVyZS1CRy82NC9Db21wdXRlIiBmaWxsPSIjRUQ3MTAwIj4mI3hhOyAgICAgICAgICAgIDxyZWN0IGlkPSJSZWN0YW5nbGUiIHg9IjAiIHk9IjAiIHdpZHRoPSI4MCIgaGVpZ2h0PSI4MCIvPiYjeGE7ICAgICAgICA8L2c+JiN4YTsgICAgICAgIDxwYXRoIGQ9Ik0yOC4wMDc1MzUyLDY2IEwxNS41OTA3Mjc0LDY2IEwyOS4zMjM1ODg1LDM3LjI5NiBMMzUuNTQ2MDI0OSw1MC4xMDYgTDI4LjAwNzUzNTIsNjYgWiBNMzAuMjE5NjY3NCwzNC41NTMgQzMwLjA1MTI3NjgsMzQuMjA4IDI5LjcwMDQ2MjksMzMuOTg5IDI5LjMxNzU3NDUsMzMuOTg5IEwyOS4zMTQ1Njc2LDMzLjk4OSBDMjguOTI4NjcyMywzMy45OSAyOC41Nzc4NTgzLDM0LjIxMSAyOC40MTI0NzQ2LDM0LjU1OCBMMTMuMDk3OTQ0LDY2LjU2OSBDMTIuOTQ5NTk5OSw2Ni44NzkgMTIuOTcwNjQ4Nyw2Ny4yNDMgMTMuMTU1MDc2Niw2Ny41MzQgQzEzLjMzNzQ5OTgsNjcuODI0IDEzLjY1ODI0MzksNjggMTQuMDAyMDQxNiw2OCBMMjguNjQyMDA3Miw2OCBDMjkuMDI5OTA3MSw2OCAyOS4zODE3MjM0LDY3Ljc3NyAyOS41NDgxMDk0LDY3LjQyOCBMMzcuNTYzNzA2LDUwLjUyOCBDMzcuNjkzMDA2LDUwLjI1NCAzNy42OTIwMDM3LDQ5LjkzNyAzNy41NTg2OTQ0LDQ5LjY2NSBMMzAuMjE5NjY3NCwzNC41NTMgWiBNNjQuOTk1MzQ5MSw2NiBMNTIuNjU4NzI3NCw2NiBMMzIuODY2ODA5LDI0LjU3IEMzMi43MDE0MjUzLDI0LjIyMiAzMi4zNDg2MDY3LDI0IDMxLjk2MTcwOTEsMjQgTDIzLjg4OTk4MjIsMjQgTDIzLjg5OTAwMzEsMTQgTDM5LjcxOTcwODEsMTQgTDU5LjQyMDQxNDksNTUuNDI5IEM1OS41ODU3OTg2LDU1Ljc3NyA1OS45Mzg2MTcyLDU2IDYwLjMyNTUxNDgsNTYgTDY0Ljk5NTM0OTEsNTYgTDY0Ljk5NTM0OTEsNjYgWiBNNjUuOTk3Njc0NSw1NCBMNjAuOTU5OTg2OCw1NCBMNDEuMjU5MjgsMTIuNTcxIEM0MS4wOTM4OTYzLDEyLjIyMyA0MC43NDEwNzc3LDEyIDQwLjM1MzE3NzgsMTIgTDIyLjg5NzY4LDEyIEMyMi4zNDUzOTg3LDEyIDIxLjg5NjM1NjksMTIuNDQ3IDIxLjg5NTM1NDUsMTIuOTk5IEwyMS44ODQzMjksMjQuOTk5IEMyMS44ODQzMjksMjUuMjY1IDIxLjk4ODU3MDgsMjUuNTE5IDIyLjE3ODAxMDMsMjUuNzA3IEMyMi4zNjU0NDUyLDI1Ljg5NSAyMi42MjAwMzU4LDI2IDIyLjg4NjY1NDQsMjYgTDMxLjMyOTI0MTcsMjYgTDUxLjEyMjE2MjUsNjcuNDMgQzUxLjI4ODU0ODUsNjcuNzc4IDUxLjYzOTM2MjQsNjggNTIuMDI2MjYsNjggTDY1Ljk5NzY3NDUsNjggQzY2LjU1MTk2MDUsNjggNjcsNjcuNTUyIDY3LDY3IEw2Nyw1NSBDNjcsNTQuNDQ4IDY2LjU1MTk2MDUsNTQgNjUuOTk3Njc0NSw1NCBMNjUuOTk3Njc0NSw1NCBaIiBpZD0iQVdTLUxhbWJkYV9JY29uXzY0X1NxdWlkIiBmaWxsPSIjRkZGRkZGIi8+JiN4YTsgICAgPC9nPiYjeGE7PC9zdmc+;html=1;fontColor=#1A1A1A;" parent="uSThPKN0Iph8RpYOuWK1S-55" vertex="1" rdfUpgraded="1" assetTypeVersion="3">
                    <mxGeometry x="1090.5" y="615" width="80" height="80" as="geometry"/>
                    <ResourceDescriptor resource="urn:x-design-inspector:v1:genid-01JKADFF7GS6SK544SHBPQECEW-5cArx45BptmPlTDd3ijSc" serialization-version="v0" as="resourceDescriptor">
                        <SemanticDataContainer serialization-version="v0">
                            <IRI resource="https://ontology.security.amazon.dev/design-inspector/stencils" property="http://www.w3.org/2000/01/rdf-schema#isDefinedBy"/>
                            <IRI resource="https://ontology.security.amazon.dev/design-inspector/components/a6d09c9e-ce9f-476b-b0b3-62337d1b24e0" property="https://ontology.security.amazon.dev/foundation/system-modeling/04539597-4283-4f65-8090-ae67f9d3e949"/>
                            <StringLiteral content="gU8E3vsCLFC1tpfYn1Nnc" property="https://ontology.security.amazon.dev/foundation/diagram-visualization/05cc531c-d241-49c3-80dc-bd3777c5426f"/>
                            <IRI resource="https://ontology.security.amazon.dev/foundation/graph-structure/0b4eeac8-04e5-4e85-869c-bd56fb947b7b" property="http://www.w3.org/1999/02/22-rdf-syntax-ns#type"/>
                            <StringLiteral content="AWS Lambda(data aggregator)" property="http://www.w3.org/2000/01/rdf-schema#label"/>
                            <StringLiteral content="5cArx45BptmPlTDd3ijSc" property="https://ontology.security.amazon.dev/foundation/diagram-visualization/a2255956-c3df-4c2c-b489-c307f68abc97"/>
                        </SemanticDataContainer>
                    </ResourceDescriptor>
                </mxCell>
                <object label="" stencilType="generic-channel" id="KL7B_61rrhgrM1_wuw4B3-112">
                    <mxCell style="edgeStyle=orthogonalEdgeStyle;rounded=0;html=1;jettySize=auto;orthogonalLoop=1;strokeColor=#1A1A1A;" parent="uSThPKN0Iph8RpYOuWK1S-55" edge="1" rdfUpgraded="1" assetTypeVersion="3" pageId="gU8E3vsCLFC1tpfYn1Nnc">
                        <mxGeometry relative="1" as="geometry">
                            <mxPoint x="1708" y="346" as="targetPoint"/>
                            <mxPoint x="1842.700809177507" y="346" as="sourcePoint"/>
                        </mxGeometry>
                        <ResourceDescriptor resource="urn:x-design-inspector:v1:genid-01JKADFF7GS6SK544SHBPQECEW-KL7B_61rrhgrM1_wuw4B3-112" serialization-version="v0" as="resourceDescriptor">
                            <SemanticDataContainer serialization-version="v0">
                                <IRI resource="https://ontology.security.amazon.dev/foundation/graph-structure/65157620-74b7-470e-bd9d-b9bf56b6cb4b" property="http://www.w3.org/1999/02/22-rdf-syntax-ns#type"/>
                                <IRI resource="https://ontology.security.amazon.dev/design-inspector/components/84a80b5f-5642-4a17-9585-ebfdb65f4bec" property="https://ontology.security.amazon.dev/foundation/system-modeling/04539597-4283-4f65-8090-ae67f9d3e949"/>
                                <StringLiteral content="gU8E3vsCLFC1tpfYn1Nnc" property="https://ontology.security.amazon.dev/foundation/diagram-visualization/05cc531c-d241-49c3-80dc-bd3777c5426f"/>
                                <StringLiteral content="KL7B_61rrhgrM1_wuw4B3-112" property="https://ontology.security.amazon.dev/foundation/diagram-visualization/a2255956-c3df-4c2c-b489-c307f68abc97"/>
                            </SemanticDataContainer>
                        </ResourceDescriptor>
                    </mxCell>
                </object>
                <mxCell id="j4xIDLwzkUW08BQFTLQdl" value="AWS Lambda&lt;br&gt;(feature query)" style="shape=image;verticalLabelPosition=bottom;verticalAlign=top;aspect=fixed;imageAspect=0;image=data:image/svg+xml,PHN2ZyB4bWxucz0iaHR0cDovL3d3dy53My5vcmcvMjAwMC9zdmciIHhtbG5zOnhsaW5rPSJodHRwOi8vd3d3LnczLm9yZy8xOTk5L3hsaW5rIiB3aWR0aD0iODBweCIgaGVpZ2h0PSI4MHB4IiB2aWV3Qm94PSIwIDAgODAgODAiIHZlcnNpb249IjEuMSI+JiN4YTsgICAgPHRpdGxlPkljb24tQXJjaGl0ZWN0dXJlLzY0L0FyY2hfQVdTLUxhbWJkYV82NDwvdGl0bGU+JiN4YTsgICAgPGcgaWQ9Ikljb24tQXJjaGl0ZWN0dXJlLzY0L0FyY2hfQVdTLUxhbWJkYV82NCIgc3Ryb2tlPSJub25lIiBzdHJva2Utd2lkdGg9IjEiIGZpbGw9Im5vbmUiIGZpbGwtcnVsZT0iZXZlbm9kZCI+JiN4YTsgICAgICAgIDxnIGlkPSJJY29uLUFyY2hpdGVjdHVyZS1CRy82NC9Db21wdXRlIiBmaWxsPSIjRUQ3MTAwIj4mI3hhOyAgICAgICAgICAgIDxyZWN0IGlkPSJSZWN0YW5nbGUiIHg9IjAiIHk9IjAiIHdpZHRoPSI4MCIgaGVpZ2h0PSI4MCIvPiYjeGE7ICAgICAgICA8L2c+JiN4YTsgICAgICAgIDxwYXRoIGQ9Ik0yOC4wMDc1MzUyLDY2IEwxNS41OTA3Mjc0LDY2IEwyOS4zMjM1ODg1LDM3LjI5NiBMMzUuNTQ2MDI0OSw1MC4xMDYgTDI4LjAwNzUzNTIsNjYgWiBNMzAuMjE5NjY3NCwzNC41NTMgQzMwLjA1MTI3NjgsMzQuMjA4IDI5LjcwMDQ2MjksMzMuOTg5IDI5LjMxNzU3NDUsMzMuOTg5IEwyOS4zMTQ1Njc2LDMzLjk4OSBDMjguOTI4NjcyMywzMy45OSAyOC41Nzc4NTgzLDM0LjIxMSAyOC40MTI0NzQ2LDM0LjU1OCBMMTMuMDk3OTQ0LDY2LjU2OSBDMTIuOTQ5NTk5OSw2Ni44NzkgMTIuOTcwNjQ4Nyw2Ny4yNDMgMTMuMTU1MDc2Niw2Ny41MzQgQzEzLjMzNzQ5OTgsNjcuODI0IDEzLjY1ODI0MzksNjggMTQuMDAyMDQxNiw2OCBMMjguNjQyMDA3Miw2OCBDMjkuMDI5OTA3MSw2OCAyOS4zODE3MjM0LDY3Ljc3NyAyOS41NDgxMDk0LDY3LjQyOCBMMzcuNTYzNzA2LDUwLjUyOCBDMzcuNjkzMDA2LDUwLjI1NCAzNy42OTIwMDM3LDQ5LjkzNyAzNy41NTg2OTQ0LDQ5LjY2NSBMMzAuMjE5NjY3NCwzNC41NTMgWiBNNjQuOTk1MzQ5MSw2NiBMNTIuNjU4NzI3NCw2NiBMMzIuODY2ODA5LDI0LjU3IEMzMi43MDE0MjUzLDI0LjIyMiAzMi4zNDg2MDY3LDI0IDMxLjk2MTcwOTEsMjQgTDIzLjg4OTk4MjIsMjQgTDIzLjg5OTAwMzEsMTQgTDM5LjcxOTcwODEsMTQgTDU5LjQyMDQxNDksNTUuNDI5IEM1OS41ODU3OTg2LDU1Ljc3NyA1OS45Mzg2MTcyLDU2IDYwLjMyNTUxNDgsNTYgTDY0Ljk5NTM0OTEsNTYgTDY0Ljk5NTM0OTEsNjYgWiBNNjUuOTk3Njc0NSw1NCBMNjAuOTU5OTg2OCw1NCBMNDEuMjU5MjgsMTIuNTcxIEM0MS4wOTM4OTYzLDEyLjIyMyA0MC43NDEwNzc3LDEyIDQwLjM1MzE3NzgsMTIgTDIyLjg5NzY4LDEyIEMyMi4zNDUzOTg3LDEyIDIxLjg5NjM1NjksMTIuNDQ3IDIxLjg5NTM1NDUsMTIuOTk5IEwyMS44ODQzMjksMjQuOTk5IEMyMS44ODQzMjksMjUuMjY1IDIxLjk4ODU3MDgsMjUuNTE5IDIyLjE3ODAxMDMsMjUuNzA3IEMyMi4zNjU0NDUyLDI1Ljg5NSAyMi42MjAwMzU4LDI2IDIyLjg4NjY1NDQsMjYgTDMxLjMyOTI0MTcsMjYgTDUxLjEyMjE2MjUsNjcuNDMgQzUxLjI4ODU0ODUsNjcuNzc4IDUxLjYzOTM2MjQsNjggNTIuMDI2MjYsNjggTDY1Ljk5NzY3NDUsNjggQzY2LjU1MTk2MDUsNjggNjcsNjcuNTUyIDY3LDY3IEw2Nyw1NSBDNjcsNTQuNDQ4IDY2LjU1MTk2MDUsNTQgNjUuOTk3Njc0NSw1NCBMNjUuOTk3Njc0NSw1NCBaIiBpZD0iQVdTLUxhbWJkYV9JY29uXzY0X1NxdWlkIiBmaWxsPSIjRkZGRkZGIi8+JiN4YTsgICAgPC9nPiYjeGE7PC9zdmc+;html=1;fontColor=#1A1A1A;" parent="uSThPKN0Iph8RpYOuWK1S-55" vertex="1" rdfUpgraded="1" assetTypeVersion="3">
                    <mxGeometry x="1478.5" y="306" width="80" height="80" as="geometry"/>
                    <ResourceDescriptor resource="urn:x-design-inspector:v1:genid-01JKADFF7GS6SK544SHBPQECEW-j4xIDLwzkUW08BQFTLQdl" serialization-version="v0" as="resourceDescriptor">
                        <SemanticDataContainer serialization-version="v0">
                            <IRI resource="https://ontology.security.amazon.dev/design-inspector/stencils" property="http://www.w3.org/2000/01/rdf-schema#isDefinedBy"/>
                            <IRI resource="https://ontology.security.amazon.dev/design-inspector/components/a6d09c9e-ce9f-476b-b0b3-62337d1b24e0" property="https://ontology.security.amazon.dev/foundation/system-modeling/04539597-4283-4f65-8090-ae67f9d3e949"/>
                            <StringLiteral content="gU8E3vsCLFC1tpfYn1Nnc" property="https://ontology.security.amazon.dev/foundation/diagram-visualization/05cc531c-d241-49c3-80dc-bd3777c5426f"/>
                            <IRI resource="https://ontology.security.amazon.dev/foundation/graph-structure/0b4eeac8-04e5-4e85-869c-bd56fb947b7b" property="http://www.w3.org/1999/02/22-rdf-syntax-ns#type"/>
                            <StringLiteral content="AWS Lambda(feature query)" property="http://www.w3.org/2000/01/rdf-schema#label"/>
                            <StringLiteral content="j4xIDLwzkUW08BQFTLQdl" property="https://ontology.security.amazon.dev/foundation/diagram-visualization/a2255956-c3df-4c2c-b489-c307f68abc97"/>
                        </SemanticDataContainer>
                    </ResourceDescriptor>
                </mxCell>
                <object label="" stencilType="generic-channel" id="KL7B_61rrhgrM1_wuw4B3-113">
                    <mxCell style="edgeStyle=orthogonalEdgeStyle;rounded=0;html=1;jettySize=auto;orthogonalLoop=1;fontColor=#1A1A1A;strokeColor=#1A1A1A;" parent="uSThPKN0Iph8RpYOuWK1S-55" source="-e81JkhPPpp0aCVqSsn1D" target="j4xIDLwzkUW08BQFTLQdl" edge="1" rdfUpgraded="1" assetTypeVersion="3" pageId="gU8E3vsCLFC1tpfYn1Nnc">
                        <mxGeometry relative="1" as="geometry"/>
                        <ResourceDescriptor resource="urn:x-design-inspector:v1:genid-01JKADFF7GS6SK544SHBPQECEW-KL7B_61rrhgrM1_wuw4B3-113" serialization-version="v0" as="resourceDescriptor">
                            <SemanticDataContainer serialization-version="v0">
                                <StringLiteral content="gU8E3vsCLFC1tpfYn1Nnc" property="https://ontology.security.amazon.dev/foundation/diagram-visualization/05cc531c-d241-49c3-80dc-bd3777c5426f"/>
                                <IRI resource="urn:x-design-inspector:v1:genid-01JKADFF7GS6SK544SHBPQECEW--e81JkhPPpp0aCVqSsn1D" property="https://ontology.security.amazon.dev/foundation/graph-structure/d1fc066e-3862-4ae0-8304-6cef42f40a50"/>
                                <IRI resource="https://ontology.security.amazon.dev/design-inspector/components/84a80b5f-5642-4a17-9585-ebfdb65f4bec" property="https://ontology.security.amazon.dev/foundation/system-modeling/04539597-4283-4f65-8090-ae67f9d3e949"/>
                                <IRI resource="https://ontology.security.amazon.dev/foundation/graph-structure/65157620-74b7-470e-bd9d-b9bf56b6cb4b" property="http://www.w3.org/1999/02/22-rdf-syntax-ns#type"/>
                                <StringLiteral content="KL7B_61rrhgrM1_wuw4B3-113" property="https://ontology.security.amazon.dev/foundation/diagram-visualization/a2255956-c3df-4c2c-b489-c307f68abc97"/>
                                <IRI resource="urn:x-design-inspector:v1:genid-01JKADFF7GS6SK544SHBPQECEW-j4xIDLwzkUW08BQFTLQdl" property="https://ontology.security.amazon.dev/foundation/graph-structure/617be0ed-cf17-4a01-a75d-81ed3a472532"/>
                            </SemanticDataContainer>
                        </ResourceDescriptor>
                    </mxCell>
                </object>
                <mxCell id="-e81JkhPPpp0aCVqSsn1D" value="Amazon API Gateway" style="shape=image;verticalLabelPosition=bottom;verticalAlign=top;aspect=fixed;imageAspect=0;image=data:image/svg+xml,PHN2ZyB4bWxucz0iaHR0cDovL3d3dy53My5vcmcvMjAwMC9zdmciIHhtbG5zOnhsaW5rPSJodHRwOi8vd3d3LnczLm9yZy8xOTk5L3hsaW5rIiB3aWR0aD0iODBweCIgaGVpZ2h0PSI4MHB4IiB2aWV3Qm94PSIwIDAgODAgODAiIHZlcnNpb249IjEuMSI+JiN4YTsgICAgPHRpdGxlPkljb24tQXJjaGl0ZWN0dXJlLzY0L0FyY2hfQW1hem9uLUFQSS1HYXRld2F5XzY0PC90aXRsZT4mI3hhOyAgICA8ZyBpZD0iSWNvbi1BcmNoaXRlY3R1cmUvNjQvQXJjaF9BbWF6b24tQVBJLUdhdGV3YXlfNjQiIHN0cm9rZT0ibm9uZSIgc3Ryb2tlLXdpZHRoPSIxIiBmaWxsPSJub25lIiBmaWxsLXJ1bGU9ImV2ZW5vZGQiPiYjeGE7ICAgICAgICA8ZyBpZD0iSWNvbi1BcmNoaXRlY3R1cmUtQkcvNjQvQXBwbGljYXRpb24tSW50ZWdyYXRpb24iIGZpbGw9IiNFNzE1N0IiPiYjeGE7ICAgICAgICAgICAgPHJlY3QgaWQ9IlJlY3RhbmdsZSIgeD0iMCIgeT0iMCIgd2lkdGg9IjgwIiBoZWlnaHQ9IjgwIi8+JiN4YTsgICAgICAgIDwvZz4mI3hhOyAgICAgICAgPGcgaWQ9Ikljb24tU2VydmljZS82NC9BbWF6b24tQVBJLUdhdGV3YXlfNjQiIHRyYW5zZm9ybT0idHJhbnNsYXRlKDEyLjAwMDAwMCwgMTIuMDAwMDAwKSIgZmlsbD0iI0ZGRkZGRiI+JiN4YTsgICAgICAgICAgICA8cGF0aCBkPSJNMjIuMDY1LDQzLjYzMjM2NDIgTDI1LDQzLjYzMjM2NDIgTDI1LDQxLjYxNTI5ODkgTDIyLjA2NSw0MS42MTUyOTg5IEwyMi4wNjUsNDMuNjMyMzY0MiBaIE0yNyw0My42MzIzNjQyIEwzMCw0My42MzIzNjQyIEwzMCw0MS42MTUyOTg5IEwyNyw0MS42MTUyOTg5IEwyNyw0My42MzIzNjQyIFogTTE1LDIuNjI5NDYxMTIgTDIsOS4wODIwNTI5NiBMMiw0OS4xOTM0MTMyIEwxNSw1My41ODk2MDcgTDE1LDIuNjI5NDYxMTIgWiBNMTcsMTUuMzkzNDUwMiBMMTcsNDEuNjE1Mjk4OSBMMjAsNDEuNjE1Mjk4OSBMMjAsNDMuNjMyMzY0MiBMMTcsNDMuNjMyMzY0MiBMMTcsNTQuOTkxNDY3NCBDMTcsNTUuMzE2MjE0OSAxNi44NDUsNTUuNjIwNzkxNyAxNi41ODQsNTUuODEwMzk1OSBDMTYuNDEyLDU1LjkzNTQ1MzkgMTYuMjA3LDU2IDE2LDU2IEMxNS44OTQsNTYgMTUuNzg2LDU1Ljk4Mjg1NDkgMTUuNjgyLDU1Ljk0NzU1NjMgTDAuNjgyLDUwLjg3NTY0NTYgQzAuMjc0LDUwLjczNzQ3NjcgMCw1MC4zNTIyMTcyIDAsNDkuOTE5NTU2NyBMMCw4LjQ1MzczNzEzIEMwLDguMDcwNDk0NzIgMC4yMTcsNy43MTg1MTY4MyAwLjU1OSw3LjU0OTA4MzM1IEwxNS41NTksMC4xMDQwOTUzODYgQzE1Ljg2OCwtMC4wNTAyMTAxMDggMTYuMjM1LC0wLjAzMjA1NjUyMDUgMTYuNTI4LDAuMTUyNTA0OTUzIEMxNi44MjEsMC4zMzYwNTc4OTQgMTcsMC42NTk3OTY4NzIgMTcsMS4wMDg3NDkxNyBMMTcsMTMuMzc2Mzg1IEwyMCwxMy4zNzYzODUgTDIwLDE1LjM5MzQ1MDIgTDE3LDE1LjM5MzQ1MDIgWiBNMzIsNDMuNjMyMzY0MiBMMzUsNDMuNjMyMzY0MiBMMzUsNDEuNjE1Mjk4OSBMMzIsNDEuNjE1Mjk4OSBMMzIsNDMuNjMyMzY0MiBaIE0zMi4wNjUsMTUuMzkzNDUwMiBMMzUsMTUuMzkzNDUwMiBMMzUsMTMuMzc2Mzg1IEwzMi4wNjUsMTMuMzc2Mzg1IEwzMi4wNjUsMTUuMzkzNDUwMiBaIE0yNy4wNjUsMTUuMzkzNDUwMiBMMzAsMTUuMzkzNDUwMiBMMzAsMTMuMzc2Mzg1IEwyNy4wNjUsMTMuMzc2Mzg1IEwyNy4wNjUsMTUuMzkzNDUwMiBaIE0yMi4wNjUsMTUuMzkzNDUwMiBMMjUsMTUuMzkzNDUwMiBMMjUsMTMuMzc2Mzg1IEwyMi4wNjUsMTMuMzc2Mzg1IEwyMi4wNjUsMTUuMzkzNDUwMiBaIE01NCw5LjA4MjA1Mjk2IEw0MSwyLjYyOTQ2MTEyIEw0MSw1My41ODk2MDcgTDU0LDQ5LjE5MzQxMzIgTDU0LDkuMDgyMDUyOTYgWiBNNTYsNDkuOTE5NTU2NyBDNTYsNTAuMzUyMjE3MiA1NS43MjYsNTAuNzM3NDc2NyA1NS4zMTgsNTAuODc1NjQ1NiBMNDAuMzE4LDU1Ljk0NzU1NjMgQzQwLjIxNCw1NS45ODI4NTQ5IDQwLjEwNiw1NiA0MCw1NiBDMzkuNzkzLDU2IDM5LjU4OCw1NS45MzU0NTM5IDM5LjQxNiw1NS44MTAzOTU5IEMzOS4xNTUsNTUuNjIwNzkxNyAzOSw1NS4zMTYyMTQ5IDM5LDU0Ljk5MTQ2NzQgTDM5LDQzLjYzMjM2NDIgTDM3LjA2NSw0My42MzIzNjQyIEwzNy4wNjUsNDEuNjE1Mjk4OSBMMzksNDEuNjE1Mjk4OSBMMzksMTUuMzkzNDUwMiBMMzcuMDY1LDE1LjM5MzQ1MDIgTDM3LjA2NSwxMy4zNzYzODUgTDM5LDEzLjM3NjM4NSBMMzksMS4wMDg3NDkxNyBDMzksMC42NTk3OTY4NzIgMzkuMTc5LDAuMzM2MDU3ODk0IDM5LjQ3MiwwLjE1MjUwNDk1MyBDMzkuNzY1LC0wLjAzMjA1NjUyMDUgNDAuMTMxLC0wLjA1MDIxMDEwOCA0MC40NDEsMC4xMDQwOTUzODYgTDU1LjQ0MSw3LjU0OTA4MzM1IEM1NS43ODMsNy43MTg1MTY4MyA1Niw4LjA3MDQ5NDcyIDU2LDguNDUzNzM3MTMgTDU2LDQ5LjkxOTU1NjcgWiBNMzAuOTM0LDIxLjgwNjcwOTMgTDI5LjA2NiwyMS4wODI1ODI5IEwyNC4wNjYsMzQuMTkzNTA3MiBMMjUuOTM0LDM0LjkxNzYzMzcgTDMwLjkzNCwyMS44MDY3MDkzIFogTTM3LjcwNywyOC4yMDg4NzQ1IEMzOC4wOTgsMjcuODE0NTM4MyAzOC4wOTgsMjcuMTc2MTM3MSAzNy43MDcsMjYuNzgyODA5NCBMMzMuNzA3LDIyLjc0ODY3ODggTDMyLjI5MywyNC4xNzQ3NDQgTDM1LjU4NiwyNy40OTU4NDE5IEwzMi4yOTMsMzAuODE2OTM5OSBMMzMuNzA3LDMyLjI0MzAwNTEgTDM3LjcwNywyOC4yMDg4NzQ1IFogTTIyLjI5MywzMi4yNDMwMDUxIEwxOC4yOTMsMjguMjA4ODc0NSBDMTcuOTAyLDI3LjgxNDUzODMgMTcuOTAyLDI3LjE3NjEzNzEgMTguMjkzLDI2Ljc4MjgwOTQgTDIyLjI5MywyMi43NDg2Nzg4IEwyMy43MDcsMjQuMTc0NzQ0IEwyMC40MTQsMjcuNDk1ODQxOSBMMjMuNzA3LDMwLjgxNjkzOTkgTDIyLjI5MywzMi4yNDMwMDUxIFoiIGlkPSJBbWF6b24tQVBJLUdhdGV3YXlfSWNvbl82NF9TcXVpZCIvPiYjeGE7ICAgICAgICA8L2c+JiN4YTsgICAgPC9nPiYjeGE7PC9zdmc+;html=1;fontColor=#1A1A1A;" parent="uSThPKN0Iph8RpYOuWK1S-55" vertex="1" rdfUpgraded="1" assetTypeVersion="3">
                    <mxGeometry x="1628" y="306" width="80" height="80" as="geometry"/>
                    <ResourceDescriptor resource="urn:x-design-inspector:v1:genid-01JKADFF7GS6SK544SHBPQECEW--e81JkhPPpp0aCVqSsn1D" serialization-version="v0" as="resourceDescriptor">
                        <SemanticDataContainer serialization-version="v0">
                            <IRI resource="https://ontology.security.amazon.dev/design-inspector/stencils" property="http://www.w3.org/2000/01/rdf-schema#isDefinedBy"/>
                            <IRI resource="https://ontology.security.amazon.dev/design-inspector/components/d63f502f-325b-4bfa-86fe-56e4d2afcb99" property="https://ontology.security.amazon.dev/foundation/system-modeling/04539597-4283-4f65-8090-ae67f9d3e949"/>
                            <StringLiteral content="gU8E3vsCLFC1tpfYn1Nnc" property="https://ontology.security.amazon.dev/foundation/diagram-visualization/05cc531c-d241-49c3-80dc-bd3777c5426f"/>
                            <IRI resource="https://ontology.security.amazon.dev/foundation/graph-structure/0b4eeac8-04e5-4e85-869c-bd56fb947b7b" property="http://www.w3.org/1999/02/22-rdf-syntax-ns#type"/>
                            <StringLiteral content="Amazon API Gateway" property="http://www.w3.org/2000/01/rdf-schema#label"/>
                            <StringLiteral content="-e81JkhPPpp0aCVqSsn1D" property="https://ontology.security.amazon.dev/foundation/diagram-visualization/a2255956-c3df-4c2c-b489-c307f68abc97"/>
                        </SemanticDataContainer>
                    </ResourceDescriptor>
                </mxCell>
                <object label="" stencilType="generic-channel" id="KL7B_61rrhgrM1_wuw4B3-115">
                    <mxCell style="edgeStyle=orthogonalEdgeStyle;rounded=0;html=1;jettySize=auto;orthogonalLoop=1;fontColor=#1A1A1A;strokeColor=#1A1A1A;" parent="uSThPKN0Iph8RpYOuWK1S-55" source="-w1DkmiDP8R5pmZpusb-d" target="CKJw5TeKA_ZPZOAFekmqS" edge="1" rdfUpgraded="1" assetTypeVersion="3" pageId="gU8E3vsCLFC1tpfYn1Nnc">
                        <mxGeometry relative="1" as="geometry"/>
                        <ResourceDescriptor resource="urn:x-design-inspector:v1:genid-01JKADFF7GS6SK544SHBPQECEW-KL7B_61rrhgrM1_wuw4B3-115" serialization-version="v0" as="resourceDescriptor">
                            <SemanticDataContainer serialization-version="v0">
                                <IRI resource="urn:x-design-inspector:v1:genid-01JKADFF7GS6SK544SHBPQECEW--w1DkmiDP8R5pmZpusb-d" property="https://ontology.security.amazon.dev/foundation/graph-structure/d1fc066e-3862-4ae0-8304-6cef42f40a50"/>
                                <IRI resource="https://ontology.security.amazon.dev/design-inspector/components/84a80b5f-5642-4a17-9585-ebfdb65f4bec" property="https://ontology.security.amazon.dev/foundation/system-modeling/04539597-4283-4f65-8090-ae67f9d3e949"/>
                                <StringLiteral content="gU8E3vsCLFC1tpfYn1Nnc" property="https://ontology.security.amazon.dev/foundation/diagram-visualization/05cc531c-d241-49c3-80dc-bd3777c5426f"/>
                                <IRI resource="https://ontology.security.amazon.dev/foundation/graph-structure/65157620-74b7-470e-bd9d-b9bf56b6cb4b" property="http://www.w3.org/1999/02/22-rdf-syntax-ns#type"/>
                                <StringLiteral content="KL7B_61rrhgrM1_wuw4B3-115" property="https://ontology.security.amazon.dev/foundation/diagram-visualization/a2255956-c3df-4c2c-b489-c307f68abc97"/>
                                <IRI resource="urn:x-design-inspector:v1:genid-01JKADFF7GS6SK544SHBPQECEW-CKJw5TeKA_ZPZOAFekmqS" property="https://ontology.security.amazon.dev/foundation/graph-structure/617be0ed-cf17-4a01-a75d-81ed3a472532"/>
                            </SemanticDataContainer>
                        </ResourceDescriptor>
                    </mxCell>
                </object>
                <mxCell id="-w1DkmiDP8R5pmZpusb-d" value="AWS Lambda&lt;br&gt;(DDB stream event)" style="shape=image;verticalLabelPosition=bottom;verticalAlign=top;aspect=fixed;imageAspect=0;image=data:image/svg+xml,PHN2ZyB4bWxucz0iaHR0cDovL3d3dy53My5vcmcvMjAwMC9zdmciIHhtbG5zOnhsaW5rPSJodHRwOi8vd3d3LnczLm9yZy8xOTk5L3hsaW5rIiB3aWR0aD0iODBweCIgaGVpZ2h0PSI4MHB4IiB2aWV3Qm94PSIwIDAgODAgODAiIHZlcnNpb249IjEuMSI+JiN4YTsgICAgPHRpdGxlPkljb24tQXJjaGl0ZWN0dXJlLzY0L0FyY2hfQVdTLUxhbWJkYV82NDwvdGl0bGU+JiN4YTsgICAgPGcgaWQ9Ikljb24tQXJjaGl0ZWN0dXJlLzY0L0FyY2hfQVdTLUxhbWJkYV82NCIgc3Ryb2tlPSJub25lIiBzdHJva2Utd2lkdGg9IjEiIGZpbGw9Im5vbmUiIGZpbGwtcnVsZT0iZXZlbm9kZCI+JiN4YTsgICAgICAgIDxnIGlkPSJJY29uLUFyY2hpdGVjdHVyZS1CRy82NC9Db21wdXRlIiBmaWxsPSIjRUQ3MTAwIj4mI3hhOyAgICAgICAgICAgIDxyZWN0IGlkPSJSZWN0YW5nbGUiIHg9IjAiIHk9IjAiIHdpZHRoPSI4MCIgaGVpZ2h0PSI4MCIvPiYjeGE7ICAgICAgICA8L2c+JiN4YTsgICAgICAgIDxwYXRoIGQ9Ik0yOC4wMDc1MzUyLDY2IEwxNS41OTA3Mjc0LDY2IEwyOS4zMjM1ODg1LDM3LjI5NiBMMzUuNTQ2MDI0OSw1MC4xMDYgTDI4LjAwNzUzNTIsNjYgWiBNMzAuMjE5NjY3NCwzNC41NTMgQzMwLjA1MTI3NjgsMzQuMjA4IDI5LjcwMDQ2MjksMzMuOTg5IDI5LjMxNzU3NDUsMzMuOTg5IEwyOS4zMTQ1Njc2LDMzLjk4OSBDMjguOTI4NjcyMywzMy45OSAyOC41Nzc4NTgzLDM0LjIxMSAyOC40MTI0NzQ2LDM0LjU1OCBMMTMuMDk3OTQ0LDY2LjU2OSBDMTIuOTQ5NTk5OSw2Ni44NzkgMTIuOTcwNjQ4Nyw2Ny4yNDMgMTMuMTU1MDc2Niw2Ny41MzQgQzEzLjMzNzQ5OTgsNjcuODI0IDEzLjY1ODI0MzksNjggMTQuMDAyMDQxNiw2OCBMMjguNjQyMDA3Miw2OCBDMjkuMDI5OTA3MSw2OCAyOS4zODE3MjM0LDY3Ljc3NyAyOS41NDgxMDk0LDY3LjQyOCBMMzcuNTYzNzA2LDUwLjUyOCBDMzcuNjkzMDA2LDUwLjI1NCAzNy42OTIwMDM3LDQ5LjkzNyAzNy41NTg2OTQ0LDQ5LjY2NSBMMzAuMjE5NjY3NCwzNC41NTMgWiBNNjQuOTk1MzQ5MSw2NiBMNTIuNjU4NzI3NCw2NiBMMzIuODY2ODA5LDI0LjU3IEMzMi43MDE0MjUzLDI0LjIyMiAzMi4zNDg2MDY3LDI0IDMxLjk2MTcwOTEsMjQgTDIzLjg4OTk4MjIsMjQgTDIzLjg5OTAwMzEsMTQgTDM5LjcxOTcwODEsMTQgTDU5LjQyMDQxNDksNTUuNDI5IEM1OS41ODU3OTg2LDU1Ljc3NyA1OS45Mzg2MTcyLDU2IDYwLjMyNTUxNDgsNTYgTDY0Ljk5NTM0OTEsNTYgTDY0Ljk5NTM0OTEsNjYgWiBNNjUuOTk3Njc0NSw1NCBMNjAuOTU5OTg2OCw1NCBMNDEuMjU5MjgsMTIuNTcxIEM0MS4wOTM4OTYzLDEyLjIyMyA0MC43NDEwNzc3LDEyIDQwLjM1MzE3NzgsMTIgTDIyLjg5NzY4LDEyIEMyMi4zNDUzOTg3LDEyIDIxLjg5NjM1NjksMTIuNDQ3IDIxLjg5NTM1NDUsMTIuOTk5IEwyMS44ODQzMjksMjQuOTk5IEMyMS44ODQzMjksMjUuMjY1IDIxLjk4ODU3MDgsMjUuNTE5IDIyLjE3ODAxMDMsMjUuNzA3IEMyMi4zNjU0NDUyLDI1Ljg5NSAyMi42MjAwMzU4LDI2IDIyLjg4NjY1NDQsMjYgTDMxLjMyOTI0MTcsMjYgTDUxLjEyMjE2MjUsNjcuNDMgQzUxLjI4ODU0ODUsNjcuNzc4IDUxLjYzOTM2MjQsNjggNTIuMDI2MjYsNjggTDY1Ljk5NzY3NDUsNjggQzY2LjU1MTk2MDUsNjggNjcsNjcuNTUyIDY3LDY3IEw2Nyw1NSBDNjcsNTQuNDQ4IDY2LjU1MTk2MDUsNTQgNjUuOTk3Njc0NSw1NCBMNjUuOTk3Njc0NSw1NCBaIiBpZD0iQVdTLUxhbWJkYV9JY29uXzY0X1NxdWlkIiBmaWxsPSIjRkZGRkZGIi8+JiN4YTsgICAgPC9nPiYjeGE7PC9zdmc+;html=1;fontColor=#1A1A1A;" parent="uSThPKN0Iph8RpYOuWK1S-55" vertex="1" rdfUpgraded="1" assetTypeVersion="3">
                    <mxGeometry x="407" y="306" width="80" height="80" as="geometry"/>
                    <ResourceDescriptor resource="urn:x-design-inspector:v1:genid-01JKADFF7GS6SK544SHBPQECEW--w1DkmiDP8R5pmZpusb-d" serialization-version="v0" as="resourceDescriptor">
                        <SemanticDataContainer serialization-version="v0">
                            <IRI resource="https://ontology.security.amazon.dev/design-inspector/stencils" property="http://www.w3.org/2000/01/rdf-schema#isDefinedBy"/>
                            <IRI resource="https://ontology.security.amazon.dev/design-inspector/components/a6d09c9e-ce9f-476b-b0b3-62337d1b24e0" property="https://ontology.security.amazon.dev/foundation/system-modeling/04539597-4283-4f65-8090-ae67f9d3e949"/>
                            <StringLiteral content="gU8E3vsCLFC1tpfYn1Nnc" property="https://ontology.security.amazon.dev/foundation/diagram-visualization/05cc531c-d241-49c3-80dc-bd3777c5426f"/>
                            <IRI resource="https://ontology.security.amazon.dev/foundation/graph-structure/0b4eeac8-04e5-4e85-869c-bd56fb947b7b" property="http://www.w3.org/1999/02/22-rdf-syntax-ns#type"/>
                            <StringLiteral content="AWS Lambda(DDB stream event)" property="http://www.w3.org/2000/01/rdf-schema#label"/>
                            <StringLiteral content="-w1DkmiDP8R5pmZpusb-d" property="https://ontology.security.amazon.dev/foundation/diagram-visualization/a2255956-c3df-4c2c-b489-c307f68abc97"/>
                        </SemanticDataContainer>
                    </ResourceDescriptor>
                </mxCell>
                <object label="" stencilType="generic-channel" id="KL7B_61rrhgrM1_wuw4B3-116">
                    <mxCell style="edgeStyle=orthogonalEdgeStyle;rounded=0;html=1;jettySize=auto;orthogonalLoop=1;fontColor=#1A1A1A;strokeColor=#1A1A1A;" parent="uSThPKN0Iph8RpYOuWK1S-55" source="yG4xa0orhQasgvYNhj5px" target="-w1DkmiDP8R5pmZpusb-d" edge="1" rdfUpgraded="1" assetTypeVersion="3" pageId="gU8E3vsCLFC1tpfYn1Nnc">
                        <mxGeometry relative="1" as="geometry"/>
                        <ResourceDescriptor resource="urn:x-design-inspector:v1:genid-01JKADFF7GS6SK544SHBPQECEW-KL7B_61rrhgrM1_wuw4B3-116" serialization-version="v0" as="resourceDescriptor">
                            <SemanticDataContainer serialization-version="v0">
                                <IRI resource="urn:x-design-inspector:v1:genid-01JKADFF7GS6SK544SHBPQECEW-yG4xa0orhQasgvYNhj5px" property="https://ontology.security.amazon.dev/foundation/graph-structure/d1fc066e-3862-4ae0-8304-6cef42f40a50"/>
                                <IRI resource="https://ontology.security.amazon.dev/design-inspector/components/84a80b5f-5642-4a17-9585-ebfdb65f4bec" property="https://ontology.security.amazon.dev/foundation/system-modeling/04539597-4283-4f65-8090-ae67f9d3e949"/>
                                <StringLiteral content="gU8E3vsCLFC1tpfYn1Nnc" property="https://ontology.security.amazon.dev/foundation/diagram-visualization/05cc531c-d241-49c3-80dc-bd3777c5426f"/>
                                <IRI resource="https://ontology.security.amazon.dev/foundation/graph-structure/65157620-74b7-470e-bd9d-b9bf56b6cb4b" property="http://www.w3.org/1999/02/22-rdf-syntax-ns#type"/>
                                <StringLiteral content="KL7B_61rrhgrM1_wuw4B3-116" property="https://ontology.security.amazon.dev/foundation/diagram-visualization/a2255956-c3df-4c2c-b489-c307f68abc97"/>
                                <IRI resource="urn:x-design-inspector:v1:genid-01JKADFF7GS6SK544SHBPQECEW--w1DkmiDP8R5pmZpusb-d" property="https://ontology.security.amazon.dev/foundation/graph-structure/617be0ed-cf17-4a01-a75d-81ed3a472532"/>
                            </SemanticDataContainer>
                        </ResourceDescriptor>
                    </mxCell>
                </object>
                <mxCell id="yG4xa0orhQasgvYNhj5px" value="Amazon DynamoDB&lt;br&gt;(data source)" style="shape=image;verticalLabelPosition=bottom;verticalAlign=top;aspect=fixed;imageAspect=0;image=data:image/svg+xml,PHN2ZyB4bWxucz0iaHR0cDovL3d3dy53My5vcmcvMjAwMC9zdmciIHhtbG5zOnhsaW5rPSJodHRwOi8vd3d3LnczLm9yZy8xOTk5L3hsaW5rIiB3aWR0aD0iODBweCIgaGVpZ2h0PSI4MHB4IiB2aWV3Qm94PSIwIDAgODAgODAiIHZlcnNpb249IjEuMSI+JiN4YTsgICAgPHRpdGxlPkljb24tQXJjaGl0ZWN0dXJlLzY0L0FyY2hfQW1hem9uLURvY3VtZW50REJfNjQ8L3RpdGxlPiYjeGE7ICAgIDxnIGlkPSJJY29uLUFyY2hpdGVjdHVyZS82NC9BcmNoX0FtYXpvbi1Eb2N1bWVudERCXzY0IiBzdHJva2U9Im5vbmUiIHN0cm9rZS13aWR0aD0iMSIgZmlsbD0ibm9uZSIgZmlsbC1ydWxlPSJldmVub2RkIj4mI3hhOyAgICAgICAgPGcgaWQ9Ikljb24tQXJjaGl0ZWN0dXJlLUJHLzY0L0RhdGFiYXNlIiBmaWxsPSIjQzkyNUQxIj4mI3hhOyAgICAgICAgICAgIDxyZWN0IGlkPSJSZWN0YW5nbGUiIHg9IjAiIHk9IjAiIHdpZHRoPSI4MCIgaGVpZ2h0PSI4MCIvPiYjeGE7ICAgICAgICA8L2c+JiN4YTsgICAgICAgIDxwYXRoIGQ9Ik0zNC41LDEzLjk5MjgzMjggQzQ0LjgxMywxMy45OTI4MzI4IDUyLDE3LjE0MzUwMTQgNTIsMTkuOTcxMzMxMiBDNTIsMjIuNzk5MTYwOSA0NC44MTMsMjUuOTQ5ODI5NiAzNC41LDI1Ljk0OTgyOTYgQzI0LjE4NywyNS45NDk4Mjk2IDE3LDIyLjc5OTE2MDkgMTcsMTkuOTcxMzMxMiBDMTcsMTcuMTQzNTAxNCAyNC4xODcsMTMuOTkyODMyOCAzNC41LDEzLjk5MjgzMjggTDM0LjUsMTMuOTkyODMyOCBaIE0zNC4yOTUsNjcuMDA3MTY3MiBDMjQuMTAzLDY3LjAwNzE2NzIgMTcsNjMuNzg3NzQ1OCAxNyw2MC44OTkxMzQ3IEwxNyw1Mi4yMTIzNzY1IEMyMC4xMjEsNTQuODI0OTgwMyAyNi40NzIsNTYuNTM4ODE2NSAzNC4xNjEsNTYuNTM4ODE2NSBDMzUuOTM0LDU2LjUzODgxNjUgMzcuNzE4LDU2LjQ0MDE3MTMgMzkuNDY1LDU2LjI0Njg2NjUgTDM5LjI0NCw1NC4yNjU5OTA3IEMzNy41Nyw1NC40NTEzMjQyIDM1Ljg1OSw1NC41NDU5ODM3IDM0LjE2MSw1NC41NDU5ODM3IEMyNC42NDYsNTQuNTQ1OTgzNyAxNy44Myw1MS43MjQxMzI1IDE3LDQ4Ljk5Mjk1NTIgTDE3LDM4LjI1NTU3MjEgQzIwLjEyMSw0MC44NjgxNzU5IDI2LjQ3Miw0Mi41ODEwMTU2IDM0LjE2MSw0Mi41ODEwMTU2IEMzNS45NzEsNDIuNTgxMDE1NiAzNy43NTcsNDIuNDgxMzc0IDM5LjQ2OSw0Mi4yODQwODM2IEwzOS4yNCw0MC4zMDUyMDA2IEMzNy42MDMsNDAuNDkzNTIzMyAzNS44OTUsNDAuNTg4MTgyOSAzNC4xNjEsNDAuNTg4MTgyOSBDMjQuNjQ2LDQwLjU4ODE4MjkgMTcuODMsMzcuNzY3MzI4IDE3LDM1LjAzNjE1MDcgTDE3LDIzLjU1NDQ0NDUgQzE5Ljg3OSwyNi4wMTI2MDM4IDI1LjgxOCwyNy45NDI2NjI0IDM0LjUsMjcuOTQyNjYyNCBDNDMuMTgyLDI3Ljk0MjY2MjQgNDkuMTIxLDI2LjAxMjYwMzggNTIsMjMuNTU0NDQ0NSBMNTIsMjYuOTQ2MjQ2IEw1NCwyNi45NDYyNDYgTDU0LDE5Ljk3MTMzMTIgQzU0LDE2LjEwNzIyODQgNDcuMTY2LDEyIDM0LjUsMTIgQzIxLjgzNCwxMiAxNSwxNi4xMDcyMjg0IDE1LDE5Ljk3MTMzMTIgTDE1LDYwLjg5OTEzNDcgQzE1LDY1LjUxNjUyODMgMjMuMjk1LDY5IDM0LjI5NSw2OSBDNDMuMTMsNjkgNTAuNTkyLDY2LjY2OTM4MiA1Mi44NjMsNjMuMjAxODUzIEw1MS4xODcsNjIuMTEyNzY5OSBDNDkuNTk1LDY0LjU0NTAyMjMgNDMuMjgxLDY3LjAwNzE2NzIgMzQuMjk1LDY3LjAwNzE2NzIgTDM0LjI5NSw2Ny4wMDcxNjcyIFogTTU4LjIwNyw0Mi4xNjc1MDI4IEM1OC43Nyw0Mi4xNjc1MDI4IDU5LjI2Nyw0Mi4zOTE2OTY1IDU5LjYwNiw0Mi44MDAyMjczIEM2MC4yMyw0My41NDc1Mzk2IDYwLjEyOSw0NC42Nzk0Njg2IDYwLjA2OCw0NS4wODAwMjggQzYwLjA5Nyw0Ny4xODY0NTIyIDYxLjI2LDQ3LjU5Nzk3MjIgNjEuMzk1LDQ3LjYzODgyNTMgQzYxLjgyNSw0Ny43NjgzNTk0IDYyLjEyOCw0OC4xNzE5MDggNjIuMTE3LDQ4LjYyMDI5NTQgQzYyLjEwNiw0OS4wNjg2ODI4IDYxLjgwOSw0OS40NTcyODUyIDYxLjM3Miw0OS41NjU4OTQ2IEM2MS4yNTksNDkuNjAwNzY5MiA2MC4wNjcsNTAuMDIyMjUzMyA2MC4wNjcsNTIuMTk2NDMzOSBDNjAuMDksNTMuMzY5MjE2IDU5LjUyNyw1NC42Njk1Mzk0IDU4LjIzNyw1NC43MDgzOTk2IEw1Ny40NjksNTQuNzA4Mzk5NiBMNTcuNDY5LDUyLjcxNTU2NjggTDU3Ljk5Nyw1Mi43MTU1NjY4IEM1OC4wMzcsNTIuNTgzMDQzNCA1OC4wNjgsNTIuMzc0NzkyNCA1OC4wNjcsNTIuMjEwMzgzNyBDNTguMDY3LDUwLjM5MTkyMzggNTguNjc3LDQ5LjI3NDk0MSA1OS4zMjksNDguNjAwMzY3MSBDNTguNjc3LDQ3LjkyNjc4OTYgNTguMDY3LDQ2LjgxMjc5NjEgNTguMDY3LDQ1LjAwMTMxMTEgQzU4LjA2Nyw0NC45NDA1Mjk3IDU4LjA3Myw0NC44Nzg3NTE5IDU4LjA4NCw0NC44MTg5NjY5IEM1OC4xMjIsNDQuNjA0NzM3MyA1OC4xMjIsNDQuMzIzNzQ3OSA1OC4wOSw0NC4xNjAzMzU2IEw1Ny40NjksNDQuMTYwMzM1NiBMNTcuNDY5LDQyLjE2NzUwMjggTDU4LjIwNyw0Mi4xNjc1MDI4IFogTTUzLjUyNyw0Mi4xNjc1MDI4IEw1NC4yOTYsNDIuMTY3NTAyOCBMNTQuMjk2LDQ0LjE2MDMzNTYgTDUzLjc2OSw0NC4xNjAzMzU2IEM1My43MjgsNDQuMjkyODU5IDUzLjY5Nyw0NC41MDExMSA1My42OTgsNDQuNjY1NTE4NyBDNTMuNjk4LDQ2LjQ4Mzk3ODcgNTMuMDg5LDQ3LjYwMDk2MTUgNTIuNDM3LDQ4LjI3NTUzNTQgQzUzLjA4OSw0OC45NDkxMTI4IDUzLjY5OCw1MC4wNjMxMDY0IDUzLjY5OCw1MS44NzQ1OTE0IEM1My42OTgsNTEuOTM2MzY5MiA1My42OTIsNTEuOTk3MTUwNiA1My42ODIsNTIuMDU2OTM1NiBDNTMuNjQ0LDUyLjI3MTE2NTEgNTMuNjQ0LDUyLjU1MjE1NDUgNTMuNjc2LDUyLjcxNTU2NjggTDU0LjI5Niw1Mi43MTU1NjY4IEw1NC4yOTYsNTQuNzA4Mzk5NiBMNTMuNTU4LDU0LjcwODM5OTYgQzUyLjk5NSw1NC43MDgzOTk2IDUyLjQ5OCw1NC40ODQyMDU5IDUyLjE1OCw1NC4wNzY2NzE2IEM1MS41MzUsNTMuMzI5MzU5MyA1MS42MzcsNTIuMTk3NDMwMyA1MS42OTcsNTEuNzk1ODc0NSBDNTEuNjY5LDQ5LjY5MDQ0NjYgNTAuNTA1LDQ5LjI3NzkzMDMgNTAuMzcsNDkuMjM4MDczNiBDNDkuOTM5LDQ5LjEwNzU0MyA0OS42MzcsNDguNzAzOTk0NCA0OS42NDcsNDguMjU1NjA3IEM0OS42NTgsNDcuODA4MjE2MSA0OS45NTYsNDcuNDE4NjE3MyA1MC4zOTMsNDcuMzEwMDA3OSBDNTAuNTA3LDQ3LjI3NTEzMzMgNTEuNjk4LDQ2Ljg1MzY0OTIgNTEuNjk4LDQ0LjY3OTQ2ODYgQzUxLjY3NSw0My41MDc2ODI5IDUyLjIzNyw0Mi4yMDYzNjMxIDUzLjUyNyw0Mi4xNjc1MDI4IEw1My41MjcsNDIuMTY3NTAyOCBaIE02NCw1OC44MzE1NzA3IEw0Nyw1OC44MzE1NzA3IEw0NywzNC45MTc1NzcxIEw1OCwzNC45MTc1NzcxIEw1OCwzOC45MDMyNDI3IEM1OCwzOS40NTMyNjQ2IDU4LjQ0NywzOS44OTk2NTkxIDU5LDM5Ljg5OTY1OTEgTDY0LDM5Ljg5OTY1OTEgTDY0LDU4LjgzMTU3MDcgWiBNNjAsMzQuOTE3NTc3MSBMNjAuMjQ1LDM0LjkxNzU3NzEgTDYzLjI2OCwzNy45MDY4MjYzIEw2MCwzNy45MDY4MjYzIEw2MCwzNC45MTc1NzcxIFogTTY1LjcwNCwzNy41MDgyNTk4IEw2MS4zNjEsMzMuMjEzNzA1MSBDNjEuMTc1LDMzLjAyODM3MTYgNjAuOTIxLDMyLjkyNDc0NDMgNjAuNjU3LDMyLjkyNDc0NDMgTDYwLDMyLjkyNDc0NDMgTDU5LjYzNSwzMi45MjQ3NDQzIEw1Ni41NDgsMjkuMjkxODEwMiBDNTYuMzU3LDI5LjA2NzYxNjUgNTYuMDc4LDI4LjkzOTA3ODggNTUuNzg0LDI4LjkzOTA3ODggTDQyLDI4LjkzOTA3ODggQzQxLjQ0NywyOC45MzkwNzg4IDQxLDI5LjM4NTQ3MzMgNDEsMjkuOTM1NDk1MSBMNDEsNTUuODQyMzIxNSBDNDEsNTYuMzkyMzQzMyA0MS40NDcsNTYuODM4NzM3OSA0Miw1Ni44Mzg3Mzc5IEw0NCw1Ni44Mzg3Mzc5IEw0NCw1NC44NDU5MDUxIEw0Myw1NC44NDU5MDUxIEw0MywzMC45MzE5MTE1IEw1NS4zMiwzMC45MzE5MTE1IEw1Ny4wMTQsMzIuOTI0NzQ0MyBMNDYsMzIuOTI0NzQ0MyBDNDUuNDQ3LDMyLjkyNDc0NDMgNDUsMzMuMzcxMTM4OSA0NSwzMy45MjExNjA3IEw0NSw1OS44Mjc5ODcxIEM0NSw2MC4zNzgwMDg5IDQ1LjQ0Nyw2MC44MjQ0MDM1IDQ2LDYwLjgyNDQwMzUgTDY1LDYwLjgyNDQwMzUgQzY1LjU1Myw2MC44MjQ0MDM1IDY2LDYwLjM3ODAwODkgNjYsNTkuODI3OTg3MSBMNjYsMzguMjE1NzE1NCBDNjYsMzcuOTQ5NjcyMiA2NS44OTQsMzcuNjk1NTg2MSA2NS43MDQsMzcuNTA4MjU5OCBMNjUuNzA0LDM3LjUwODI1OTggWiIgaWQ9IkFtYXpvbi1Eb2N1bWVudERCX0ljb25fNjRfU3F1aWQiIGZpbGw9IiNGRkZGRkYiLz4mI3hhOyAgICA8L2c+JiN4YTs8L3N2Zz4;html=1;fontColor=#1A1A1A;" parent="uSThPKN0Iph8RpYOuWK1S-55" vertex="1" rdfUpgraded="1" assetTypeVersion="3">
                    <mxGeometry x="214" y="306" width="80" height="80" as="geometry"/>
                    <ResourceDescriptor resource="urn:x-design-inspector:v1:genid-01JKADFF7GS6SK544SHBPQECEW-yG4xa0orhQasgvYNhj5px" serialization-version="v0" as="resourceDescriptor">
                        <SemanticDataContainer serialization-version="v0">
                            <IRI resource="https://ontology.security.amazon.dev/design-inspector/stencils" property="http://www.w3.org/2000/01/rdf-schema#isDefinedBy"/>
                            <IRI resource="https://ontology.security.amazon.dev/design-inspector/components/622e8388-2fa0-44cb-8128-1dd3ef142a48" property="https://ontology.security.amazon.dev/foundation/system-modeling/04539597-4283-4f65-8090-ae67f9d3e949"/>
                            <StringLiteral content="gU8E3vsCLFC1tpfYn1Nnc" property="https://ontology.security.amazon.dev/foundation/diagram-visualization/05cc531c-d241-49c3-80dc-bd3777c5426f"/>
                            <IRI resource="https://ontology.security.amazon.dev/foundation/graph-structure/0b4eeac8-04e5-4e85-869c-bd56fb947b7b" property="http://www.w3.org/1999/02/22-rdf-syntax-ns#type"/>
                            <StringLiteral content="Amazon DynamoDB(data source)" property="http://www.w3.org/2000/01/rdf-schema#label"/>
                            <StringLiteral content="yG4xa0orhQasgvYNhj5px" property="https://ontology.security.amazon.dev/foundation/diagram-visualization/a2255956-c3df-4c2c-b489-c307f68abc97"/>
                        </SemanticDataContainer>
                    </ResourceDescriptor>
                </mxCell>
                <object label="" stencilType="generic-channel" id="KL7B_61rrhgrM1_wuw4B3-117">
                    <mxCell style="edgeStyle=orthogonalEdgeStyle;rounded=0;html=1;jettySize=auto;orthogonalLoop=1;fontColor=#1A1A1A;strokeColor=#1A1A1A;" parent="uSThPKN0Iph8RpYOuWK1S-55" source="XY9OxUIONdMfgXh2zJndf" target="4ScB6zIA4dki9cQPRInMg" edge="1" rdfUpgraded="1" assetTypeVersion="3" pageId="gU8E3vsCLFC1tpfYn1Nnc">
                        <mxGeometry relative="1" as="geometry"/>
                        <ResourceDescriptor resource="urn:x-design-inspector:v1:genid-01JKADFF7GS6SK544SHBPQECEW-KL7B_61rrhgrM1_wuw4B3-117" serialization-version="v0" as="resourceDescriptor">
                            <SemanticDataContainer serialization-version="v0">
                                <IRI resource="urn:x-design-inspector:v1:genid-01JKADFF7GS6SK544SHBPQECEW-XY9OxUIONdMfgXh2zJndf" property="https://ontology.security.amazon.dev/foundation/graph-structure/d1fc066e-3862-4ae0-8304-6cef42f40a50"/>
                                <IRI resource="https://ontology.security.amazon.dev/design-inspector/components/84a80b5f-5642-4a17-9585-ebfdb65f4bec" property="https://ontology.security.amazon.dev/foundation/system-modeling/04539597-4283-4f65-8090-ae67f9d3e949"/>
                                <StringLiteral content="gU8E3vsCLFC1tpfYn1Nnc" property="https://ontology.security.amazon.dev/foundation/diagram-visualization/05cc531c-d241-49c3-80dc-bd3777c5426f"/>
                                <IRI resource="https://ontology.security.amazon.dev/foundation/graph-structure/65157620-74b7-470e-bd9d-b9bf56b6cb4b" property="http://www.w3.org/1999/02/22-rdf-syntax-ns#type"/>
                                <StringLiteral content="KL7B_61rrhgrM1_wuw4B3-117" property="https://ontology.security.amazon.dev/foundation/diagram-visualization/a2255956-c3df-4c2c-b489-c307f68abc97"/>
                                <IRI resource="urn:x-design-inspector:v1:genid-01JKADFF7GS6SK544SHBPQECEW-4ScB6zIA4dki9cQPRInMg" property="https://ontology.security.amazon.dev/foundation/graph-structure/617be0ed-cf17-4a01-a75d-81ed3a472532"/>
                            </SemanticDataContainer>
                        </ResourceDescriptor>
                    </mxCell>
                </object>
                <mxCell id="XY9OxUIONdMfgXh2zJndf" value="Amazon MSF Studio&lt;br&gt;Zepplin Notebook" style="shape=image;verticalLabelPosition=bottom;verticalAlign=top;aspect=fixed;imageAspect=0;image=data:image/svg+xml,PHN2ZyB4bWxucz0iaHR0cDovL3d3dy53My5vcmcvMjAwMC9zdmciIHhtbG5zOnhsaW5rPSJodHRwOi8vd3d3LnczLm9yZy8xOTk5L3hsaW5rIiB3aWR0aD0iNDhweCIgaGVpZ2h0PSI0OHB4IiB2aWV3Qm94PSIwIDAgNDggNDgiIHZlcnNpb249IjEuMSI+JiN4YTsgICAgPHRpdGxlPkljb24tUmVzb3VyY2UvTWFjaGluZS1MZWFybmluZy9SZXNfQW1hem9uLVNhZ2VNYWtlcl9Ob3RlYm9va180ODwvdGl0bGU+JiN4YTsgICAgPGcgaWQ9Ikljb24tUmVzb3VyY2UvTWFjaGluZS1MZWFybmluZy9SZXNfQW1hem9uLVNhZ2VNYWtlcl9Ob3RlYm9va180OCIgc3Ryb2tlPSJub25lIiBzdHJva2Utd2lkdGg9IjEiIGZpbGw9Im5vbmUiIGZpbGwtcnVsZT0iZXZlbm9kZCI+JiN4YTsgICAgICAgIDxwYXRoIGQ9Ik03Ljk3MiwyIEw3Ljk3Miw3LjIwNiBMNSw3LjIwNiBMNSw5LjIwNSBMNy45NzIsOS4yMDUgTDcuOTcyLDEyLjQ2NyBMNSwxMi40NjcgTDUsMTQuNDY3IEw3Ljk3MiwxNC40NjcgTDcuOTcyLDE3Ljc4IEw1LDE3Ljc4IEw1LDE5Ljc4IEw3Ljk3MiwxOS43OCBMNy45NzIsMjMuMDU0IEw1LDIzLjA1NCBMNSwyNS4wNTMgTDcuOTcyLDI1LjA1MyBMNy45NzIsMjguMjQ2IEw1LDI4LjI0NiBMNSwzMC4yNDYgTDcuOTcyLDMwLjI0NiBMNy45NzIsMzMuNDc5IEw1LDMzLjQ3OSBMNSwzNS40NzkgTDcuOTcyLDM1LjQ3OSBMNy45NzIsMzguNzkzIEw1LDM4Ljc5MyBMNSw0MC43OTMgTDcuOTcyLDQwLjc5MyBMNy45NzIsNDUuOTcyIEw0My41ODYsNDUuOTcyIEw0My41ODYsMiBMNy45NzIsMiBaIE05Ljk3Miw0IEw0MS41ODYsNCBMNDEuNTg2LDQzLjk3MiBMOS45NzIsNDMuOTcyIEw5Ljk3Miw0MC43OTMgTDEzLjA1Miw0MC43OTMgTDEzLjA1MiwzOC43OTMgTDkuOTcyLDM4Ljc5MyBMOS45NzIsMzUuNDc5IEwxMy4wNTIsMzUuNDc5IEwxMy4wNTIsMzMuNDc5IEw5Ljk3MiwzMy40NzkgTDkuOTcyLDMwLjI0NiBMMTMuMDUyLDMwLjI0NiBMMTMuMDUyLDI4LjI0NiBMOS45NzIsMjguMjQ2IEw5Ljk3MiwyNS4wNTMgTDEzLjA1MiwyNS4wNTMgTDEzLjA1MiwyMy4wNTQgTDkuOTcyLDIzLjA1NCBMOS45NzIsMTkuNzggTDEzLjA1MiwxOS43OCBMMTMuMDUyLDE3Ljc4IEw5Ljk3MiwxNy43OCBMOS45NzIsMTQuNDY3IEwxMy4wNTIsMTQuNDY3IEwxMy4wNTIsMTIuNDY3IEw5Ljk3MiwxMi40NjcgTDkuOTcyLDkuMjA1IEwxMy4wNTIsOS4yMDUgTDEzLjA1Miw3LjIwNiBMOS45NzIsNy4yMDYgTDkuOTcyLDQgWiBNMTYuODYyLDkuMjA1IEwzNi41Niw5LjIwNSBMMzYuNTYsNy4yMDUgTDE2Ljg2Miw3LjIwNSBMMTYuODYyLDkuMjA1IFogTTE2Ljg2MiwxNS41OTQgTDM2LjU2LDE1LjU5NCBMMzYuNTYsMTMuNTk0IEwxNi44NjIsMTMuNTk0IEwxNi44NjIsMTUuNTk0IFogTTE2Ljg2MiwyMS45MjcgTDM2LjU2LDIxLjkyNyBMMzYuNTYsMTkuOTI2IEwxNi44NjIsMTkuOTI2IEwxNi44NjIsMjEuOTI3IFogTTE2Ljg2MiwyOC4zMTMgTDI2Ljc2NCwyOC4zMTMgTDI2Ljc2NCwyNi4zMTMgTDE2Ljg2MiwyNi4zMTMgTDE2Ljg2MiwyOC4zMTMgWiIgaWQ9IkFtYXpvbi1NYWNoaW5lLUxlYXJuaW5nX05vdGVib29rLUljb25fbGlnaHQtYmciIGZpbGw9IiMwMUE4OEQiLz4mI3hhOyAgICA8L2c+JiN4YTs8L3N2Zz4;html=1;fontColor=#1A1A1A;" parent="uSThPKN0Iph8RpYOuWK1S-55" vertex="1" rdfUpgraded="1" assetTypeVersion="3">
                    <mxGeometry x="691.5" y="113" width="80" height="80" as="geometry"/>
                    <ResourceDescriptor resource="urn:x-design-inspector:v1:genid-01JKADFF7GS6SK544SHBPQECEW-XY9OxUIONdMfgXh2zJndf" serialization-version="v0" as="resourceDescriptor">
                        <SemanticDataContainer serialization-version="v0">
                            <IRI resource="https://ontology.security.amazon.dev/design-inspector/stencils" property="http://www.w3.org/2000/01/rdf-schema#isDefinedBy"/>
                            <IRI resource="https://ontology.security.amazon.dev/design-inspector/components/be37eadf-92a3-4b22-baa3-1b373345977a" property="https://ontology.security.amazon.dev/foundation/system-modeling/04539597-4283-4f65-8090-ae67f9d3e949"/>
                            <StringLiteral content="gU8E3vsCLFC1tpfYn1Nnc" property="https://ontology.security.amazon.dev/foundation/diagram-visualization/05cc531c-d241-49c3-80dc-bd3777c5426f"/>
                            <IRI resource="https://ontology.security.amazon.dev/foundation/graph-structure/0b4eeac8-04e5-4e85-869c-bd56fb947b7b" property="http://www.w3.org/1999/02/22-rdf-syntax-ns#type"/>
                            <StringLiteral content="Amazon MSF StudioZepplin Notebook" property="http://www.w3.org/2000/01/rdf-schema#label"/>
                            <StringLiteral content="XY9OxUIONdMfgXh2zJndf" property="https://ontology.security.amazon.dev/foundation/diagram-visualization/a2255956-c3df-4c2c-b489-c307f68abc97"/>
                        </SemanticDataContainer>
                    </ResourceDescriptor>
                </mxCell>
                <object label="" stencilType="generic-channel" id="KL7B_61rrhgrM1_wuw4B3-118">
                    <mxCell style="edgeStyle=orthogonalEdgeStyle;rounded=0;html=1;jettySize=auto;orthogonalLoop=1;strokeColor=#1A1A1A;" parent="uSThPKN0Iph8RpYOuWK1S-55" target="XY9OxUIONdMfgXh2zJndf" edge="1" rdfUpgraded="1" assetTypeVersion="3" pageId="gU8E3vsCLFC1tpfYn1Nnc">
                        <mxGeometry relative="1" as="geometry">
                            <mxPoint x="1845.5" y="153" as="sourcePoint"/>
                        </mxGeometry>
                        <ResourceDescriptor resource="urn:x-design-inspector:v1:genid-01JKADFF7GS6SK544SHBPQECEW-KL7B_61rrhgrM1_wuw4B3-118" serialization-version="v0" as="resourceDescriptor">
                            <SemanticDataContainer serialization-version="v0">
                                <IRI resource="urn:x-design-inspector:v1:genid-01JKADFF7GS6SK544SHBPQECEW-RAfZrPK0gRzwCIWJW0Ann" property="https://ontology.security.amazon.dev/foundation/graph-structure/d1fc066e-3862-4ae0-8304-6cef42f40a50"/>
                                <IRI resource="https://ontology.security.amazon.dev/design-inspector/components/84a80b5f-5642-4a17-9585-ebfdb65f4bec" property="https://ontology.security.amazon.dev/foundation/system-modeling/04539597-4283-4f65-8090-ae67f9d3e949"/>
                                <StringLiteral content="gU8E3vsCLFC1tpfYn1Nnc" property="https://ontology.security.amazon.dev/foundation/diagram-visualization/05cc531c-d241-49c3-80dc-bd3777c5426f"/>
                                <IRI resource="https://ontology.security.amazon.dev/foundation/graph-structure/65157620-74b7-470e-bd9d-b9bf56b6cb4b" property="http://www.w3.org/1999/02/22-rdf-syntax-ns#type"/>
                                <StringLiteral content="KL7B_61rrhgrM1_wuw4B3-118" property="https://ontology.security.amazon.dev/foundation/diagram-visualization/a2255956-c3df-4c2c-b489-c307f68abc97"/>
                                <IRI resource="urn:x-design-inspector:v1:genid-01JKADFF7GS6SK544SHBPQECEW-XY9OxUIONdMfgXh2zJndf" property="https://ontology.security.amazon.dev/foundation/graph-structure/617be0ed-cf17-4a01-a75d-81ed3a472532"/>
                            </SemanticDataContainer>
                        </ResourceDescriptor>
                    </mxCell>
                </object>
                <object label="Feature Data Analysis" stencilType="availability-zone" id="KL7B_61rrhgrM1_wuw4B3-119">
                    <mxCell style="fillColor=none;strokeColor=#147EBA;dashed=1;verticalAlign=top;fontStyle=0;fontColor=#147EBA;html=1;" parent="uSThPKN0Iph8RpYOuWK1S-55" vertex="1" rdfUpgraded="1" assetTypeVersion="3">
                        <mxGeometry x="1396.5" y="545.5" width="381" height="240" as="geometry"/>
                        <ResourceDescriptor resource="urn:x-design-inspector:v1:genid-01JKADFF7GS6SK544SHBPQECEW-KL7B_61rrhgrM1_wuw4B3-119" serialization-version="v0" as="resourceDescriptor">
                            <SemanticDataContainer serialization-version="v0">
                                <StringLiteral content="gU8E3vsCLFC1tpfYn1Nnc" property="https://ontology.security.amazon.dev/foundation/diagram-visualization/05cc531c-d241-49c3-80dc-bd3777c5426f"/>
                                <IRI resource="https://ontology.security.amazon.dev/design-inspector/components/84a80b5f-5642-4a17-9585-ebfdb65f4bec" property="https://ontology.security.amazon.dev/foundation/system-modeling/04539597-4283-4f65-8090-ae67f9d3e949"/>
                                <IRI resource="https://ontology.security.amazon.dev/design-inspector/components/4f51991f-f3c6-4a47-9b00-013560ab92f4" property="http://www.w3.org/1999/02/22-rdf-syntax-ns#type"/>
                                <IRI resource="https://ontology.security.amazon.dev/foundation/graph-structure/0b4eeac8-04e5-4e85-869c-bd56fb947b7b" property="http://www.w3.org/1999/02/22-rdf-syntax-ns#type"/>
                                <StringLiteral content="Feature Data Analysis" property="http://www.w3.org/2000/01/rdf-schema#label"/>
                                <StringLiteral content="KL7B_61rrhgrM1_wuw4B3-119" property="https://ontology.security.amazon.dev/foundation/diagram-visualization/a2255956-c3df-4c2c-b489-c307f68abc97"/>
                            </SemanticDataContainer>
                        </ResourceDescriptor>
                    </mxCell>
                </object>
                <mxCell id="5OuBdzungE4aAI6k0Yid-0" value="&lt;span style=&quot;color: rgb(35, 47, 62);&quot;&gt;Sample Data Generator&lt;/span&gt;" style="shape=umlActor;verticalLabelPosition=bottom;verticalAlign=top;html=1;outlineConnect=0;strokeColor=#000000;fontColor=#1A1A1A;fillColor=none;" vertex="1" parent="uSThPKN0Iph8RpYOuWK1S-55">
                    <mxGeometry x="73" y="309" width="30" height="60" as="geometry"/>
                </mxCell>
                <mxCell id="5OuBdzungE4aAI6k0Yid-2" value="&lt;span style=&quot;color: rgb(35, 47, 62);&quot;&gt;Data Scientists&lt;/span&gt;" style="shape=umlActor;verticalLabelPosition=bottom;verticalAlign=top;html=1;outlineConnect=0;strokeColor=#000000;fontColor=#1A1A1A;fillColor=none;" vertex="1" parent="uSThPKN0Iph8RpYOuWK1S-55">
                    <mxGeometry x="1851" y="119" width="30" height="60" as="geometry"/>
                </mxCell>
                <mxCell id="5OuBdzungE4aAI6k0Yid-3" value="&lt;span style=&quot;color: rgb(35, 47, 62);&quot;&gt;Demo User&lt;/span&gt;&lt;br style=&quot;color: rgb(35, 47, 62);&quot;&gt;&lt;span style=&quot;color: rgb(35, 47, 62);&quot;&gt;(Feature Query)&lt;/span&gt;" style="shape=umlActor;verticalLabelPosition=bottom;verticalAlign=top;html=1;outlineConnect=0;strokeColor=#000000;fontColor=#1A1A1A;fillColor=none;" vertex="1" parent="uSThPKN0Iph8RpYOuWK1S-55">
                    <mxGeometry x="1849" y="309" width="30" height="60" as="geometry"/>
                </mxCell>
                <mxCell id="5OuBdzungE4aAI6k0Yid-4" value="&lt;span style=&quot;color: rgb(35, 47, 62);&quot;&gt;Data Scientists&lt;/span&gt;" style="shape=umlActor;verticalLabelPosition=bottom;verticalAlign=top;html=1;outlineConnect=0;strokeColor=#000000;fontColor=#1A1A1A;fillColor=none;" vertex="1" parent="uSThPKN0Iph8RpYOuWK1S-55">
                    <mxGeometry x="1843" y="619" width="30" height="60" as="geometry"/>
                </mxCell>
            </root>
        </mxGraphModel>
    </diagram>
</mxfile>